<?xml version="1.0" encoding="UTF-8" standalone="no"?>
<!-- Created with Inkscape (http://www.inkscape.org/) -->

<svg
   xmlns:dc="http://purl.org/dc/elements/1.1/"
   xmlns:cc="http://creativecommons.org/ns#"
   xmlns:rdf="http://www.w3.org/1999/02/22-rdf-syntax-ns#"
   xmlns:svg="http://www.w3.org/2000/svg"
   xmlns="http://www.w3.org/2000/svg"
   xmlns:sodipodi="http://sodipodi.sourceforge.net/DTD/sodipodi-0.dtd"
   xmlns:inkscape="http://www.inkscape.org/namespaces/inkscape"
   id="svg2951"
   version="1.1"
   inkscape:version="0.47 r22583"
   viewBox="0.00 0.00 810.00 585.00"
   width="692"
   height="500"
   xml:space="preserve"
   sodipodi:docname="Modern-GLSL.svg"><metadata
     id="metadata2957"><rdf:RDF><cc:Work
         rdf:about=""><dc:format>image/svg+xml</dc:format><dc:type
           rdf:resource="http://purl.org/dc/dcmitype/StillImage" /><dc:title /></cc:Work></rdf:RDF></metadata><defs
     id="defs2955"><inkscape:perspective
       sodipodi:type="inkscape:persp3d"
       inkscape:vp_x="0 : 0.5 : 1"
       inkscape:vp_y="0 : 1000 : 0"
       inkscape:vp_z="1 : 0.5 : 1"
       inkscape:persp3d-origin="0.5 : 0.33333333 : 1"
       id="perspective2959" /><clipPath
       clipPathUnits="userSpaceOnUse"
       id="clipPath2969"><path
         d="m 600,6000 3900,0 0,-5400 -3900,0 0,5400 z"
         id="path2971" /></clipPath><clipPath
       clipPathUnits="userSpaceOnUse"
       id="clipPath3003"><path
         d="m 1393,2027 247,0 0,-1427 -247,0 0,1427 z"
         id="path3005" /></clipPath></defs><sodipodi:namedview
     pagecolor="#ffffff"
     bordercolor="#666666"
     borderopacity="1"
     objecttolerance="10"
     gridtolerance="10"
     guidetolerance="10"
     inkscape:pageopacity="0"
     inkscape:pageshadow="2"
     inkscape:window-width="640"
     inkscape:window-height="498"
     id="namedview2953"
     showgrid="false"
     inkscape:zoom="0.23838384"
     inkscape:cx="405"
     inkscape:cy="275.72034"
     inkscape:window-x="621"
     inkscape:window-y="785"
     inkscape:window-maximized="0"
     inkscape:current-layer="g2961"
     inkscape:showpageshadow="false" /><g
     id="g2961"
     inkscape:groupmode="layer"
     inkscape:label="Modern-GLSL"
     transform="matrix(1.25,0,0,-1.25,22.5,787.5)"><path
       id="path2975"
       style="fill:#bd3d00;fill-opacity:1;fill-rule:nonzero;stroke:none"
       d="m 258,404.04 c -3.84,0 -5.64,-2.52 -5.64,-7.68 0,-2.16 0.48,-3.96 1.56,-5.28 1.08,-1.32 2.4,-2.04 4.08,-2.04 1.68,0 3,0.72 3.96,1.92 1.08,1.2 1.68,2.88 1.68,5.04 0,5.4 -1.92,8.04 -5.64,8.04 z m 12,-20.28 c 0,-1.8 -0.36,-3.48 -0.96,-4.92 -0.6,-1.44 -1.56,-2.64 -2.64,-3.72 -1.2,-0.96 -2.52,-1.68 -3.96,-2.16 -1.56,-0.48 -3.12,-0.72 -4.92,-0.72 -1.8,0 -3.36,0.24 -4.8,0.72 -1.44,0.48 -2.76,1.08 -3.84,2.04 -1.08,0.96 -1.92,2.04 -2.52,3.36 -0.6,1.32 -0.96,2.76 -0.96,4.32 l 6.24,0 c 0,-1.56 0.48,-2.64 1.44,-3.48 1.08,-0.84 2.4,-1.32 3.96,-1.32 1.8,0 3.36,0.48 4.56,1.56 1.2,0.96 1.8,2.28 1.8,3.84 l 0,4.2 c -0.48,-1.2 -1.32,-2.04 -2.52,-2.64 -1.2,-0.6 -2.64,-0.96 -4.32,-0.96 -2.04,0 -3.84,0.36 -5.16,1.08 -1.44,0.72 -2.64,1.68 -3.48,2.88 -0.84,1.2 -1.56,2.52 -1.92,4.08 -0.36,1.56 -0.6,3.24 -0.6,4.8 0,1.92 0.36,3.72 0.96,5.4 0.48,1.56 1.32,2.88 2.28,4.08 0.96,1.2 2.16,2.04 3.48,2.64 1.32,0.6 2.76,0.96 4.32,0.96 3,0 5.4,-1.32 6.96,-3.84 l 0,3.12 6.6,0 0,-25.32 z m 9.24,0.36 -6.6,0 0,34.08 6.6,0 0,-34.08 z m 15.12,10.08 -13.2,0 0,6.12 13.2,0 0,-6.12 z m 29.16,17.76 -10.32,0 0,-27.84 -7.08,0 0,27.84 -10.08,0 0,5.88 27.48,0 0,-5.88 z m 18,-12.96 c -0.12,1.92 -0.6,3.24 -1.68,4.2 -0.96,0.84 -2.16,1.32 -3.48,1.32 -1.32,0 -2.52,-0.48 -3.48,-1.44 -0.96,-0.96 -1.44,-2.28 -1.56,-4.08 l 10.2,0 z m -10.44,-4.2 c 0.12,-1.8 0.6,-3.36 1.68,-4.44 0.96,-1.2 2.28,-1.68 3.84,-1.68 1.08,0 2.04,0.24 2.88,0.72 0.84,0.48 1.44,1.2 1.68,2.04 l 6.84,0 c -0.84,-2.52 -2.16,-4.56 -4.08,-5.88 -1.92,-1.44 -4.2,-2.16 -6.96,-2.16 -8.28,0 -12.48,4.56 -12.48,13.68 0,3.84 1.08,6.96 3.12,9.24 2.04,2.28 5.04,3.48 9,3.48 7.8,0 11.76,-5.04 11.76,-15 l -17.28,0 z m 34.2,6.72 c -0.36,2.16 -1.92,3.36 -4.56,3.36 -1.08,0 -1.92,-0.24 -2.76,-0.72 -0.72,-0.48 -1.08,-1.08 -1.08,-1.8 0,-0.96 1.32,-1.8 3.96,-2.28 3.96,-0.84 6.48,-1.56 7.68,-2.16 2.64,-1.2 3.96,-3.12 3.96,-5.76 0,-2.88 -0.96,-5.04 -3,-6.6 -2.04,-1.56 -4.8,-2.28 -8.04,-2.28 -1.68,0 -3.24,0.24 -4.68,0.72 -1.44,0.36 -2.76,0.96 -3.84,1.68 -1.08,0.84 -1.8,1.8 -2.52,2.88 -0.6,1.08 -0.96,2.28 -0.96,3.6 l 6.84,0 c 0,-1.2 0.48,-2.16 1.32,-2.88 0.96,-0.6 2.16,-0.96 3.72,-0.96 1.2,0 2.28,0.24 3.24,0.72 0.84,0.48 1.32,1.08 1.32,1.92 0,0.48 -0.36,0.84 -0.96,1.32 -0.72,0.48 -1.68,0.84 -3,1.08 -3.96,0.96 -6.48,1.68 -7.56,2.16 -2.64,1.2 -3.96,3.24 -3.96,5.88 0,1.08 0.24,2.16 0.6,3.24 0.48,0.96 1.2,1.92 2.04,2.76 0.84,0.72 1.92,1.32 3.36,1.8 1.32,0.48 2.88,0.72 4.68,0.72 1.44,0 2.88,-0.12 4.2,-0.6 1.2,-0.36 2.28,-0.96 3.24,-1.68 0.96,-0.72 1.68,-1.56 2.28,-2.64 0.6,-1.08 0.84,-2.16 0.96,-3.48 l -6.48,0 z m 23.64,0 c -0.36,2.16 -1.8,3.36 -4.44,3.36 -1.08,0 -1.92,-0.24 -2.76,-0.72 -0.72,-0.48 -1.2,-1.08 -1.2,-1.8 0,-0.96 1.44,-1.8 4.08,-2.28 3.96,-0.84 6.48,-1.56 7.56,-2.16 2.76,-1.2 4.08,-3.12 4.08,-5.76 0,-2.88 -1.08,-5.04 -3.12,-6.6 -2.04,-1.56 -4.68,-2.28 -8.04,-2.28 -1.68,0 -3.12,0.24 -4.56,0.72 -1.44,0.36 -2.76,0.96 -3.84,1.68 -1.08,0.84 -1.92,1.8 -2.52,2.88 -0.6,1.08 -0.96,2.28 -0.96,3.6 l 6.84,0 c 0,-1.2 0.48,-2.16 1.32,-2.88 0.96,-0.6 2.16,-0.96 3.72,-0.96 1.2,0 2.28,0.24 3.24,0.72 0.84,0.48 1.32,1.08 1.32,1.92 0,0.48 -0.36,0.84 -0.96,1.32 -0.72,0.48 -1.68,0.84 -3.12,1.08 -3.84,0.96 -6.36,1.68 -7.44,2.16 -2.64,1.2 -3.96,3.24 -3.96,5.88 0,1.08 0.24,2.16 0.6,3.24 0.48,0.96 1.08,1.92 2.04,2.76 0.84,0.72 1.92,1.32 3.24,1.8 1.32,0.48 3,0.72 4.8,0.72 1.44,0 2.88,-0.12 4.08,-0.6 1.32,-0.36 2.4,-0.96 3.36,-1.68 0.96,-0.72 1.68,-1.56 2.28,-2.64 0.6,-1.08 0.84,-2.16 0.96,-3.48 l -6.6,0 z m 15.84,-11.28 16.68,0 0,-6.12 -23.76,0 0,33.72 7.08,0 0,-27.6 z m 34.8,8.76 c -0.12,1.92 -0.72,3.24 -1.68,4.2 -0.96,0.84 -2.16,1.32 -3.48,1.32 -1.32,0 -2.52,-0.48 -3.48,-1.44 -0.96,-0.96 -1.44,-2.28 -1.68,-4.08 l 10.32,0 z m -10.44,-4.2 c 0.12,-1.8 0.6,-3.36 1.56,-4.44 0.96,-1.2 2.4,-1.68 3.96,-1.68 1.08,0 2.04,0.24 2.88,0.72 0.84,0.48 1.44,1.2 1.68,2.04 l 6.84,0 c -0.84,-2.52 -2.16,-4.56 -4.08,-5.88 -1.92,-1.44 -4.32,-2.16 -6.96,-2.16 -8.4,0 -12.48,4.56 -12.48,13.68 0,3.84 0.96,6.96 3.12,9.24 2.04,2.28 5.04,3.48 8.88,3.48 7.92,0 11.76,-5.04 11.76,-15 l -17.16,0 z m 33.96,-10.68 -6.96,0 -8.88,24.96 7.32,0 5.28,-16.44 5.28,16.44 6.96,0 -9,-24.96 z m 27,14.88 c -0.12,1.92 -0.6,3.24 -1.68,4.2 -0.96,0.84 -2.16,1.32 -3.48,1.32 -1.32,0 -2.52,-0.48 -3.48,-1.44 -0.96,-0.96 -1.44,-2.28 -1.56,-4.08 l 10.2,0 z m -10.44,-4.2 c 0.12,-1.8 0.6,-3.36 1.68,-4.44 0.96,-1.2 2.28,-1.68 3.96,-1.68 1.08,0 1.92,0.24 2.76,0.72 0.84,0.48 1.44,1.2 1.68,2.04 l 6.84,0 c -0.84,-2.52 -2.16,-4.56 -4.08,-5.88 -1.92,-1.44 -4.2,-2.16 -6.96,-2.16 -8.28,0 -12.48,4.56 -12.48,13.68 0,3.84 1.08,6.96 3.12,9.24 2.04,2.28 5.04,3.48 9,3.48 7.8,0 11.76,-5.04 11.76,-15 l -17.28,0 z m 25.8,-10.68 -6.48,0 0,34.08 6.48,0 0,-34.08 z m 9.12,16.44 c 0,-4.08 0.84,-6.96 2.4,-8.76 1.56,-1.92 3.84,-2.88 6.84,-2.88 1.32,0 2.52,0.24 3.6,0.72 1.08,0.48 2.04,1.2 2.88,2.16 0.84,0.84 1.44,2.04 1.92,3.6 0.48,1.44 0.72,3.12 0.72,5.16 0,3.96 -0.72,6.96 -2.28,9 -1.56,2.04 -3.84,3.12 -6.84,3.12 -3,0 -5.28,-0.96 -6.84,-3.12 -1.56,-2.04 -2.4,-5.04 -2.4,-9 z m 9.24,18.36 c 5.28,0 9.36,-1.56 12,-4.68 2.76,-3.24 4.2,-7.8 4.2,-13.68 0,-6 -1.44,-10.44 -4.08,-13.32 -2.64,-2.88 -6.72,-4.32 -12.12,-4.32 -5.4,0 -9.48,1.44 -12.12,4.44 -2.76,3 -4.08,7.44 -4.08,13.32 0,2.88 0.36,5.4 1.08,7.68 0.72,2.28 1.68,4.2 3.12,5.76 1.32,1.56 3,2.76 5.04,3.6 2.04,0.84 4.32,1.2 6.96,1.2 z m 40.8,-34.8 -6.36,0 0,3.48 c -1.56,-2.76 -4.2,-4.2 -7.68,-4.2 -1.2,0 -2.4,0.24 -3.48,0.72 -0.96,0.36 -1.92,1.08 -2.64,1.8 -0.72,0.84 -1.32,1.8 -1.8,3 -0.36,1.08 -0.6,2.28 -0.6,3.72 l 0,16.44 6.6,0 0,-15.48 c 0,-3.12 1.44,-4.68 4.2,-4.68 1.68,0 3,0.6 3.84,1.68 0.84,1.08 1.32,2.4 1.32,4.08 l 0,14.4 6.6,0 0,-24.96 z m 22.92,20.28 -13.8,0 0,-10.32 c 0,-1.56 0.36,-2.76 0.84,-3.6 0.6,-0.84 1.56,-1.32 3,-1.32 1.32,0 2.28,0.36 2.88,1.2 0.6,0.84 0.96,2.04 0.96,3.72 l 0,6.48 6.12,0 0,-7.2 c 0,-1.32 -0.24,-2.52 -0.6,-3.84 -0.36,-1.2 -0.96,-2.16 -1.8,-3.12 -0.84,-0.96 -1.8,-1.68 -3.12,-2.16 -1.32,-0.6 -2.88,-0.84 -4.56,-0.84 -1.8,0 -3.36,0.24 -4.68,0.84 -1.32,0.48 -2.4,1.2 -3.12,2.16 -0.84,0.96 -1.44,1.92 -1.92,3.12 -0.36,1.2 -0.48,2.52 -0.48,3.84 l 0,22.56 6.48,0 0,-6.84 13.8,0 0,-4.68 z M 606.6,399 c 0,1.92 -0.6,3.24 -1.56,4.2 -0.96,0.84 -2.16,1.32 -3.48,1.32 -1.32,0 -2.52,-0.48 -3.48,-1.44 -0.96,-0.96 -1.56,-2.28 -1.68,-4.08 l 10.2,0 z m -10.44,-4.2 c 0.12,-1.8 0.72,-3.36 1.68,-4.44 0.96,-1.2 2.28,-1.68 3.96,-1.68 1.08,0 2.04,0.24 2.88,0.72 0.84,0.48 1.44,1.2 1.68,2.04 l 6.72,0 c -0.72,-2.52 -2.04,-4.56 -3.96,-5.88 -1.92,-1.44 -4.32,-2.16 -6.96,-2.16 -8.4,0 -12.6,4.56 -12.6,13.68 0,3.84 1.08,6.96 3.24,9.24 2.04,2.28 5.04,3.48 8.88,3.48 7.8,0 11.76,-5.04 11.76,-15 l -17.28,0 z m 33.84,8.16 c -0.6,0.12 -1.2,0.24 -1.8,0.24 -4.08,0 -6.12,-2.04 -6.12,-6.12 l 0,-12.96 -6.6,0 0,24.96 6.24,0 0,-3 c 0.48,0.84 1.08,1.56 1.68,2.04 0.6,0.48 1.2,0.84 1.8,1.08 0.6,0.24 1.32,0.36 1.92,0.48 0.72,0 1.32,0 2.04,0 l 0.84,0 0,-6.72" /><path
       id="path2977"
       style="fill:#a32c0d;fill-opacity:1;fill-rule:nonzero;stroke:none"
       d="m 11.88,440.4 c -3.84,0 -5.64,-2.52 -5.64,-7.56 0,-2.28 0.48,-4.08 1.56,-5.4 1.08,-1.32 2.4,-1.92 4.08,-1.92 1.68,0 3,0.6 3.96,1.8 1.08,1.32 1.56,3 1.56,5.04 0,5.4 -1.8,8.04 -5.52,8.04 z m 12,-20.16 c 0,-1.92 -0.36,-3.6 -0.96,-5.04 -0.6,-1.44 -1.56,-2.64 -2.64,-3.6 -1.2,-0.96 -2.52,-1.8 -3.96,-2.28 -1.56,-0.48 -3.12,-0.72 -4.92,-0.72 -1.8,0 -3.36,0.24 -4.8,0.72 -1.44,0.48 -2.76,1.2 -3.84,2.16 -1.08,0.84 -1.92,1.92 -2.52,3.24 -0.6,1.32 -0.96,2.76 -0.96,4.44 l 6.24,0 c 0,-1.56 0.48,-2.76 1.44,-3.6 1.08,-0.84 2.4,-1.2 3.96,-1.2 1.8,0 3.24,0.48 4.56,1.44 1.2,0.96 1.8,2.28 1.8,3.96 l 0,4.08 c -0.48,-1.08 -1.32,-2.04 -2.52,-2.64 -1.2,-0.6 -2.64,-0.96 -4.32,-0.96 -2.04,0 -3.84,0.36 -5.16,1.08 -1.44,0.72 -2.64,1.68 -3.48,2.88 -0.84,1.2 -1.56,2.64 -1.92,4.2 -0.36,1.56 -0.6,3.12 -0.6,4.8 0,1.92 0.36,3.72 0.84,5.28 0.6,1.56 1.44,3 2.4,4.08 0.96,1.2 2.16,2.04 3.48,2.76 1.32,0.6 2.76,0.84 4.2,0.84 3.12,0 5.52,-1.2 7.08,-3.72 l 0,3.12 6.6,0 0,-25.32 z m 9.24,0.24 -6.6,0 0,34.2 6.6,0 0,-34.2 z m 15.12,10.08 -13.2,0 0,6.24 13.2,0 0,-6.24 z m 29.04,17.76 -10.2,0 0,-27.84 -7.08,0 0,27.84 -10.08,0 0,6 27.36,0 0,-6 z M 95.4,435.48 c -0.12,1.8 -0.6,3.24 -1.68,4.08 -0.96,0.96 -2.16,1.32 -3.48,1.32 -1.32,0 -2.52,-0.48 -3.48,-1.44 -0.96,-0.96 -1.44,-2.28 -1.68,-3.96 l 10.32,0 z m -10.44,-4.2 c 0.12,-1.92 0.6,-3.36 1.56,-4.56 1.08,-1.08 2.4,-1.68 3.96,-1.68 1.08,0 2.04,0.24 2.88,0.72 0.84,0.6 1.44,1.2 1.68,2.04 l 6.84,0 c -0.84,-2.52 -2.16,-4.44 -4.08,-5.88 -1.92,-1.44 -4.32,-2.04 -6.96,-2.04 -8.4,0 -12.48,4.44 -12.48,13.56 0,3.84 0.96,6.96 3.12,9.24 2.04,2.4 5.04,3.48 8.88,3.48 7.92,0 11.76,-4.92 11.76,-14.88 l -17.16,0 z m 34.08,6.72 c -0.24,2.16 -1.8,3.24 -4.44,3.24 -1.08,0 -1.92,-0.24 -2.76,-0.72 -0.72,-0.48 -1.2,-0.96 -1.2,-1.68 0,-1.08 1.44,-1.8 4.08,-2.4 3.96,-0.84 6.48,-1.56 7.56,-2.04 2.76,-1.2 4.08,-3.24 4.08,-5.88 0,-2.88 -1.08,-5.04 -3.12,-6.6 -2.04,-1.44 -4.68,-2.16 -8.04,-2.16 -1.56,0 -3.12,0.12 -4.56,0.6 -1.44,0.36 -2.76,0.96 -3.84,1.8 -1.08,0.72 -1.92,1.68 -2.52,2.76 -0.6,1.08 -0.96,2.28 -0.96,3.6 l 6.84,0 c 0,-1.2 0.48,-2.16 1.32,-2.76 0.96,-0.72 2.16,-1.08 3.72,-1.08 1.2,0 2.28,0.24 3.24,0.72 0.84,0.48 1.32,1.2 1.32,1.92 0,0.48 -0.36,0.96 -0.96,1.32 -0.72,0.48 -1.68,0.84 -3,1.08 -3.96,0.96 -6.48,1.68 -7.56,2.16 -2.64,1.32 -3.96,3.24 -3.96,6 0,1.08 0.24,2.16 0.6,3.12 0.48,1.08 1.08,1.92 2.04,2.76 0.84,0.84 1.92,1.44 3.24,1.92 1.32,0.48 3,0.72 4.8,0.72 1.44,0 2.88,-0.24 4.08,-0.6 1.32,-0.48 2.4,-0.96 3.36,-1.8 0.96,-0.72 1.68,-1.56 2.28,-2.64 0.6,-1.08 0.84,-2.16 0.96,-3.36 l -6.6,0 z m 23.76,0 c -0.36,2.16 -1.8,3.24 -4.44,3.24 -1.08,0 -1.92,-0.24 -2.76,-0.72 -0.84,-0.48 -1.2,-0.96 -1.2,-1.68 0,-1.08 1.32,-1.8 4.08,-2.4 3.96,-0.84 6.48,-1.56 7.56,-2.04 2.64,-1.2 4.08,-3.24 4.08,-5.88 0,-2.88 -1.08,-5.04 -3.12,-6.6 -2.04,-1.44 -4.68,-2.16 -8.04,-2.16 -1.68,0 -3.12,0.12 -4.56,0.6 -1.44,0.36 -2.76,0.96 -3.84,1.8 -1.08,0.72 -1.92,1.68 -2.52,2.76 -0.6,1.08 -0.96,2.28 -0.96,3.6 l 6.84,0 c 0,-1.2 0.36,-2.16 1.32,-2.76 0.96,-0.72 2.16,-1.08 3.72,-1.08 1.2,0 2.28,0.24 3.24,0.72 0.84,0.48 1.32,1.2 1.32,1.92 0,0.48 -0.36,0.96 -1.08,1.32 -0.6,0.48 -1.56,0.84 -3,1.08 -3.84,0.96 -6.36,1.68 -7.44,2.16 -2.64,1.32 -3.96,3.24 -3.96,6 0,1.08 0.12,2.16 0.6,3.12 0.48,1.08 1.08,1.92 2.04,2.76 0.84,0.84 1.92,1.44 3.24,1.92 1.32,0.48 3,0.72 4.8,0.72 1.44,0 2.88,-0.24 4.08,-0.6 1.32,-0.48 2.4,-0.96 3.36,-1.8 0.96,-0.72 1.68,-1.56 2.28,-2.64 0.6,-1.08 0.84,-2.16 0.96,-3.36 l -6.6,0 z m 15.84,-11.4 16.68,0 0,-6.12 -23.76,0 0,33.84 7.08,0 0,-27.72 z m 34.68,8.88 c 0,1.8 -0.6,3.24 -1.56,4.08 -0.96,0.96 -2.16,1.32 -3.48,1.32 -1.32,0 -2.52,-0.48 -3.48,-1.44 -0.96,-0.96 -1.44,-2.28 -1.68,-3.96 l 10.2,0 z m -10.44,-4.2 c 0.12,-1.92 0.72,-3.36 1.68,-4.56 0.96,-1.08 2.28,-1.68 3.96,-1.68 1.08,0 2.04,0.24 2.88,0.72 0.84,0.6 1.44,1.2 1.68,2.04 l 6.72,0 c -0.72,-2.52 -2.04,-4.44 -3.96,-5.88 -1.92,-1.44 -4.32,-2.04 -6.96,-2.04 -8.4,0 -12.48,4.44 -12.48,13.56 0,3.84 0.96,6.96 3.12,9.24 2.04,2.4 5.04,3.48 8.88,3.48 7.8,0 11.76,-4.92 11.76,-14.88 l -17.28,0 z m 34.08,-10.8 -6.96,0 -8.88,25.08 7.32,0 5.16,-16.56 5.4,16.56 6.96,0 -9,-25.08 z m 27,15 c -0.12,1.8 -0.6,3.24 -1.68,4.08 -0.96,0.96 -2.16,1.32 -3.48,1.32 -1.32,0 -2.52,-0.48 -3.48,-1.44 -0.96,-0.96 -1.44,-2.28 -1.56,-3.96 l 10.2,0 z m -10.44,-4.2 c 0.12,-1.92 0.6,-3.36 1.56,-4.56 1.08,-1.08 2.4,-1.68 3.96,-1.68 1.08,0 2.04,0.24 2.88,0.72 0.84,0.6 1.44,1.2 1.68,2.04 l 6.84,0 c -0.84,-2.52 -2.16,-4.44 -4.08,-5.88 -1.92,-1.44 -4.32,-2.04 -6.96,-2.04 -8.28,0 -12.48,4.44 -12.48,13.56 0,3.84 0.96,6.96 3.12,9.24 2.04,2.4 5.04,3.48 8.88,3.48 7.92,0 11.76,-4.92 11.76,-14.88 l -17.16,0 z m 25.8,-10.8 -6.6,0 0,34.2 6.6,0 0,-34.2 z m 9.6,0 -7.08,0 0,33.84 7.08,0 0,-33.84 z m 8.76,21.36 c 0.72,1.44 1.8,2.52 3.12,3.24 1.32,0.72 2.88,1.08 4.92,1.08 1.2,0 2.28,-0.12 3.36,-0.48 0.96,-0.36 1.8,-0.96 2.64,-1.68 0.72,-0.6 1.2,-1.56 1.68,-2.52 0.48,-1.08 0.6,-2.28 0.6,-3.6 l 0,-17.4 -6.6,0 0,15.12 c 0,1.92 -0.36,3.36 -0.96,3.96 -0.6,0.72 -1.8,1.08 -3.36,1.08 -3.48,0 -5.16,-1.92 -5.16,-5.76 l 0,-14.4 -6.6,0 0,25.08 6.36,0 0,-3.72 z m 25.32,0 c 0.72,1.44 1.8,2.52 3.12,3.24 1.32,0.72 2.88,1.08 4.92,1.08 1.2,0 2.4,-0.12 3.36,-0.48 0.96,-0.36 1.92,-0.96 2.64,-1.68 0.72,-0.6 1.32,-1.56 1.68,-2.52 0.48,-1.08 0.6,-2.28 0.6,-3.6 l 0,-17.4 -6.6,0 0,15.12 c 0,1.92 -0.36,3.36 -0.96,3.96 -0.6,0.72 -1.8,1.08 -3.36,1.08 -3.48,0 -5.16,-1.92 -5.16,-5.76 l 0,-14.4 -6.6,0 0,25.08 6.36,0 0,-3.72 z m 35.52,-6.36 c -0.12,1.8 -0.6,3.24 -1.68,4.08 -0.96,0.96 -2.16,1.32 -3.48,1.32 -1.32,0 -2.52,-0.48 -3.48,-1.44 -0.96,-0.96 -1.44,-2.28 -1.56,-3.96 l 10.2,0 z m -10.44,-4.2 c 0.12,-1.92 0.6,-3.36 1.56,-4.56 1.08,-1.08 2.4,-1.68 3.96,-1.68 1.08,0 2.04,0.24 2.88,0.72 0.84,0.6 1.44,1.2 1.68,2.04 l 6.84,0 c -0.84,-2.52 -2.16,-4.44 -4.08,-5.88 -1.92,-1.44 -4.32,-2.04 -6.96,-2.04 -8.4,0 -12.48,4.44 -12.48,13.56 0,3.84 0.96,6.96 3.12,9.24 2.04,2.4 5.04,3.48 8.88,3.48 7.92,0 11.76,-4.92 11.76,-14.88 l -17.16,0 z m 33.72,8.16 c -0.6,0.12 -1.2,0.12 -1.8,0.12 -4.08,0 -6.12,-2.04 -6.12,-6 l 0,-13.08 -6.6,0 0,25.08 6.24,0 0,-3 c 0.6,0.84 1.08,1.44 1.68,1.92 0.6,0.48 1.2,0.84 1.8,1.08 0.6,0.24 1.32,0.48 1.92,0.48 0.72,0.12 1.32,0.12 2.04,0.12 l 0.84,0 0,-6.72" /><path
       id="path2979"
       style="fill:#a3360d;fill-opacity:1;fill-rule:nonzero;stroke:none"
       d="m 242.52,333.6 -8.88,0 0,45.48 8.88,0 0,-45.48 z m 23.76,16.32 c -0.84,-0.72 -2.4,-1.32 -4.56,-1.8 -3,-0.6 -5.16,-1.32 -6.24,-2.04 -1.08,-0.84 -1.56,-1.92 -1.56,-3.36 0,-2.52 1.32,-3.72 3.96,-3.72 1.08,0 2.16,0.12 3.24,0.48 1.08,0.24 1.92,0.72 2.76,1.44 0.72,0.6 1.44,1.44 1.92,2.4 0.48,0.96 0.6,2.04 0.6,3.36 0,0.36 0,0.96 0,1.56 0,0.72 0,1.2 -0.12,1.68 z m -5.4,17.88 c 4.68,0 8.28,-1.08 10.68,-3.36 2.4,-2.28 3.48,-5.52 3.48,-9.84 l 0,-21 -8.16,0 c -0.12,0.36 -0.24,0.72 -0.24,1.2 -0.12,0.48 -0.24,0.96 -0.24,1.44 -1.08,-1.08 -2.52,-1.92 -4.2,-2.52 -1.68,-0.6 -3.72,-0.84 -6,-0.84 -3.36,0 -6,0.84 -8.04,2.52 -2.04,1.68 -3,3.96 -3,6.84 0,2.28 0.36,4.2 1.08,5.52 0.72,1.32 1.8,2.4 3.24,3.24 1.32,0.72 3,1.32 4.8,1.8 1.92,0.36 3.96,0.72 6.12,0.96 1.8,0.24 3.12,0.6 4.2,1.2 0.96,0.48 1.44,1.32 1.44,2.28 0,1.2 -0.6,2.16 -1.68,2.88 -1.2,0.6 -2.52,0.84 -3.96,0.84 -1.56,0 -2.88,-0.36 -3.84,-1.32 -1.08,-0.84 -1.68,-2.04 -1.92,-3.6 l -8.4,0 c 0.24,3.72 1.56,6.6 3.84,8.64 2.16,2.16 5.76,3.12 10.8,3.12 z m 47.76,-35.16 c 0,-2.28 -0.36,-4.44 -1.2,-6.24 -0.72,-1.92 -1.8,-3.48 -3.24,-4.8 -1.44,-1.32 -3,-2.28 -4.92,-2.88 -1.8,-0.72 -3.84,-0.96 -6,-0.96 -4.8,0 -8.52,1.2 -10.92,3.6 -2.52,2.4 -3.72,5.88 -3.72,10.32 l 8.16,0 c 0,-2.04 0.6,-3.6 1.68,-4.68 1.2,-1.08 3,-1.68 5.28,-1.68 0.84,0 1.56,0.24 2.28,0.48 0.72,0.36 1.32,0.84 1.92,1.44 0.6,0.6 1.08,1.44 1.32,2.28 0.36,0.84 0.6,1.92 0.6,3 l 0,5.4 c -0.6,-1.44 -1.8,-2.64 -3.48,-3.48 -1.68,-0.84 -3.48,-1.2 -5.52,-1.2 -1.8,0 -3.48,0.24 -4.92,0.84 -1.44,0.48 -2.76,1.32 -3.84,2.4 -1.08,1.08 -2.04,2.4 -2.64,3.84 -0.6,1.44 -0.84,3.12 -0.84,4.92 l 0,21.72 8.76,0 0,-20.4 c 0,-4.08 1.92,-6.24 5.64,-6.24 2.04,0 3.72,0.6 4.92,1.8 1.2,1.2 1.92,2.64 1.92,4.44 l 0,20.4 8.76,0 0,-34.32 z m 19.92,27.72 c -5.4,0 -8.04,-3.36 -8.04,-10.08 0,-6.84 2.64,-10.2 8.04,-10.2 5.4,0 8.04,3.36 8.04,10.2 0,6.72 -2.64,10.08 -8.04,10.08 z m 0,7.44 c 2.64,0 5.04,-0.36 7.08,-1.2 2.16,-0.84 3.96,-2.04 5.4,-3.6 1.44,-1.56 2.52,-3.36 3.36,-5.52 0.72,-2.16 1.2,-4.56 1.2,-7.2 0,-2.64 -0.48,-5.04 -1.2,-7.2 -0.84,-2.16 -2.04,-4.08 -3.48,-5.64 -1.44,-1.56 -3.24,-2.64 -5.28,-3.48 -2.16,-0.84 -4.44,-1.32 -7.08,-1.32 -2.64,0 -5.04,0.48 -7.2,1.32 -2.16,0.84 -3.96,2.04 -5.4,3.6 -1.44,1.56 -2.64,3.36 -3.36,5.52 -0.84,2.16 -1.2,4.56 -1.2,7.2 0,2.64 0.48,5.04 1.2,7.2 0.84,2.16 1.92,3.96 3.48,5.52 1.44,1.56 3.24,2.64 5.4,3.6 2.04,0.84 4.44,1.2 7.08,1.2 z m 49.8,-34.2 -8.28,0 0,4.68 c -2.28,-3.72 -5.64,-5.64 -10.44,-5.64 -1.68,0 -3.12,0.36 -4.56,0.96 -1.32,0.6 -2.52,1.32 -3.6,2.52 -0.96,1.08 -1.68,2.4 -2.28,3.84 -0.6,1.44 -0.84,3.12 -0.84,5.04 l 0,21.96 8.76,0 0,-20.64 c 0,-4.2 1.92,-6.24 5.64,-6.24 2.28,0 3.96,0.72 5.16,2.16 1.2,1.44 1.8,3.24 1.8,5.4 l 0,19.32 8.64,0 0,-33.36 z m 30.6,27 -18.36,0 0,-13.68 c 0,-2.16 0.36,-3.72 1.2,-4.92 0.72,-1.2 2.04,-1.68 3.84,-1.68 1.8,0 3.12,0.48 3.96,1.68 0.84,1.08 1.2,2.76 1.2,4.8 l 0,8.76 8.16,0 0,-9.6 c 0,-1.8 -0.24,-3.48 -0.72,-5.04 -0.48,-1.68 -1.32,-3.12 -2.4,-4.32 -1.08,-1.2 -2.52,-2.16 -4.2,-2.88 -1.68,-0.72 -3.72,-1.08 -6.12,-1.08 -2.4,0 -4.56,0.36 -6.24,1.08 -1.68,0.72 -3.12,1.68 -4.2,2.88 -1.08,1.2 -1.92,2.64 -2.4,4.32 -0.48,1.56 -0.84,3.24 -0.84,5.04 l 0,30 8.76,0 0,-9 18.36,0 0,-6.36" /><path
       id="path2981"
       style="fill:#bd6500;fill-opacity:1;fill-rule:nonzero;stroke:none"
       d="m 210.72,471.6 -9.24,0 0,-6.96 c 0,-1.08 0.24,-1.8 0.6,-2.4 0.36,-0.6 1.08,-0.84 1.92,-0.84 0.84,0 1.56,0.24 1.92,0.84 0.48,0.6 0.6,1.32 0.6,2.4 l 0,4.32 4.2,0 0,-4.8 c 0,-0.84 -0.12,-1.68 -0.48,-2.52 -0.24,-0.84 -0.6,-1.44 -1.2,-2.04 -0.48,-0.6 -1.2,-1.2 -2.04,-1.56 -0.84,-0.36 -1.92,-0.48 -3.12,-0.48 -1.2,0 -2.16,0.12 -3,0.48 -0.84,0.36 -1.56,0.84 -2.16,1.56 -0.6,0.6 -0.96,1.32 -1.2,2.04 -0.24,0.84 -0.36,1.68 -0.36,2.64 l 0,14.88 4.32,0 0,-4.44 9.24,0 0,-3.12 z m 12.72,-3.6 c -0.12,1.2 -0.48,2.16 -1.08,2.76 -0.72,0.6 -1.44,0.84 -2.4,0.84 -0.84,0 -1.56,-0.24 -2.28,-0.96 -0.6,-0.6 -0.96,-1.44 -1.08,-2.64 l 6.84,0 z m -6.96,-2.76 c 0.12,-1.32 0.48,-2.28 1.08,-3 0.72,-0.84 1.56,-1.2 2.64,-1.2 0.72,0 1.32,0.24 1.92,0.48 0.6,0.36 0.96,0.84 1.08,1.44 l 4.56,0 c -0.48,-1.68 -1.44,-3.12 -2.76,-3.96 -1.32,-0.96 -2.76,-1.44 -4.56,-1.44 -5.64,0 -8.4,3 -8.4,9.12 0,2.52 0.72,4.68 2.16,6.12 1.32,1.56 3.36,2.4 5.88,2.4 5.28,0 7.92,-3.36 7.92,-9.96 l -11.52,0 z m 22.8,1.32 5.76,-8.52 -5.4,0 -3,5.04 -2.76,-5.04 -5.28,0 5.52,8.52 -5.4,8.16 5.28,0 2.88,-4.92 2.76,4.92 5.16,0 -5.52,-8.16 z m 20.28,5.04 -9.24,0 0,-6.96 c 0,-1.08 0.24,-1.8 0.6,-2.4 0.36,-0.6 1.08,-0.84 1.92,-0.84 0.96,0 1.56,0.24 1.92,0.84 0.48,0.6 0.72,1.32 0.72,2.4 l 0,4.32 4.08,0 0,-4.8 c 0,-0.84 -0.12,-1.68 -0.36,-2.52 -0.24,-0.84 -0.72,-1.44 -1.2,-2.04 -0.6,-0.6 -1.32,-1.2 -2.16,-1.56 -0.84,-0.36 -1.92,-0.48 -3,-0.48 -1.2,0 -2.28,0.12 -3.12,0.48 -0.84,0.36 -1.56,0.84 -2.16,1.56 -0.48,0.6 -0.96,1.32 -1.2,2.04 -0.24,0.84 -0.36,1.68 -0.36,2.64 l 0,14.88 4.32,0 0,-4.44 9.24,0 0,-3.12 z m 16.8,-13.56 -4.2,0 0,2.28 c -1.08,-1.8 -2.88,-2.76 -5.16,-2.76 -0.84,0 -1.56,0.12 -2.28,0.48 -0.72,0.24 -1.32,0.72 -1.8,1.2 -0.48,0.6 -0.96,1.2 -1.2,1.92 -0.24,0.84 -0.48,1.68 -0.48,2.52 l 0,11.04 4.44,0 0,-10.32 c 0,-2.04 0.96,-3.12 2.88,-3.12 1.08,0 1.92,0.36 2.52,1.08 0.6,0.72 0.84,1.56 0.84,2.76 l 0,9.6 4.44,0 0,-16.68 z m 11.4,12.6 c -0.48,0 -0.84,0.12 -1.2,0.12 -2.76,0 -4.08,-1.44 -4.08,-4.08 l 0,-8.64 -4.44,0 0,16.68 4.2,0 0,-2.04 c 0.36,0.6 0.72,0.96 1.08,1.32 0.36,0.36 0.84,0.6 1.2,0.72 0.48,0.24 0.84,0.36 1.32,0.36 0.48,0 0.84,0 1.32,0 l 0.6,0 0,-4.44 z m 12,-2.64 c 0,1.2 -0.36,2.16 -1.08,2.76 -0.72,0.6 -1.44,0.84 -2.28,0.84 -0.96,0 -1.68,-0.24 -2.4,-0.96 -0.6,-0.6 -0.96,-1.44 -1.08,-2.64 l 6.84,0 z m -6.96,-2.76 c 0.12,-1.32 0.48,-2.28 1.08,-3 0.72,-0.84 1.56,-1.2 2.64,-1.2 0.72,0 1.32,0.24 1.92,0.48 0.6,0.36 0.96,0.84 1.08,1.44 l 4.56,0 c -0.48,-1.68 -1.44,-3.12 -2.76,-3.96 -1.32,-0.96 -2.76,-1.44 -4.56,-1.44 -5.52,0 -8.4,3 -8.4,9.12 0,2.52 0.72,4.68 2.16,6.12 1.32,1.56 3.36,2.4 6,2.4 5.16,0 7.8,-3.36 7.8,-9.96 l -11.52,0 z m 23.28,16.08 c 3.6,0 6.24,-1.08 8.04,-3.24 1.8,-2.16 2.76,-5.16 2.76,-9.12 0,-1.32 -0.24,-2.64 -0.6,-3.96 -0.36,-1.2 -0.84,-2.28 -1.56,-3.36 -0.72,-0.96 -1.68,-1.8 -2.64,-2.4 -1.08,-0.72 -2.28,-1.2 -3.72,-1.32 0,-1.32 0.24,-2.28 0.72,-2.88 0.48,-0.6 1.08,-0.84 1.8,-0.84 0.6,0 1.2,0.24 1.56,0.84 0.48,0.6 0.72,1.44 0.72,2.52 l 4.2,0 c 0,-1.08 -0.24,-2.04 -0.6,-3 -0.36,-0.96 -0.84,-1.68 -1.44,-2.4 -0.6,-0.6 -1.32,-1.2 -2.16,-1.56 -0.84,-0.36 -1.68,-0.48 -2.76,-0.48 -0.84,0 -1.68,0.12 -2.52,0.48 -0.84,0.36 -1.44,0.84 -2.04,1.44 -0.6,0.6 -0.96,1.2 -1.32,2.04 -0.36,0.84 -0.48,1.8 -0.48,2.76 l 0,0.72 c -2.88,0.48 -5.04,1.56 -6.48,3.36 -1.56,1.92 -2.28,4.56 -2.28,8.16 0,1.92 0.24,3.6 0.72,5.16 0.48,1.44 1.2,2.76 2.04,3.84 0.96,0.96 2.04,1.8 3.48,2.4 1.32,0.48 2.88,0.84 4.56,0.84 z m -6.12,-12.36 c 0,-2.64 0.48,-4.56 1.56,-5.88 1.08,-1.2 2.64,-1.8 4.56,-1.8 0.84,0 1.68,0.12 2.4,0.48 0.72,0.24 1.44,0.72 1.92,1.32 0.6,0.6 0.96,1.44 1.32,2.4 0.36,0.96 0.48,2.16 0.48,3.48 0,2.64 -0.48,4.68 -1.56,6.12 -1.08,1.32 -2.52,2.04 -4.56,2.04 -1.92,0 -3.48,-0.72 -4.56,-2.04 -1.08,-1.44 -1.56,-3.48 -1.56,-6.12 z m 33.36,-10.92 -4.2,0 0,2.28 c -1.08,-1.8 -2.88,-2.76 -5.16,-2.76 -0.84,0 -1.68,0.12 -2.28,0.48 -0.72,0.24 -1.32,0.72 -1.8,1.2 -0.48,0.6 -0.96,1.2 -1.2,1.92 -0.24,0.84 -0.48,1.68 -0.48,2.52 l 0,11.04 4.44,0 0,-10.32 c 0,-2.04 0.96,-3.12 2.88,-3.12 1.08,0 1.92,0.36 2.52,1.08 0.6,0.72 0.84,1.56 0.84,2.76 l 0,9.6 4.44,0 0,-16.68 z m 12.72,9.96 c -0.12,1.2 -0.48,2.16 -1.08,2.76 -0.72,0.6 -1.44,0.84 -2.4,0.84 -0.84,0 -1.56,-0.24 -2.28,-0.96 -0.6,-0.6 -0.96,-1.44 -1.08,-2.64 l 6.84,0 z m -6.96,-2.76 c 0,-1.32 0.36,-2.28 1.08,-3 0.6,-0.84 1.56,-1.2 2.64,-1.2 0.72,0 1.32,0.24 1.92,0.48 0.6,0.36 0.96,0.84 1.08,1.44 l 4.56,0 c -0.48,-1.68 -1.44,-3.12 -2.76,-3.96 -1.32,-0.96 -2.76,-1.44 -4.56,-1.44 -5.64,0 -8.4,3 -8.4,9.12 0,2.52 0.72,4.68 2.16,6.12 1.32,1.56 3.36,2.4 5.88,2.4 5.28,0 7.92,-3.36 7.92,-9.96 l -11.52,0 z m 22.56,5.4 c -0.48,0 -0.84,0.12 -1.32,0.12 -2.64,0 -3.96,-1.44 -3.96,-4.08 l 0,-8.64 -4.44,0 0,16.68 4.08,0 0,-2.04 c 0.36,0.6 0.84,0.96 1.2,1.32 0.36,0.36 0.84,0.6 1.2,0.72 0.36,0.24 0.84,0.36 1.32,0.36 0.36,0 0.84,0 1.32,0 l 0.6,0 0,-4.44 z m 15.96,-13.08 c 0,-1.2 -0.12,-2.16 -0.6,-3.12 -0.36,-0.96 -0.84,-1.68 -1.56,-2.4 -0.72,-0.6 -1.56,-1.08 -2.52,-1.44 -0.84,-0.36 -1.92,-0.48 -3,-0.48 -2.4,0 -4.2,0.6 -5.4,1.8 -1.32,1.2 -1.92,3 -1.92,5.16 l 4.08,0 c 0,-0.96 0.36,-1.8 0.84,-2.4 0.6,-0.48 1.56,-0.72 2.64,-0.72 0.36,0 0.84,0 1.2,0.24 0.36,0.12 0.6,0.36 0.96,0.72 0.24,0.24 0.48,0.6 0.6,1.08 0.24,0.48 0.36,0.96 0.36,1.44 l 0,2.76 c -0.36,-0.72 -0.96,-1.32 -1.8,-1.8 -0.84,-0.36 -1.68,-0.6 -2.76,-0.6 -0.84,0 -1.68,0.12 -2.4,0.48 -0.72,0.24 -1.44,0.6 -1.92,1.2 -0.6,0.48 -1.08,1.2 -1.32,1.92 -0.36,0.72 -0.48,1.56 -0.48,2.52 l 0,10.8 4.44,0 0,-10.2 c 0,-2.04 0.96,-3.12 2.76,-3.12 1.08,0 1.92,0.36 2.52,0.84 0.6,0.6 0.96,1.44 0.96,2.28 l 0,10.2 4.32,0 0,-17.16 z m 6.36,4.56 11.16,0 0,-4.08 -15.84,0 0,22.44 4.68,0 0,-18.36 z m 20.4,9.24 c -2.64,0 -3.96,-1.68 -3.96,-5.04 0,-3.36 1.32,-5.04 3.96,-5.04 2.76,0 4.08,1.68 4.08,5.04 0,3.36 -1.32,5.04 -4.08,5.04 z m 0,3.84 c 1.32,0 2.52,-0.24 3.6,-0.72 1.08,-0.36 1.92,-0.96 2.64,-1.68 0.72,-0.84 1.32,-1.8 1.68,-2.88 0.36,-1.08 0.6,-2.28 0.6,-3.6 0,-1.32 -0.12,-2.52 -0.6,-3.6 -0.36,-1.08 -0.96,-2.04 -1.68,-2.76 -0.72,-0.72 -1.68,-1.32 -2.64,-1.8 -1.08,-0.36 -2.28,-0.6 -3.6,-0.6 -1.32,0 -2.52,0.24 -3.6,0.6 -1.08,0.48 -1.92,1.08 -2.64,1.8 -0.72,0.84 -1.32,1.8 -1.68,2.88 -0.36,1.08 -0.6,2.28 -0.6,3.48 0,1.32 0.24,2.52 0.6,3.6 0.36,1.08 0.96,2.04 1.68,2.76 0.72,0.84 1.68,1.44 2.76,1.8 1.08,0.48 2.16,0.72 3.48,0.72 z m 17.88,-3.84 c -2.52,0 -3.84,-1.68 -3.84,-5.16 0,-1.44 0.36,-2.64 1.08,-3.6 0.72,-0.96 1.56,-1.32 2.64,-1.32 0.6,0 1.08,0.12 1.56,0.36 0.48,0.24 0.84,0.48 1.2,0.96 0.36,0.36 0.6,0.84 0.84,1.44 0.12,0.6 0.24,1.2 0.24,1.92 0,3.6 -1.32,5.4 -3.72,5.4 z m 7.92,-13.32 -4.32,0 0,2.04 c -1.08,-1.68 -2.64,-2.52 -4.68,-2.52 -1.2,0 -2.28,0.24 -3.12,0.72 -0.96,0.48 -1.68,1.08 -2.28,1.92 -0.6,0.84 -1.08,1.8 -1.32,2.88 -0.36,1.08 -0.48,2.16 -0.48,3.48 0,1.2 0.12,2.4 0.48,3.48 0.24,1.08 0.72,1.92 1.32,2.64 0.6,0.84 1.32,1.44 2.16,1.8 0.84,0.48 1.8,0.72 2.88,0.72 2.04,0 3.72,-0.96 4.92,-2.64 l 0,8.28 4.44,0 0,-22.8 z m 10.08,22.92 c -2.76,-4.56 -4.2,-9.36 -4.2,-14.64 0,-5.28 1.44,-10.2 4.2,-14.88 l -3.24,0 c -0.72,1.2 -1.44,2.28 -2.16,3.48 -0.6,1.08 -1.2,2.16 -1.68,3.36 -0.48,1.2 -0.84,2.4 -1.2,3.72 -0.24,1.32 -0.36,2.64 -0.36,4.2 0,5.28 1.8,10.2 5.4,14.76 l 3.24,0 z m 3.36,0 c 3.6,-5.04 5.4,-9.96 5.4,-14.76 0,-4.92 -1.8,-9.84 -5.52,-14.76 l -3.12,0 c 2.76,4.44 4.2,9.36 4.2,14.64 0,5.4 -1.44,10.32 -4.2,14.88 l 3.24,0" /><path
       id="path2983"
       style="fill:#a3230d;fill-opacity:1;fill-rule:nonzero;stroke:none"
       d="m 24.6,484.68 -4.44,0 0,16.68 4.44,0 0,-16.68 z m 0,18.6 -4.44,0 0,4.2 4.44,0 0,-4.2 z m 5.76,-4.44 c 0.6,1.08 1.32,1.92 2.04,2.28 0.84,0.48 1.8,0.72 2.88,0.72 1.08,0 2.04,-0.24 2.64,-0.6 0.72,-0.48 1.32,-1.2 2.04,-2.16 0.84,1.8 2.28,2.76 4.44,2.76 0.84,0 1.56,-0.24 2.28,-0.48 0.72,-0.36 1.32,-0.72 1.92,-1.2 0.48,-0.48 0.84,-1.08 1.08,-1.8 0.36,-0.72 0.48,-1.44 0.48,-2.16 l 0,-11.52 -4.32,0 0,10.08 c 0,1.08 -0.24,1.8 -0.72,2.52 -0.48,0.6 -1.08,0.84 -1.92,0.84 -0.84,0 -1.44,-0.24 -2.04,-0.96 -0.48,-0.72 -0.72,-1.56 -0.72,-2.52 l 0,-9.96 -4.44,0 0,9.96 c 0,1.32 -0.24,2.28 -0.6,2.76 -0.36,0.48 -1.08,0.6 -2.04,0.6 -1.8,0 -2.76,-1.08 -2.76,-3.24 l 0,-10.08 -4.32,0 0,16.68 4.08,0 0,-2.52 z m 31.68,-6 c -0.48,-0.36 -1.2,-0.72 -2.28,-0.96 -1.56,-0.24 -2.52,-0.6 -3.12,-0.96 -0.48,-0.48 -0.84,-0.96 -0.84,-1.68 0,-1.2 0.72,-1.92 2.04,-1.92 0.6,0 1.08,0.12 1.56,0.24 0.6,0.24 1.08,0.48 1.44,0.72 0.36,0.36 0.72,0.72 0.96,1.2 0.24,0.48 0.36,1.08 0.36,1.68 0,0.24 0,0.48 -0.12,0.84 0,0.36 0,0.6 0,0.84 z m -2.76,9 c 2.4,0 4.2,-0.6 5.4,-1.68 1.2,-1.2 1.8,-2.76 1.8,-4.92 l 0,-10.56 -4.2,0 c 0,0.12 0,0.36 -0.12,0.6 0,0.24 -0.12,0.48 -0.12,0.72 -0.48,-0.6 -1.2,-0.96 -2.04,-1.32 -0.84,-0.24 -1.8,-0.36 -3,-0.36 -1.68,0 -3,0.36 -4.08,1.2 -0.96,0.84 -1.44,2.04 -1.44,3.48 0,1.2 0.12,2.04 0.48,2.76 0.36,0.72 0.96,1.2 1.68,1.56 0.72,0.36 1.44,0.72 2.4,0.96 0.96,0.12 1.92,0.36 3.12,0.48 0.84,0.12 1.56,0.36 2.04,0.6 0.48,0.24 0.72,0.6 0.72,1.08 0,0.6 -0.24,1.2 -0.84,1.44 -0.6,0.36 -1.32,0.48 -1.92,0.48 -0.84,0 -1.44,-0.24 -2.04,-0.6 -0.48,-0.48 -0.84,-1.08 -0.96,-1.92 l -4.2,0 c 0.12,1.92 0.84,3.36 1.92,4.44 1.2,0.96 3,1.56 5.4,1.56 z M 76.2,498 c -2.52,0 -3.72,-1.8 -3.72,-5.16 0,-1.44 0.36,-2.64 1.08,-3.6 0.72,-0.84 1.56,-1.32 2.64,-1.32 1.08,0 2.04,0.48 2.76,1.32 0.6,0.84 0.96,1.92 0.96,3.36 0,3.6 -1.2,5.4 -3.72,5.4 z m 8.04,-13.56 c 0,-1.2 -0.24,-2.28 -0.6,-3.24 -0.48,-0.96 -1.08,-1.8 -1.8,-2.52 -0.72,-0.6 -1.68,-1.08 -2.64,-1.44 -0.96,-0.36 -2.16,-0.48 -3.24,-0.48 -1.2,0 -2.28,0.12 -3.24,0.48 -0.96,0.24 -1.8,0.72 -2.52,1.32 -0.72,0.6 -1.32,1.44 -1.68,2.28 -0.48,0.84 -0.6,1.8 -0.6,2.88 l 4.08,0 c 0,-0.96 0.36,-1.8 0.96,-2.4 0.72,-0.48 1.56,-0.72 2.64,-0.72 1.2,0 2.16,0.24 3,0.96 0.84,0.6 1.2,1.44 1.2,2.52 l 0,2.76 c -0.24,-0.72 -0.84,-1.32 -1.68,-1.68 -0.84,-0.48 -1.8,-0.72 -2.88,-0.72 -1.32,0 -2.52,0.36 -3.48,0.84 -0.96,0.48 -1.68,1.08 -2.28,1.92 -0.6,0.72 -0.96,1.68 -1.2,2.76 -0.24,0.96 -0.36,2.04 -0.36,3.12 0,1.32 0.12,2.52 0.48,3.6 0.36,1.08 0.96,1.92 1.56,2.76 0.72,0.72 1.44,1.32 2.4,1.68 0.84,0.48 1.8,0.72 2.76,0.72 2.04,0 3.6,-0.84 4.68,-2.52 l 0,2.04 4.44,0 0,-16.92 z m 12.72,10.2 c 0,1.2 -0.36,2.16 -1.08,2.76 -0.6,0.6 -1.44,0.84 -2.28,0.84 -0.96,0 -1.68,-0.24 -2.28,-0.96 -0.72,-0.6 -1.08,-1.44 -1.2,-2.64 l 6.84,0 z M 90,491.88 c 0.12,-1.32 0.48,-2.28 1.08,-3 0.72,-0.84 1.56,-1.2 2.64,-1.2 0.72,0 1.44,0.12 1.92,0.48 0.6,0.36 0.96,0.84 1.08,1.44 l 4.56,0 c -0.48,-1.68 -1.44,-3.12 -2.64,-3.96 -1.32,-0.96 -2.88,-1.44 -4.68,-1.44 -5.52,0 -8.28,3 -8.28,9.12 0,2.52 0.6,4.68 2.04,6.12 1.44,1.56 3.36,2.4 6,2.4 5.16,0 7.8,-3.36 7.8,-9.96 l -11.52,0 z m 22.8,10.2 -2.88,-8.88 5.76,0 -2.88,8.88 0,0 z m 10.68,-17.4 -5.04,0 -1.44,4.56 -8.28,0 -1.68,-4.56 -4.92,0 8.04,22.44 5.4,0 7.92,-22.44 z m 14.64,13.56 -9.24,0 0,-6.96 c 0,-1.08 0.24,-1.8 0.6,-2.4 0.36,-0.6 1.08,-0.84 1.92,-0.84 0.84,0 1.56,0.24 1.92,0.84 0.48,0.6 0.6,1.32 0.6,2.4 l 0,4.32 4.2,0 0,-4.8 c 0,-0.84 -0.12,-1.68 -0.48,-2.52 -0.24,-0.84 -0.6,-1.44 -1.2,-2.04 -0.48,-0.6 -1.2,-1.2 -2.04,-1.56 -0.84,-0.36 -1.92,-0.48 -3.12,-0.48 -1.2,0 -2.16,0.12 -3,0.48 -0.84,0.36 -1.56,0.84 -2.16,1.56 -0.6,0.6 -0.96,1.32 -1.2,2.04 -0.24,0.84 -0.36,1.68 -0.36,2.64 l 0,14.88 4.32,0 0,-4.44 9.24,0 0,-3.12 z m 9.96,-0.24 c -2.76,0 -4.08,-1.68 -4.08,-5.04 0,-3.36 1.32,-5.04 4.08,-5.04 2.64,0 3.96,1.68 3.96,5.04 0,3.36 -1.32,5.04 -3.96,5.04 z m 0,3.84 c 1.32,0 2.52,-0.24 3.48,-0.72 1.08,-0.36 1.92,-0.96 2.76,-1.68 0.72,-0.84 1.2,-1.8 1.68,-2.88 0.36,-1.08 0.6,-2.28 0.6,-3.6 0,-1.32 -0.24,-2.52 -0.72,-3.6 -0.36,-1.08 -0.96,-2.04 -1.68,-2.76 -0.72,-0.72 -1.56,-1.32 -2.64,-1.8 -1.08,-0.36 -2.28,-0.6 -3.48,-0.6 -1.32,0 -2.64,0.24 -3.6,0.6 -1.08,0.48 -2.04,1.08 -2.76,1.8 -0.72,0.84 -1.32,1.68 -1.68,2.88 -0.36,1.08 -0.6,2.28 -0.6,3.48 0,1.32 0.24,2.52 0.6,3.6 0.48,1.08 0.96,2.04 1.68,2.76 0.72,0.84 1.68,1.44 2.76,1.8 1.08,0.48 2.28,0.72 3.6,0.72 z m 14.04,-3 c 0.48,1.08 1.2,1.92 2.04,2.28 0.72,0.48 1.68,0.72 2.76,0.72 1.08,0 2.04,-0.24 2.76,-0.6 0.6,-0.48 1.32,-1.2 1.92,-2.16 0.84,1.8 2.4,2.76 4.56,2.76 0.84,0 1.56,-0.24 2.28,-0.48 0.72,-0.36 1.32,-0.72 1.8,-1.2 0.48,-0.48 0.84,-1.08 1.2,-1.8 0.24,-0.72 0.36,-1.44 0.36,-2.16 l 0,-11.52 -4.32,0 0,10.08 c 0,1.08 -0.24,1.8 -0.72,2.52 -0.48,0.6 -1.08,0.84 -1.92,0.84 -0.72,0 -1.44,-0.24 -1.92,-0.96 -0.6,-0.72 -0.84,-1.56 -0.84,-2.52 l 0,-9.96 -4.44,0 0,9.96 c 0,1.32 -0.12,2.28 -0.6,2.76 -0.36,0.48 -1.08,0.6 -2.04,0.6 -1.8,0 -2.64,-1.08 -2.64,-3.24 l 0,-10.08 -4.44,0 0,16.68 4.2,0 0,-2.52 z m 25.8,-14.16 -4.32,0 0,16.68 4.32,0 0,-16.68 z m 0,18.6 -4.32,0 0,4.2 4.32,0 0,-4.2 z m 12.36,-7.92 c -0.12,0.84 -0.48,1.56 -1.08,2.04 -0.6,0.48 -1.32,0.72 -2.16,0.72 -0.48,0 -0.84,-0.12 -1.32,-0.24 -0.36,-0.12 -0.72,-0.36 -1.08,-0.84 -0.24,-0.36 -0.48,-0.84 -0.72,-1.44 -0.12,-0.6 -0.24,-1.44 -0.24,-2.28 0,-1.8 0.36,-3.24 0.96,-4.08 0.72,-0.84 1.44,-1.32 2.28,-1.32 0.84,0 1.56,0.24 2.16,0.72 0.6,0.48 1.08,1.2 1.08,2.04 l 4.44,0 c -0.12,-0.96 -0.36,-1.8 -0.84,-2.64 -0.36,-0.84 -0.96,-1.44 -1.56,-2.04 -0.72,-0.6 -1.56,-1.08 -2.4,-1.32 -0.84,-0.36 -1.8,-0.48 -2.88,-0.48 -1.08,0 -2.16,0.24 -3,0.6 -0.96,0.36 -1.8,0.96 -2.52,1.68 -0.6,0.72 -1.2,1.68 -1.56,2.76 -0.36,1.08 -0.48,2.4 -0.48,3.96 0,1.44 0.12,2.76 0.48,3.84 0.36,1.08 0.96,2.04 1.68,2.64 0.6,0.72 1.44,1.2 2.4,1.56 0.96,0.36 2.04,0.6 3.24,0.6 2.16,0 3.96,-0.6 5.28,-1.8 1.32,-1.08 2.04,-2.64 2.28,-4.68 l -4.44,0 z m 15.36,6.72 -2.88,-8.88 5.76,0 -2.88,8.88 0,0 z m 10.8,-17.4 -5.16,0 -1.44,4.56 -8.28,0 -1.56,-4.56 -5.04,0 8.04,22.44 5.52,0 7.92,-22.44 z m 8.88,13.32 c -2.52,0 -3.72,-1.68 -3.72,-5.16 0,-1.44 0.24,-2.64 0.96,-3.6 0.72,-0.96 1.56,-1.32 2.76,-1.32 0.48,0 0.96,0.12 1.44,0.24 0.48,0.24 0.96,0.6 1.2,1.08 0.36,0.36 0.6,0.84 0.84,1.44 0.12,0.6 0.24,1.2 0.24,1.92 0,3.6 -1.2,5.4 -3.72,5.4 z m 7.92,-13.32 -4.2,0 -0.12,2.04 c -0.96,-1.68 -2.52,-2.52 -4.56,-2.52 -1.2,0 -2.28,0.24 -3.24,0.72 -0.96,0.48 -1.68,1.08 -2.28,1.92 -0.6,0.84 -1.08,1.8 -1.32,2.88 -0.36,1.08 -0.48,2.16 -0.48,3.48 0,1.2 0.12,2.4 0.48,3.48 0.36,1.08 0.84,1.92 1.44,2.64 0.6,0.84 1.32,1.44 2.16,1.8 0.84,0.48 1.8,0.72 2.88,0.72 2.04,0 3.6,-0.96 4.8,-2.64 l 0,8.28 4.44,0 0,-22.8 z m 9.72,13.32 c -2.52,0 -3.84,-1.68 -3.84,-5.16 0,-1.44 0.36,-2.64 1.08,-3.6 0.6,-0.96 1.56,-1.32 2.64,-1.32 0.6,0 1.08,0.12 1.56,0.24 0.48,0.24 0.84,0.6 1.2,1.08 0.36,0.36 0.6,0.84 0.72,1.44 0.24,0.6 0.36,1.2 0.36,1.92 0,3.6 -1.32,5.4 -3.72,5.4 z m 7.92,-13.32 -4.32,0 0,2.04 c -1.08,-1.68 -2.64,-2.52 -4.68,-2.52 -1.2,0 -2.28,0.24 -3.24,0.72 -0.84,0.48 -1.56,1.08 -2.16,1.92 -0.6,0.84 -1.08,1.8 -1.44,2.88 -0.24,1.08 -0.36,2.16 -0.36,3.48 0,1.2 0.12,2.4 0.48,3.48 0.24,1.08 0.72,1.92 1.32,2.64 0.6,0.84 1.32,1.44 2.16,1.8 0.84,0.48 1.8,0.72 2.88,0.72 2.04,0 3.72,-0.96 4.92,-2.64 l 0,8.28 4.44,0 0,-22.8 z m 10.08,22.92 c -2.76,-4.56 -4.2,-9.36 -4.2,-14.64 0,-5.28 1.44,-10.2 4.2,-14.88 l -3.24,0 c -0.72,1.2 -1.44,2.28 -2.16,3.48 -0.6,1.08 -1.2,2.16 -1.68,3.36 -0.48,1.2 -0.84,2.4 -1.2,3.72 -0.24,1.32 -0.48,2.64 -0.48,4.2 0,5.28 1.92,10.2 5.52,14.76 l 3.24,0 z m 3.36,0 c 3.6,-5.04 5.4,-9.96 5.4,-14.88 0,-4.8 -1.8,-9.72 -5.52,-14.64 l -3.12,0 c 2.76,4.44 4.08,9.36 4.08,14.64 0,5.28 -1.32,10.32 -4.08,14.88 l 3.24,0" /><path
       id="path2985"
       style="fill:#1f0207;fill-opacity:1;fill-rule:nonzero;stroke:none"
       d="m 3.6,378.96 c -2.52,0 -3.72,-1.68 -3.72,-5.16 0,-1.44 0.36,-2.64 1.08,-3.48 0.72,-0.84 1.56,-1.32 2.64,-1.32 1.08,0 2.04,0.36 2.76,1.2 0.72,0.84 0.96,2.04 0.96,3.36 0,3.6 -1.2,5.4 -3.72,5.4 z m 8.04,-13.44 c 0,-1.32 -0.24,-2.4 -0.6,-3.36 -0.48,-0.96 -1.08,-1.8 -1.8,-2.4 -0.72,-0.72 -1.68,-1.2 -2.64,-1.56 -0.96,-0.36 -2.04,-0.48 -3.24,-0.48 -1.2,0 -2.28,0.24 -3.24,0.48 -0.96,0.36 -1.8,0.84 -2.52,1.44 -0.72,0.6 -1.32,1.32 -1.68,2.16 -0.48,0.84 -0.6,1.92 -0.6,2.88 l 4.08,0 c 0,-0.96 0.36,-1.8 0.96,-2.28 0.72,-0.6 1.56,-0.84 2.64,-0.84 1.2,0 2.16,0.36 3,0.96 0.84,0.6 1.32,1.56 1.32,2.64 l 0,2.76 c -0.36,-0.72 -0.96,-1.32 -1.8,-1.8 -0.84,-0.36 -1.68,-0.6 -2.88,-0.6 -1.32,0 -2.52,0.24 -3.36,0.72 -0.96,0.48 -1.8,1.08 -2.4,1.92 -0.6,0.84 -0.96,1.68 -1.2,2.76 -0.24,1.08 -0.36,2.04 -0.36,3.24 0,1.32 0.12,2.4 0.48,3.48 0.36,1.08 0.96,2.04 1.56,2.76 0.72,0.72 1.44,1.32 2.4,1.8 0.84,0.36 1.8,0.6 2.76,0.6 2.04,0 3.72,-0.84 4.8,-2.52 l 0,2.04 4.32,0 0,-16.8 z m 6.12,0.12 -4.32,0 0,22.8 4.32,0 0,-22.8 z m 10.08,6.72 -8.76,0 0,4.08 8.76,0 0,-4.08 z m 13.2,-6.72 -4.44,0 -7.68,22.56 5.04,0 4.92,-15.84 4.92,15.84 4.8,0 -7.56,-22.56 z m 12.96,0 -4.32,0 0,16.68 4.32,0 0,-16.68 z m 0,18.72 -4.32,0 0,4.08 4.32,0 0,-4.08 z m 12.72,-8.76 c -0.12,1.2 -0.48,2.16 -1.08,2.76 -0.72,0.6 -1.44,0.96 -2.4,0.96 -0.84,0 -1.68,-0.36 -2.28,-0.96 -0.6,-0.6 -0.96,-1.56 -1.08,-2.76 l 6.84,0 z m -6.96,-2.76 c 0,-1.2 0.36,-2.28 1.08,-3 0.6,-0.72 1.56,-1.2 2.64,-1.2 0.72,0 1.32,0.24 1.92,0.6 0.48,0.36 0.84,0.72 1.08,1.32 l 4.56,0 c -0.6,-1.68 -1.44,-3 -2.76,-3.96 -1.32,-0.96 -2.88,-1.44 -4.56,-1.44 -5.64,0 -8.4,3.12 -8.4,9.12 0,2.64 0.72,4.68 2.04,6.24 1.44,1.56 3.48,2.28 6,2.28 5.28,0 7.8,-3.36 7.8,-9.96 l -11.4,0 z m 31.08,-7.2 -4.44,0 -2.64,9.72 -2.64,-9.72 -4.56,0 -4.8,16.68 4.68,0 2.76,-10.68 2.28,10.68 4.44,0 2.64,-10.68 2.52,10.68 4.56,0 -4.8,-16.68 z m 13.68,13.44 c -2.52,0 -3.72,-1.92 -3.72,-5.52 0,-1.44 0.36,-2.52 1.08,-3.36 0.6,-0.96 1.56,-1.44 2.64,-1.44 1.08,0 2.04,0.48 2.76,1.44 0.72,0.96 0.96,2.16 0.96,3.6 0,3.48 -1.2,5.28 -3.72,5.28 z m -3.6,3.24 0,-2.04 c 0.36,0.84 0.96,1.56 1.8,1.92 0.72,0.36 1.68,0.6 2.88,0.6 1.2,0 2.28,-0.24 3.12,-0.72 0.96,-0.48 1.68,-1.2 2.28,-2.04 0.6,-0.84 1.08,-1.68 1.44,-2.76 0.24,-1.08 0.36,-2.28 0.36,-3.48 0,-1.2 -0.12,-2.4 -0.48,-3.48 -0.24,-0.96 -0.72,-1.92 -1.32,-2.64 -0.6,-0.84 -1.32,-1.44 -2.16,-1.8 -0.84,-0.48 -1.8,-0.72 -2.88,-0.72 -1.08,0 -2.04,0.24 -2.88,0.6 -0.84,0.36 -1.56,1.08 -2.04,2.04 l 0,-10.08 -4.44,0 0,24.6 4.32,0 z m 21.48,-3.24 c -2.64,0 -3.96,-1.68 -3.96,-5.04 0,-3.36 1.32,-5.16 3.96,-5.16 2.76,0 4.08,1.68 4.08,5.16 0,3.36 -1.32,5.04 -4.08,5.04 z m 0,3.72 c 1.32,0 2.52,-0.24 3.6,-0.6 1.08,-0.48 1.92,-1.08 2.64,-1.8 0.72,-0.72 1.32,-1.68 1.68,-2.76 0.36,-1.08 0.6,-2.28 0.6,-3.6 0,-1.32 -0.24,-2.52 -0.6,-3.6 -0.36,-1.08 -0.96,-2.04 -1.68,-2.88 -0.72,-0.72 -1.68,-1.32 -2.64,-1.68 -1.08,-0.48 -2.28,-0.72 -3.6,-0.72 -1.32,0 -2.52,0.24 -3.6,0.72 -1.08,0.36 -1.92,0.96 -2.64,1.8 -0.72,0.72 -1.32,1.68 -1.68,2.76 -0.36,1.08 -0.6,2.28 -0.6,3.6 0,1.32 0.12,2.52 0.6,3.6 0.36,1.08 0.96,1.92 1.68,2.76 0.72,0.72 1.68,1.32 2.64,1.8 1.08,0.36 2.28,0.6 3.6,0.6 z m 19.56,-4.56 c -0.36,0.12 -0.84,0.12 -1.2,0.12 -2.64,0 -4.08,-1.32 -4.08,-4.08 l 0,-8.64 -4.32,0 0,16.68 4.08,0 0,-1.92 c 0.36,0.48 0.72,0.96 1.2,1.32 0.36,0.24 0.72,0.48 1.2,0.72 0.36,0.12 0.84,0.24 1.2,0.24 0.48,0 0.96,0.12 1.32,0.12 l 0.6,0 0,-4.56 z m 14.64,0.96 -9.24,0 0,-6.84 c 0,-1.08 0.24,-1.92 0.6,-2.52 0.36,-0.6 1.08,-0.84 1.92,-0.84 0.84,0 1.56,0.36 1.92,0.84 0.48,0.6 0.72,1.44 0.72,2.4 l 0,4.44 4.08,0 0,-4.8 c 0,-0.96 -0.12,-1.8 -0.48,-2.52 -0.24,-0.84 -0.6,-1.56 -1.2,-2.16 -0.48,-0.6 -1.2,-1.08 -2.04,-1.44 -0.84,-0.36 -1.92,-0.6 -3,-0.6 -1.2,0 -2.28,0.24 -3.12,0.6 -0.84,0.36 -1.56,0.84 -2.16,1.44 -0.6,0.6 -0.96,1.32 -1.2,2.16 -0.24,0.72 -0.36,1.56 -0.36,2.52 l 0,15 4.32,0 0,-4.56 9.24,0 0,-3.12 z m 6.36,-13.56 -4.8,0 0,22.56 4.8,0 0,-22.56 z m 5.76,14.28 c 0.6,0.96 1.2,1.68 2.16,2.16 0.84,0.48 1.92,0.72 3.24,0.72 0.84,0 1.56,-0.12 2.28,-0.36 0.6,-0.24 1.2,-0.6 1.68,-1.08 0.48,-0.48 0.84,-1.08 1.2,-1.68 0.24,-0.72 0.36,-1.56 0.36,-2.4 l 0,-11.64 -4.44,0 0,10.08 c 0,1.32 -0.12,2.16 -0.6,2.64 -0.48,0.48 -1.2,0.72 -2.16,0.72 -2.28,0 -3.48,-1.32 -3.48,-3.84 l 0,-9.6 -4.44,0 0,16.68 4.2,0 0,-2.4 z m 20.64,-0.84 c -2.52,0 -3.84,-1.8 -3.84,-5.28 0,-1.44 0.36,-2.64 1.08,-3.6 0.72,-0.84 1.56,-1.32 2.76,-1.32 0.48,0 0.96,0.12 1.44,0.36 0.48,0.24 0.84,0.6 1.2,0.96 0.36,0.48 0.6,0.96 0.84,1.56 0.12,0.6 0.24,1.2 0.24,1.8 0,3.6 -1.2,5.52 -3.72,5.52 z m 7.92,-13.44 -4.32,0 0,2.04 c -0.96,-1.68 -2.52,-2.52 -4.68,-2.52 -1.2,0 -2.28,0.24 -3.12,0.72 -0.96,0.48 -1.68,1.2 -2.28,2.04 -0.6,0.84 -1.08,1.68 -1.32,2.76 -0.36,1.08 -0.48,2.28 -0.48,3.48 0,1.32 0.12,2.4 0.48,3.48 0.36,1.08 0.72,2.04 1.32,2.76 0.6,0.72 1.32,1.32 2.16,1.8 0.84,0.36 1.92,0.6 3,0.6 2.04,0 3.6,-0.84 4.8,-2.64 l 0,8.28 4.44,0 0,-22.8 z M 210,375.6 c 0,1.2 -0.36,2.16 -1.08,2.76 -0.72,0.6 -1.44,0.96 -2.28,0.96 -0.96,0 -1.68,-0.36 -2.4,-0.96 -0.6,-0.6 -0.96,-1.56 -1.08,-2.76 l 6.84,0 z m -6.96,-2.76 c 0.12,-1.2 0.48,-2.28 1.08,-3 0.72,-0.72 1.56,-1.2 2.64,-1.2 0.72,0 1.32,0.24 1.92,0.6 0.6,0.36 0.96,0.72 1.08,1.32 l 4.56,0 c -0.48,-1.68 -1.44,-3 -2.76,-3.96 -1.2,-0.96 -2.76,-1.44 -4.56,-1.44 -5.52,0 -8.4,3.12 -8.4,9.12 0,2.64 0.72,4.68 2.16,6.24 1.32,1.56 3.36,2.28 6,2.28 5.16,0 7.8,-3.36 7.8,-9.96 l -11.52,0 z m 22.8,1.32 5.76,-8.52 -5.4,0 -2.88,5.04 -2.88,-5.04 -5.28,0 5.52,8.52 -5.4,8.16 5.4,0 2.76,-4.8 2.88,4.8 5.04,0 -5.52,-8.16" /><path
       id="path2987"
       style="fill:#bd5c00;fill-opacity:1;fill-rule:nonzero;stroke:none"
       d="m 141.84,312.48 c -2.52,0 -3.72,-1.8 -3.72,-5.4 0,-1.44 0.36,-2.52 1.08,-3.48 0.72,-0.84 1.56,-1.32 2.64,-1.32 1.08,0 2.04,0.48 2.76,1.44 0.72,0.96 1.08,2.16 1.08,3.6 0,3.48 -1.32,5.16 -3.84,5.16 z m -3.48,1.2 0,0 c 1.2,1.8 2.76,2.64 4.92,2.64 l 0,0 c 1.08,0 2.04,-0.24 2.88,-0.72 0.84,-0.36 1.56,-0.96 2.16,-1.68 0.6,-0.84 0.96,-1.68 1.32,-2.76 0.36,-1.08 0.48,-2.28 0.48,-3.48 0,-1.44 -0.24,-2.64 -0.6,-3.84 -0.36,-1.08 -0.84,-2.04 -1.44,-2.76 -0.6,-0.84 -1.44,-1.44 -2.28,-1.8 -0.84,-0.48 -1.8,-0.6 -2.88,-0.6 -2.04,0 -3.6,0.84 -4.68,2.52 l 0,-2.04 -4.32,0 0,22.8 4.44,0 0,-8.28 z m 17.64,-14.52 -4.44,0 0,16.68 4.44,0 0,-16.68 z m 0,18.72 -4.44,0 0,4.08 4.44,0 0,-4.08 z m 15.12,-5.16 -9.12,0 0,-6.96 c 0,-0.96 0.12,-1.8 0.6,-2.4 0.36,-0.6 0.96,-0.84 1.92,-0.84 0.84,0 1.56,0.24 1.92,0.84 0.36,0.6 0.6,1.32 0.6,2.4 l 0,4.44 4.08,0 0,-4.8 c 0,-0.96 -0.12,-1.8 -0.36,-2.64 -0.24,-0.72 -0.6,-1.44 -1.2,-2.04 -0.48,-0.6 -1.2,-1.08 -2.04,-1.44 -0.84,-0.36 -1.92,-0.6 -3.12,-0.6 -1.2,0 -2.28,0.12 -3.12,0.6 -0.84,0.36 -1.56,0.84 -2.04,1.44 -0.6,0.6 -0.96,1.32 -1.2,2.04 -0.24,0.84 -0.48,1.68 -0.48,2.64 l 0,15 4.44,0 0,-4.56 9.12,0 0,-3.12 z m 10.68,5.64 c -1.2,0 -1.92,-0.12 -2.28,-0.48 -0.36,-0.36 -0.48,-1.08 -0.48,-2.04 l 2.88,0 0,-3.12 -2.88,0 0,-13.56 -4.44,0 0,13.56 -2.4,0 0,3.12 2.4,0 c 0,4.08 2.4,6.12 7.2,6.12 l 0,-3.6 z m 5.4,-19.2 -4.44,0 0,16.68 4.44,0 0,-16.68 z m 0,18.72 -4.44,0 0,4.08 4.44,0 0,-4.08 z m 12.6,-8.76 c -0.12,1.2 -0.48,2.16 -1.08,2.76 -0.72,0.6 -1.44,0.84 -2.4,0.84 -0.84,0 -1.68,-0.24 -2.28,-0.84 -0.6,-0.72 -0.96,-1.56 -1.08,-2.76 l 6.84,0 z m -6.96,-2.76 c 0,-1.32 0.36,-2.28 1.08,-3 0.6,-0.72 1.56,-1.2 2.64,-1.2 0.72,0 1.32,0.24 1.92,0.6 0.6,0.36 0.96,0.72 1.08,1.32 l 4.56,0 c -0.48,-1.68 -1.44,-3 -2.76,-3.96 -1.32,-0.96 -2.76,-1.44 -4.56,-1.44 -5.64,0 -8.4,3.12 -8.4,9.12 0,2.64 0.72,4.68 2.16,6.24 1.32,1.56 3.36,2.28 5.88,2.28 5.28,0 7.92,-3.36 7.92,-9.96 l -11.52,0 z m 17.28,-7.2 -4.44,0 0,22.8 4.44,0 0,-22.8 z m 9.6,13.32 c -2.52,0 -3.72,-1.68 -3.72,-5.16 0,-1.44 0.36,-2.64 0.96,-3.6 0.72,-0.84 1.68,-1.32 2.76,-1.32 0.48,0 1.08,0.12 1.44,0.36 0.48,0.24 0.96,0.48 1.2,0.96 0.36,0.48 0.6,0.96 0.84,1.44 0.24,0.6 0.24,1.2 0.24,1.92 0,3.6 -1.2,5.4 -3.72,5.4 z m 7.92,-13.32 -4.2,0 -0.12,2.04 c -0.96,-1.68 -2.52,-2.52 -4.56,-2.52 -1.2,0 -2.28,0.24 -3.24,0.72 -0.84,0.48 -1.68,1.2 -2.28,1.92 -0.6,0.84 -0.96,1.8 -1.32,2.88 -0.36,1.08 -0.48,2.28 -0.48,3.48 0,1.2 0.24,2.4 0.48,3.48 0.36,1.08 0.84,1.92 1.44,2.76 0.6,0.72 1.32,1.32 2.16,1.68 0.84,0.48 1.8,0.72 2.88,0.72 2.04,0 3.6,-0.96 4.8,-2.64 l 0,8.28 4.44,0 0,-22.8 z m 18.24,18.6 -12,0 0,-4.8 11.04,0 0,-3.96 -11.04,0 0,-5.88 12.48,0 0,-3.96 -17.04,0 0,22.56 16.56,0 0,-3.96 z m 11.4,-10.08 5.64,-8.52 -5.4,0 -2.88,5.04 -2.88,-5.04 -5.28,0 5.64,8.52 -5.4,8.16 5.28,0 2.88,-4.8 2.76,4.8 5.16,0 -5.52,-8.16 z m 20.28,5.04 -9.24,0 0,-6.96 c 0,-0.96 0.24,-1.8 0.6,-2.4 0.36,-0.6 0.96,-0.84 1.92,-0.84 0.84,0 1.56,0.24 1.92,0.84 0.48,0.6 0.6,1.32 0.6,2.4 l 0,4.44 4.2,0 0,-4.8 c 0,-0.96 -0.24,-1.8 -0.48,-2.64 -0.24,-0.72 -0.6,-1.44 -1.2,-2.04 -0.48,-0.6 -1.2,-1.08 -2.04,-1.44 -0.84,-0.36 -1.92,-0.6 -3.12,-0.6 -1.2,0 -2.16,0.12 -3.12,0.6 -0.84,0.36 -1.56,0.84 -2.04,1.44 -0.6,0.6 -0.96,1.32 -1.2,2.04 -0.24,0.84 -0.36,1.68 -0.36,2.64 l 0,15 4.32,0 0,-4.56 9.24,0 0,-3.12 z m 11.4,-0.96 c -0.48,0.12 -0.84,0.12 -1.2,0.12 -2.76,0 -4.08,-1.32 -4.08,-4.08 l 0,-8.64 -4.44,0 0,16.68 4.2,0 0,-2.04 c 0.36,0.6 0.72,1.08 1.08,1.32 0.36,0.36 0.84,0.6 1.2,0.72 0.48,0.24 0.84,0.36 1.32,0.36 0.48,0 0.84,0 1.32,0 l 0.6,0 0,-4.44 z m 11.16,-4.44 c -0.48,-0.36 -1.2,-0.6 -2.28,-0.84 -1.56,-0.36 -2.64,-0.72 -3.12,-1.08 -0.48,-0.36 -0.84,-0.96 -0.84,-1.68 0,-1.2 0.72,-1.8 2.04,-1.8 0.6,0 1.08,0 1.56,0.24 0.6,0.12 1.08,0.36 1.44,0.6 0.36,0.36 0.72,0.72 0.96,1.32 0.24,0.48 0.24,0.96 0.24,1.68 0,0.12 0,0.36 0,0.72 0,0.36 0,0.6 0,0.84 z m -2.76,9 c 2.4,0 4.2,-0.6 5.4,-1.68 1.2,-1.2 1.8,-2.76 1.8,-4.92 l 0,-10.56 -4.2,0 c 0,0.24 -0.12,0.36 -0.12,0.6 0,0.24 -0.12,0.48 -0.12,0.72 -0.48,-0.6 -1.2,-0.96 -2.04,-1.2 -0.84,-0.36 -1.92,-0.48 -3,-0.48 -1.68,0 -3,0.48 -4.08,1.32 -0.96,0.84 -1.44,1.92 -1.44,3.36 0,1.2 0.12,2.04 0.48,2.76 0.36,0.72 0.96,1.2 1.68,1.68 0.6,0.36 1.44,0.6 2.4,0.84 0.96,0.24 1.92,0.36 3,0.48 0.96,0.12 1.68,0.36 2.16,0.6 0.48,0.24 0.72,0.6 0.72,1.2 0,0.6 -0.24,1.08 -0.84,1.32 -0.6,0.36 -1.32,0.48 -2.04,0.48 -0.72,0 -1.44,-0.12 -1.92,-0.6 -0.48,-0.48 -0.84,-1.08 -0.96,-1.8 l -4.2,0 c 0.12,1.8 0.84,3.24 1.92,4.32 1.08,1.08 3,1.56 5.4,1.56 z m 19.56,-6.48 c -0.12,0.84 -0.48,1.56 -1.08,2.04 -0.6,0.48 -1.32,0.72 -2.16,0.72 -0.48,0 -0.84,0 -1.32,-0.24 -0.36,-0.12 -0.72,-0.36 -1.08,-0.72 -0.24,-0.36 -0.48,-0.96 -0.72,-1.56 -0.12,-0.6 -0.24,-1.32 -0.24,-2.28 0,-1.8 0.36,-3.24 0.96,-4.08 0.72,-0.84 1.44,-1.32 2.28,-1.32 0.84,0 1.56,0.24 2.28,0.72 0.6,0.48 0.96,1.2 0.96,2.04 l 4.44,0 c -0.12,-0.96 -0.36,-1.8 -0.84,-2.64 -0.36,-0.72 -0.96,-1.44 -1.56,-2.04 -0.72,-0.6 -1.56,-0.96 -2.4,-1.32 -0.84,-0.24 -1.8,-0.48 -2.76,-0.48 -1.2,0 -2.28,0.24 -3.12,0.6 -0.96,0.36 -1.8,0.96 -2.52,1.68 -0.6,0.72 -1.2,1.68 -1.56,2.76 -0.36,1.2 -0.48,2.52 -0.48,3.96 0,1.44 0.12,2.76 0.48,3.84 0.36,1.08 0.96,2.04 1.68,2.76 0.6,0.6 1.44,1.2 2.4,1.56 0.96,0.36 2.04,0.48 3.24,0.48 2.16,0 3.96,-0.6 5.28,-1.8 1.32,-1.08 2.04,-2.64 2.28,-4.68 l -4.44,0 z m 19.08,2.88 -9.24,0 0,-6.96 c 0,-0.96 0.24,-1.8 0.6,-2.4 0.36,-0.6 1.08,-0.84 1.92,-0.84 0.84,0 1.56,0.24 1.92,0.84 0.48,0.6 0.72,1.32 0.72,2.4 l 0,4.44 4.08,0 0,-4.8 c 0,-0.96 -0.12,-1.8 -0.48,-2.64 -0.24,-0.72 -0.6,-1.44 -1.2,-2.04 -0.48,-0.6 -1.2,-1.08 -2.04,-1.44 -0.84,-0.36 -1.92,-0.6 -3,-0.6 -1.2,0 -2.28,0.12 -3.12,0.6 -0.84,0.36 -1.56,0.84 -2.16,1.44 -0.6,0.6 -0.96,1.32 -1.2,2.04 -0.24,0.84 -0.36,1.68 -0.36,2.64 l 0,15 4.32,0 0,-4.56 9.24,0 0,-3.12 z m 10.08,9.48 c -2.76,-4.56 -4.2,-9.48 -4.2,-14.64 0,-5.28 1.44,-10.32 4.2,-15 l -3.24,0 c -0.72,1.2 -1.44,2.4 -2.04,3.48 -0.72,1.08 -1.32,2.28 -1.8,3.36 -0.48,1.2 -0.84,2.4 -1.2,3.72 -0.24,1.32 -0.36,2.64 -0.36,4.2 0,5.28 1.8,10.2 5.4,14.88 l 3.24,0 z m 3.36,0 c 3.6,-5.16 5.52,-10.08 5.52,-14.88 0,-4.8 -1.92,-9.72 -5.64,-14.76 l -3.12,0 c 2.76,4.44 4.2,9.36 4.2,14.64 0,5.4 -1.44,10.32 -4.2,15 l 3.24,0" /><path
       id="path2989"
       style="fill:#bd8300;fill-opacity:1;fill-rule:nonzero;stroke:none"
       d="m 303.6,284.04 c -2.52,0 -3.84,-1.8 -3.84,-5.16 0,-1.44 0.36,-2.64 1.08,-3.6 0.72,-0.84 1.56,-1.2 2.76,-1.2 1.08,0 1.92,0.36 2.64,1.2 0.72,0.84 1.08,1.92 1.08,3.36 0,3.6 -1.32,5.4 -3.72,5.4 z m 7.92,-13.56 c 0,-1.2 -0.12,-2.28 -0.6,-3.24 -0.36,-0.96 -0.96,-1.8 -1.8,-2.52 -0.72,-0.6 -1.56,-1.08 -2.64,-1.44 -0.96,-0.36 -2.04,-0.48 -3.24,-0.48 -1.2,0 -2.28,0.12 -3.24,0.48 -0.96,0.24 -1.8,0.72 -2.52,1.32 -0.72,0.6 -1.32,1.44 -1.68,2.28 -0.36,0.84 -0.6,1.8 -0.6,2.88 l 4.08,0 c 0,-0.96 0.36,-1.8 1.08,-2.4 0.6,-0.48 1.56,-0.72 2.64,-0.72 1.2,0 2.16,0.24 3,0.96 0.84,0.6 1.2,1.44 1.2,2.52 l 0,2.76 c -0.36,-0.72 -0.96,-1.32 -1.68,-1.68 -0.84,-0.48 -1.8,-0.6 -2.88,-0.6 -1.44,0 -2.52,0.24 -3.48,0.72 -0.96,0.48 -1.68,1.08 -2.28,1.92 -0.6,0.72 -1.08,1.68 -1.32,2.76 -0.24,0.96 -0.36,2.04 -0.36,3.12 0,1.32 0.24,2.52 0.6,3.6 0.36,1.08 0.84,1.92 1.56,2.76 0.6,0.72 1.44,1.32 2.28,1.68 0.96,0.48 1.8,0.72 2.88,0.72 2.04,0 3.6,-0.84 4.68,-2.52 l 0,2.04 4.32,0 0,-16.92 z m 6.24,0.24 -4.44,0 0,22.8 4.44,0 0,-22.8 z m 10.08,6.72 -8.76,0 0,4.08 8.76,0 0,-4.08 z m 6.36,-6.72 -4.68,0 0,22.44 4.68,0 0,-22.44 z m 5.88,14.16 c 0.48,0.96 1.2,1.68 2.04,2.16 0.84,0.48 2.04,0.84 3.36,0.84 0.84,0 1.56,-0.12 2.16,-0.36 0.72,-0.24 1.32,-0.6 1.8,-1.08 0.48,-0.48 0.84,-1.08 1.08,-1.8 0.36,-0.72 0.48,-1.44 0.48,-2.4 l 0,-11.52 -4.44,0 0,10.08 c 0,1.32 -0.24,2.16 -0.6,2.64 -0.48,0.48 -1.2,0.6 -2.28,0.6 -2.28,0 -3.48,-1.2 -3.48,-3.84 l 0,-9.48 -4.32,0 0,16.68 4.2,0 0,-2.52 z m 22.44,-14.16 -4.56,0 -6,16.68 4.92,0 3.48,-11.04 3.6,11.04 4.56,0 -6,-16.68 z m 15.24,13.32 c -2.64,0 -4.08,-1.68 -4.08,-5.04 0,-3.36 1.44,-5.04 4.08,-5.04 2.64,0 4.08,1.68 4.08,5.04 0,3.36 -1.44,5.04 -4.08,5.04 z m 0,3.84 c 1.32,0 2.52,-0.24 3.6,-0.72 1.08,-0.36 1.92,-0.96 2.64,-1.68 0.72,-0.84 1.32,-1.8 1.68,-2.88 0.36,-1.08 0.6,-2.28 0.6,-3.6 0,-1.32 -0.24,-2.52 -0.6,-3.6 -0.36,-1.08 -0.96,-2.04 -1.68,-2.76 -0.72,-0.72 -1.68,-1.32 -2.76,-1.8 -1.08,-0.36 -2.16,-0.6 -3.48,-0.6 -1.32,0 -2.52,0.24 -3.6,0.6 -1.08,0.48 -1.92,1.08 -2.64,1.8 -0.72,0.84 -1.32,1.8 -1.68,2.88 -0.48,1.08 -0.6,2.28 -0.6,3.48 0,1.32 0.12,2.52 0.6,3.6 0.36,1.08 0.96,2.04 1.68,2.76 0.72,0.84 1.56,1.44 2.64,1.8 1.08,0.48 2.28,0.72 3.6,0.72 z m 20.52,-6.48 c -0.12,0.84 -0.48,1.56 -1.08,2.04 -0.6,0.48 -1.2,0.72 -2.04,0.72 -0.48,0 -0.96,-0.12 -1.32,-0.24 -0.48,-0.12 -0.84,-0.36 -1.08,-0.84 -0.36,-0.36 -0.6,-0.84 -0.72,-1.44 -0.24,-0.6 -0.36,-1.44 -0.36,-2.28 0,-1.8 0.36,-3.24 1.08,-4.08 0.6,-0.84 1.32,-1.32 2.28,-1.32 0.84,0 1.56,0.24 2.16,0.72 0.6,0.48 0.96,1.2 1.08,2.04 l 4.44,0 c -0.12,-0.96 -0.48,-1.8 -0.84,-2.64 -0.48,-0.84 -0.96,-1.44 -1.68,-2.04 -0.72,-0.6 -1.44,-1.08 -2.4,-1.32 -0.84,-0.36 -1.8,-0.48 -2.76,-0.48 -1.2,0 -2.16,0.24 -3.12,0.6 -0.96,0.36 -1.8,0.96 -2.4,1.68 -0.72,0.72 -1.2,1.68 -1.56,2.76 -0.36,1.08 -0.6,2.4 -0.6,3.96 0,1.44 0.24,2.76 0.6,3.84 0.36,1.08 0.84,2.04 1.56,2.64 0.72,0.72 1.44,1.2 2.4,1.56 0.96,0.36 2.04,0.6 3.24,0.6 2.28,0 3.96,-0.6 5.28,-1.8 1.32,-1.08 2.16,-2.64 2.28,-4.68 l -4.44,0 z M 414,278.88 c -0.48,-0.36 -1.2,-0.72 -2.4,-0.96 -1.44,-0.24 -2.52,-0.6 -3,-0.96 -0.6,-0.48 -0.84,-0.96 -0.84,-1.68 0,-1.2 0.72,-1.92 2.04,-1.92 0.48,0 1.08,0.12 1.56,0.24 0.48,0.24 0.96,0.48 1.44,0.72 0.36,0.36 0.6,0.72 0.84,1.2 0.24,0.48 0.36,1.08 0.36,1.68 0,0.24 0,0.48 0,0.84 0,0.36 0,0.6 0,0.84 z m -2.76,9 c 2.4,0 4.2,-0.6 5.28,-1.68 1.2,-1.2 1.8,-2.76 1.8,-4.92 l 0,-10.56 -4.08,0 c 0,0.12 -0.12,0.36 -0.12,0.6 -0.12,0.24 -0.12,0.48 -0.12,0.72 -0.6,-0.6 -1.2,-0.96 -2.04,-1.32 -0.84,-0.24 -1.92,-0.36 -3,-0.36 -1.68,0 -3,0.36 -4.08,1.2 -0.96,0.84 -1.56,2.04 -1.56,3.48 0,1.2 0.24,2.04 0.6,2.76 0.36,0.72 0.96,1.2 1.56,1.56 0.72,0.48 1.56,0.72 2.52,0.96 0.96,0.12 1.92,0.36 3,0.48 0.84,0.12 1.56,0.36 2.04,0.6 0.48,0.24 0.84,0.6 0.84,1.08 0,0.72 -0.36,1.2 -0.96,1.44 -0.6,0.36 -1.2,0.48 -1.92,0.48 -0.72,0 -1.44,-0.24 -1.92,-0.6 -0.48,-0.48 -0.84,-1.08 -0.96,-1.92 l -4.2,0 c 0.12,1.92 0.72,3.36 1.92,4.44 1.08,0.96 2.88,1.56 5.4,1.56 z m 22.44,-3.6 -9.24,0 0,-6.96 c 0,-1.08 0.24,-1.8 0.6,-2.4 0.36,-0.6 1.08,-0.84 1.92,-0.84 0.96,0 1.56,0.24 1.92,0.84 0.48,0.6 0.72,1.32 0.72,2.4 l 0,4.32 4.08,0 0,-4.8 c 0,-0.84 -0.12,-1.68 -0.36,-2.52 -0.24,-0.84 -0.72,-1.44 -1.2,-2.04 -0.6,-0.6 -1.32,-1.2 -2.16,-1.56 -0.84,-0.36 -1.92,-0.48 -3,-0.48 -1.2,0 -2.28,0.12 -3.12,0.48 -0.84,0.36 -1.56,0.84 -2.16,1.56 -0.48,0.6 -0.96,1.32 -1.2,2.04 -0.24,0.84 -0.36,1.68 -0.36,2.64 l 0,14.88 4.32,0 0,-4.44 9.24,0 0,-3.12 z m 6.12,-13.56 -4.44,0 0,16.68 4.44,0 0,-16.68 z m 0,18.6 -4.44,0 0,4.2 4.44,0 0,-4.2 z m 9.84,-5.28 c -2.64,0 -3.96,-1.68 -3.96,-5.04 0,-3.36 1.32,-5.04 3.96,-5.04 2.76,0 4.08,1.68 4.08,5.04 0,3.36 -1.32,5.04 -4.08,5.04 z m 0,3.84 c 1.32,0 2.52,-0.24 3.6,-0.72 1.08,-0.36 1.92,-0.96 2.64,-1.68 0.72,-0.84 1.32,-1.8 1.68,-2.88 0.36,-1.08 0.6,-2.28 0.6,-3.6 0,-1.32 -0.24,-2.52 -0.6,-3.6 -0.36,-1.08 -0.96,-2.04 -1.68,-2.76 -0.72,-0.72 -1.68,-1.32 -2.64,-1.8 -1.08,-0.36 -2.28,-0.6 -3.6,-0.6 -1.32,0 -2.52,0.24 -3.6,0.6 -1.08,0.48 -1.92,1.08 -2.64,1.8 -0.72,0.84 -1.32,1.8 -1.68,2.88 -0.36,1.08 -0.6,2.28 -0.6,3.48 0,1.32 0.12,2.52 0.6,3.6 0.36,1.08 0.96,2.04 1.68,2.76 0.72,0.84 1.68,1.44 2.64,1.8 1.08,0.48 2.28,0.72 3.6,0.72 z m 14.16,-3 c 0.48,0.96 1.2,1.68 2.04,2.16 0.84,0.48 1.92,0.84 3.36,0.84 0.72,0 1.44,-0.12 2.16,-0.36 0.72,-0.24 1.32,-0.6 1.8,-1.08 0.48,-0.48 0.84,-1.08 1.08,-1.8 0.24,-0.72 0.48,-1.44 0.48,-2.4 l 0,-11.52 -4.44,0 0,10.08 c 0,1.32 -0.24,2.16 -0.72,2.64 -0.36,0.48 -1.08,0.6 -2.16,0.6 -2.28,0 -3.48,-1.2 -3.48,-3.84 l 0,-9.48 -4.32,0 0,16.68 4.2,0 0,-2.52 z m 17.28,-14.16 -4.8,0 0,22.44 4.8,0 0,-22.44 z m 6,3.84 3.96,0 c 2.04,0 3.6,0.6 4.56,1.92 0.84,1.2 1.32,3.12 1.32,5.76 0,2.52 -0.48,4.32 -1.44,5.4 -0.96,1.08 -2.52,1.68 -4.8,1.68 l -3.6,0 0,-14.76 z m 4.2,18.6 c 1.56,0 3,-0.24 4.2,-0.72 1.32,-0.48 2.4,-1.2 3.36,-2.16 0.84,-0.96 1.56,-2.16 2.16,-3.48 0.48,-1.32 0.72,-2.88 0.72,-4.56 0,-1.8 -0.24,-3.36 -0.72,-4.68 -0.48,-1.44 -1.08,-2.64 -1.92,-3.72 -0.84,-0.96 -1.92,-1.8 -3.12,-2.28 -1.2,-0.6 -2.52,-0.84 -3.96,-0.84 l -9.48,0 0,22.44 8.76,0" /><path
       id="path2991"
       style="fill:#950707;fill-opacity:1;fill-rule:nonzero;stroke:none"
       d="m -8.88,346.32 c -2.52,0 -3.72,-1.8 -3.72,-5.16 0,-1.44 0.36,-2.64 0.96,-3.6 0.72,-0.84 1.68,-1.32 2.76,-1.32 1.08,0 2.04,0.48 2.64,1.32 0.72,0.84 1.08,1.92 1.08,3.36 0,3.6 -1.2,5.4 -3.72,5.4 z m 8.04,-13.56 c 0,-1.2 -0.24,-2.28 -0.6,-3.24 -0.48,-0.96 -1.08,-1.8 -1.8,-2.52 -0.72,-0.6 -1.68,-1.08 -2.64,-1.44 -1.08,-0.36 -2.16,-0.48 -3.24,-0.48 -1.2,0 -2.28,0.12 -3.24,0.48 -0.96,0.24 -1.8,0.72 -2.52,1.32 -0.72,0.6 -1.32,1.44 -1.8,2.28 -0.36,0.84 -0.6,1.8 -0.6,2.88 l 4.2,0 c 0,-0.96 0.24,-1.8 0.96,-2.4 0.72,-0.48 1.56,-0.72 2.64,-0.72 1.2,0 2.16,0.24 3,0.96 0.84,0.6 1.2,1.44 1.2,2.52 l 0,2.76 c -0.24,-0.72 -0.84,-1.32 -1.68,-1.68 -0.84,-0.48 -1.8,-0.72 -2.88,-0.72 -1.32,0 -2.52,0.36 -3.48,0.84 -0.96,0.48 -1.68,1.08 -2.28,1.92 -0.6,0.72 -0.96,1.68 -1.2,2.76 -0.24,0.96 -0.48,2.04 -0.48,3.12 0,1.32 0.24,2.52 0.6,3.6 0.36,1.08 0.96,1.92 1.56,2.76 0.72,0.72 1.44,1.32 2.4,1.68 0.84,0.48 1.8,0.72 2.76,0.72 2.04,0 3.6,-0.84 4.68,-2.64 l 0,2.16 4.44,0 0,-16.92 z m 6.12,0.24 -4.32,0 0,22.8 4.32,0 0,-22.8 z m 10.08,6.72 -8.76,0 0,4.08 8.76,0 0,-4.08 z m 6.48,11.88 0,-6.6 4.44,0 c 1.08,0 2.04,0.24 2.76,0.96 0.72,0.6 1.08,1.32 1.08,2.4 0,0.84 -0.36,1.68 -1.08,2.28 -0.72,0.6 -1.56,0.96 -2.76,0.96 l -4.44,0 z m 5.64,3.84 c 0.96,0 1.92,-0.12 2.76,-0.48 0.84,-0.36 1.56,-0.96 2.16,-1.56 0.6,-0.72 1.08,-1.44 1.32,-2.4 0.36,-0.84 0.6,-1.8 0.6,-2.76 0,-1.08 -0.24,-2.04 -0.6,-2.88 -0.36,-0.84 -0.72,-1.56 -1.44,-2.28 -0.6,-0.6 -1.32,-1.08 -2.16,-1.44 -0.84,-0.36 -1.8,-0.48 -2.76,-0.48 l -5.52,0 0,-8.16 -4.8,0 0,22.44 10.44,0 z m 17.4,-9.84 c -0.48,0 -0.84,0.12 -1.32,0.12 -2.64,0 -3.96,-1.44 -3.96,-4.08 l 0,-8.64 -4.44,0 0,16.68 4.08,0 0,-2.04 c 0.36,0.6 0.84,0.96 1.2,1.32 0.36,0.36 0.84,0.6 1.2,0.72 0.36,0.24 0.84,0.24 1.32,0.36 0.36,0 0.84,0 1.32,0 l 0.6,0 0,-4.44 z m 5.4,-12.6 -4.44,0 0,16.68 4.44,0 0,-16.68 z m 0,18.6 -4.44,0 0,4.2 4.44,0 0,-4.2 z m 5.76,-4.44 c 0.6,1.08 1.2,1.92 2.04,2.28 0.84,0.48 1.68,0.72 2.88,0.72 1.08,0 1.92,-0.24 2.64,-0.6 0.72,-0.48 1.32,-1.2 1.92,-2.16 0.96,1.8 2.4,2.76 4.56,2.76 0.84,0 1.56,-0.24 2.28,-0.48 0.72,-0.36 1.32,-0.72 1.8,-1.2 0.48,-0.48 0.96,-1.08 1.2,-1.8 0.24,-0.72 0.36,-1.44 0.36,-2.16 l 0,-11.52 -4.32,0 0,10.08 c 0,1.08 -0.24,1.8 -0.72,2.52 -0.48,0.6 -1.08,0.84 -1.8,0.84 -0.84,0 -1.56,-0.24 -2.04,-0.96 C 66.36,344.76 66,343.92 66,342.96 l 0,-9.96 -4.32,0 0,9.96 c 0,1.32 -0.24,2.28 -0.6,2.76 -0.48,0.48 -1.08,0.6 -2.04,0.6 -1.8,0 -2.76,-1.08 -2.76,-3.24 l 0,-10.08 -4.44,0 0,16.68 4.2,0 0,-2.52 z M 81.96,333 l -4.44,0 0,16.68 4.44,0 0,-16.68 z m 0,18.6 -4.44,0 0,4.2 4.44,0 0,-4.2 z m 15.12,-5.04 -9.12,0 0,-6.96 c 0,-1.08 0.12,-1.8 0.6,-2.4 0.36,-0.6 0.96,-0.84 1.92,-0.84 0.84,0 1.56,0.24 1.92,0.84 0.36,0.6 0.6,1.32 0.6,2.4 l 0,4.32 4.08,0 0,-4.8 c 0,-0.84 -0.12,-1.68 -0.36,-2.52 -0.24,-0.84 -0.6,-1.44 -1.2,-2.04 -0.48,-0.6 -1.2,-1.2 -2.04,-1.56 -0.84,-0.36 -1.92,-0.48 -3.12,-0.48 -1.2,0 -2.28,0.12 -3.12,0.48 -0.84,0.36 -1.56,0.84 -2.04,1.56 -0.6,0.6 -0.96,1.32 -1.2,2.04 -0.24,0.84 -0.48,1.68 -0.48,2.64 l 0,14.88 4.44,0 0,-4.44 9.12,0 0,-3.12 z m 6.24,-13.56 -4.44,0 0,16.68 4.44,0 0,-16.68 z m 0,18.6 -4.44,0 0,4.2 4.44,0 0,-4.2 z m 11.4,-18.6 -4.56,0 -6,16.68 4.92,0 3.48,-11.04 3.6,11.04 4.56,0 -6,-16.68 z m 18,9.96 c 0,1.2 -0.36,2.16 -1.08,2.76 -0.72,0.6 -1.44,0.84 -2.28,0.84 -0.96,0 -1.68,-0.24 -2.4,-0.96 -0.6,-0.6 -0.96,-1.56 -1.08,-2.64 l 6.84,0 z m -6.96,-2.76 c 0.12,-1.32 0.48,-2.28 1.08,-3.12 0.72,-0.72 1.56,-1.08 2.64,-1.08 0.72,0 1.32,0.12 1.92,0.48 0.6,0.36 0.96,0.84 1.08,1.44 l 4.56,0 c -0.48,-1.8 -1.44,-3.12 -2.64,-3.96 -1.32,-0.96 -2.88,-1.44 -4.68,-1.44 -5.52,0 -8.4,3 -8.4,9.12 0,2.52 0.72,4.68 2.16,6.12 1.44,1.56 3.36,2.4 6,2.4 5.16,0 7.8,-3.36 7.8,-9.96 l -11.52,0 z m 17.52,-7.2 -4.8,0 0,22.44 4.8,0 0,-22.44 z m 6,3.84 3.96,0 c 2.04,0 3.6,0.6 4.44,1.8 0.96,1.32 1.44,3.24 1.44,5.88 0,2.52 -0.48,4.32 -1.44,5.4 -0.96,1.08 -2.64,1.68 -4.8,1.68 l -3.6,0 0,-14.76 z m 4.2,18.6 c 1.56,0 2.88,-0.24 4.2,-0.72 1.32,-0.48 2.4,-1.2 3.24,-2.16 0.96,-0.96 1.68,-2.16 2.16,-3.48 0.6,-1.32 0.84,-2.88 0.84,-4.56 0,-1.8 -0.24,-3.36 -0.72,-4.8 -0.48,-1.32 -1.08,-2.52 -1.92,-3.6 -0.84,-0.96 -1.92,-1.8 -3.12,-2.28 -1.2,-0.6 -2.52,-0.84 -3.96,-0.84 l -9.48,0 0,22.44 8.76,0 z m 16.44,-22.44 -4.8,0 0,22.44 4.8,0 0,-22.44 z m 5.76,14.16 c 0.48,0.96 1.2,1.68 2.04,2.16 0.84,0.48 2.04,0.84 3.36,0.84 0.84,0 1.56,-0.12 2.16,-0.36 0.72,-0.24 1.32,-0.6 1.8,-1.08 0.48,-0.48 0.84,-1.08 1.2,-1.8 0.24,-0.72 0.36,-1.44 0.36,-2.4 l 0,-11.52 -4.44,0 0,10.08 c 0,1.32 -0.24,2.16 -0.6,2.64 -0.48,0.48 -1.2,0.6 -2.28,0.6 -2.28,0 -3.36,-1.2 -3.36,-3.84 l 0,-9.48 -4.44,0 0,16.68 4.2,0 0,-2.52" /><path
       id="path2993"
       style="fill:#bd4200;fill-opacity:1;fill-rule:nonzero;stroke:none"
       d="m 1.2,273.6 -4.32,0 0,16.68 4.32,0 0,-16.68 z m 0,18.6 -4.32,0 0,4.2 4.32,0 0,-4.2 z m 5.88,-4.44 c 0.48,1.08 1.2,1.92 1.92,2.28 0.84,0.48 1.8,0.72 2.88,0.72 1.08,0 2.04,-0.24 2.76,-0.6 0.6,-0.48 1.32,-1.2 1.92,-2.16 0.84,1.8 2.4,2.76 4.44,2.76 0.84,0 1.68,-0.24 2.4,-0.48 0.72,-0.24 1.32,-0.72 1.8,-1.2 0.48,-0.48 0.84,-1.08 1.2,-1.8 0.24,-0.72 0.36,-1.44 0.36,-2.16 l 0,-11.52 -4.32,0 0,10.08 c 0,1.08 -0.24,1.8 -0.72,2.52 -0.48,0.6 -1.08,0.84 -1.92,0.84 -0.72,0 -1.44,-0.24 -1.92,-0.96 -0.6,-0.72 -0.84,-1.56 -0.84,-2.52 l 0,-9.96 -4.44,0 0,9.96 c 0,1.32 -0.12,2.28 -0.6,2.76 -0.36,0.48 -1.08,0.6 -2.04,0.6 -1.8,0 -2.64,-1.08 -2.64,-3.24 l 0,-10.08 -4.44,0 0,16.68 4.2,0 0,-2.52 z m 31.56,-6 c -0.36,-0.36 -1.2,-0.72 -2.28,-0.96 -1.56,-0.24 -2.52,-0.6 -3.12,-0.96 -0.48,-0.48 -0.72,-0.96 -0.72,-1.68 0,-1.2 0.6,-1.92 1.92,-1.92 0.6,0 1.08,0.12 1.68,0.24 0.48,0.24 0.96,0.48 1.32,0.72 0.36,0.36 0.72,0.72 0.96,1.2 0.24,0.48 0.36,1.08 0.36,1.68 0,0.24 0,0.48 0,0.84 0,0.36 -0.12,0.6 -0.12,0.84 z m -2.64,9 c 2.4,0 4.08,-0.6 5.28,-1.68 1.2,-1.2 1.8,-2.76 1.8,-4.92 l 0,-10.56 -4.08,0 c -0.12,0.12 -0.12,0.36 -0.24,0.6 0,0.24 0,0.48 0,0.72 -0.6,-0.6 -1.32,-0.96 -2.16,-1.32 -0.84,-0.24 -1.8,-0.36 -3,-0.36 -1.68,0 -3,0.36 -3.96,1.2 -1.08,0.84 -1.56,2.04 -1.56,3.48 0,1.2 0.24,2.04 0.6,2.76 0.36,0.72 0.84,1.2 1.56,1.56 0.72,0.48 1.56,0.72 2.4,0.96 0.96,0.12 2.04,0.36 3.12,0.48 0.84,0.12 1.56,0.36 2.04,0.6 0.48,0.24 0.72,0.6 0.72,1.08 0,0.72 -0.24,1.2 -0.84,1.44 -0.6,0.36 -1.2,0.48 -1.92,0.48 -0.84,0 -1.44,-0.24 -1.92,-0.6 -0.6,-0.48 -0.84,-1.08 -0.96,-1.92 l -4.2,0 c 0.12,1.92 0.72,3.36 1.8,4.44 1.2,0.96 3,1.56 5.52,1.56 z m 16.8,-3.84 c -2.52,0 -3.72,-1.8 -3.72,-5.16 0,-1.44 0.36,-2.64 1.08,-3.6 0.72,-0.84 1.56,-1.2 2.64,-1.2 1.08,0 2.04,0.36 2.76,1.2 0.72,0.84 1.08,1.92 1.08,3.36 0,3.6 -1.32,5.4 -3.84,5.4 z m 8.04,-13.56 c 0,-1.2 -0.24,-2.28 -0.6,-3.24 -0.48,-0.96 -1.08,-1.8 -1.8,-2.52 -0.72,-0.6 -1.68,-1.08 -2.64,-1.44 -0.96,-0.36 -2.04,-0.48 -3.24,-0.48 -1.2,0 -2.28,0.12 -3.24,0.48 -0.96,0.24 -1.8,0.72 -2.52,1.32 -0.72,0.6 -1.32,1.44 -1.68,2.28 -0.36,0.84 -0.6,1.8 -0.6,2.88 l 4.08,0 c 0,-0.96 0.36,-1.8 0.96,-2.4 0.72,-0.48 1.56,-0.72 2.64,-0.72 1.2,0 2.28,0.24 3,0.96 0.84,0.6 1.32,1.44 1.32,2.52 l 0,2.76 c -0.36,-0.72 -0.96,-1.32 -1.8,-1.68 -0.84,-0.48 -1.68,-0.6 -2.88,-0.6 -1.32,0 -2.52,0.24 -3.36,0.72 -0.96,0.48 -1.8,1.08 -2.28,1.92 -0.6,0.72 -1.08,1.68 -1.32,2.76 -0.24,0.96 -0.36,2.04 -0.36,3.12 0,1.32 0.12,2.52 0.6,3.6 0.36,1.08 0.84,1.92 1.44,2.76 0.72,0.72 1.44,1.32 2.4,1.68 0.84,0.48 1.8,0.72 2.88,0.72 2.04,0 3.6,-0.84 4.68,-2.52 l 0,2.04 4.32,0 0,-16.92 z m 12.72,10.2 c 0,1.2 -0.36,2.16 -1.08,2.76 -0.6,0.6 -1.44,0.84 -2.28,0.84 -0.84,0 -1.68,-0.24 -2.28,-0.96 -0.6,-0.6 -1.08,-1.44 -1.08,-2.64 l 6.72,0 z M 66.6,280.8 c 0.12,-1.32 0.48,-2.28 1.2,-3 0.6,-0.84 1.44,-1.2 2.64,-1.2 0.72,0 1.32,0.12 1.8,0.48 0.6,0.36 0.96,0.84 1.2,1.44 l 4.44,0 c -0.48,-1.68 -1.32,-3.12 -2.64,-3.96 -1.32,-0.96 -2.88,-1.44 -4.68,-1.44 -5.52,0 -8.28,3 -8.28,9.12 0,2.52 0.72,4.68 2.04,6.12 1.44,1.56 3.36,2.4 6,2.4 5.28,0 7.8,-3.36 7.8,-9.96 l -11.52,0 z m 25.56,8.64 c -0.12,1.08 -0.6,1.92 -1.44,2.52 -0.84,0.6 -1.8,0.84 -3.12,0.84 -1.08,0 -2.04,-0.24 -2.76,-0.72 -0.84,-0.48 -1.2,-1.08 -1.2,-1.92 0,-0.72 0.24,-1.32 0.84,-1.68 0.48,-0.48 1.44,-0.84 2.64,-1.08 0.96,-0.24 1.92,-0.48 2.64,-0.72 0.72,-0.12 1.44,-0.36 1.92,-0.48 0.6,-0.24 1.08,-0.36 1.56,-0.48 0.48,-0.24 0.96,-0.36 1.32,-0.6 0.84,-0.36 1.56,-0.96 2.04,-1.8 0.48,-0.72 0.72,-1.8 0.72,-3 0,-1.2 -0.24,-2.16 -0.6,-3.12 -0.48,-0.84 -1.08,-1.68 -1.92,-2.28 -0.72,-0.6 -1.68,-1.08 -2.64,-1.44 C 91.08,273.12 90,273 88.8,273 c -6.48,0 -9.84,2.4 -9.96,7.44 l 4.56,0 c 0,-1.08 0.48,-2.04 1.44,-2.64 0.84,-0.72 2.04,-1.08 3.36,-1.08 0.6,0 1.2,0.12 1.68,0.24 0.6,0.12 1.08,0.36 1.56,0.6 0.36,0.24 0.72,0.6 0.96,0.84 0.24,0.36 0.36,0.84 0.36,1.2 0,1.32 -1.2,2.28 -3.48,2.88 -1.92,0.48 -3.36,0.84 -4.44,1.2 -0.96,0.36 -1.68,0.6 -2.16,0.72 -1.2,0.6 -2.04,1.32 -2.52,2.16 -0.6,0.84 -0.84,1.92 -0.84,3.24 0,0.96 0.24,1.92 0.6,2.76 0.36,0.84 0.84,1.56 1.56,2.16 0.72,0.6 1.56,1.2 2.64,1.56 0.96,0.36 2.16,0.48 3.48,0.48 1.32,0 2.4,-0.12 3.48,-0.48 1.08,-0.36 2.04,-0.84 2.88,-1.56 0.84,-0.6 1.44,-1.32 1.92,-2.28 0.48,-0.84 0.72,-1.92 0.72,-3 l -4.44,0 z m 19.8,-2.28 -9.12,0 0,-6.96 c 0,-1.08 0.12,-1.8 0.6,-2.4 0.36,-0.6 0.96,-0.84 1.92,-0.84 0.84,0 1.56,0.24 1.92,0.84 0.36,0.6 0.6,1.32 0.6,2.4 l 0,4.32 4.08,0 0,-4.8 c 0,-0.84 -0.12,-1.68 -0.36,-2.52 -0.24,-0.84 -0.6,-1.44 -1.2,-2.04 -0.6,-0.6 -1.2,-1.2 -2.04,-1.56 -0.84,-0.36 -1.92,-0.48 -3.12,-0.48 -1.2,0 -2.28,0.12 -3.12,0.48 -0.84,0.36 -1.56,0.84 -2.04,1.56 -0.6,0.6 -0.96,1.32 -1.2,2.04 -0.24,0.84 -0.48,1.68 -0.48,2.64 l 0,14.88 4.44,0 0,-4.44 9.12,0 0,-3.12 z m 9.96,-0.24 c -2.64,0 -3.96,-1.68 -3.96,-5.04 0,-3.36 1.32,-5.04 3.96,-5.04 2.76,0 4.08,1.68 4.08,5.04 0,3.36 -1.32,5.04 -4.08,5.04 z m 0,3.84 c 1.32,0 2.52,-0.24 3.6,-0.72 1.08,-0.36 1.92,-0.96 2.64,-1.68 0.72,-0.84 1.32,-1.8 1.68,-2.88 0.36,-1.08 0.6,-2.28 0.6,-3.6 0,-1.32 -0.12,-2.52 -0.6,-3.6 -0.36,-1.08 -0.96,-2.04 -1.68,-2.76 -0.72,-0.72 -1.68,-1.32 -2.64,-1.8 -1.08,-0.36 -2.28,-0.6 -3.6,-0.6 -1.32,0 -2.52,0.24 -3.6,0.6 -1.08,0.48 -1.92,1.08 -2.64,1.8 -0.72,0.84 -1.32,1.8 -1.68,2.88 -0.36,1.08 -0.6,2.28 -0.6,3.48 0,1.32 0.24,2.52 0.6,3.6 0.36,1.08 0.96,2.04 1.68,2.76 0.72,0.84 1.68,1.44 2.76,1.8 1.08,0.48 2.16,0.72 3.48,0.72 z m 19.56,-4.56 c -0.36,0 -0.72,0.12 -1.2,0.12 -2.64,0 -4.08,-1.44 -4.08,-4.08 l 0,-8.64 -4.32,0 0,16.68 4.08,0 0,-2.04 c 0.36,0.6 0.72,0.96 1.2,1.32 0.36,0.36 0.72,0.6 1.2,0.72 0.36,0.24 0.84,0.36 1.2,0.36 0.48,0 0.96,0 1.32,0 l 0.6,0 0,-4.44 z m 12,-2.64 c 0,1.2 -0.36,2.16 -1.08,2.76 -0.6,0.6 -1.44,0.84 -2.28,0.84 -0.84,0 -1.68,-0.24 -2.28,-0.96 -0.6,-0.6 -0.96,-1.44 -1.08,-2.64 l 6.72,0 z m -6.96,-2.76 c 0.12,-1.32 0.48,-2.28 1.2,-3 0.6,-0.84 1.44,-1.2 2.64,-1.2 0.72,0 1.32,0.12 1.8,0.48 0.6,0.36 0.96,0.84 1.2,1.44 l 4.56,0 c -0.6,-1.68 -1.44,-3.12 -2.76,-3.96 -1.32,-0.96 -2.88,-1.44 -4.68,-1.44 -5.52,0 -8.28,3 -8.28,9.12 0,2.52 0.72,4.68 2.04,6.12 1.44,1.56 3.36,2.4 6,2.4 5.28,0 7.8,-3.36 7.8,-9.96 l -11.52,0 z m 21.36,15.72 c -2.88,-4.56 -4.2,-9.36 -4.2,-14.64 0,-5.28 1.32,-10.2 4.2,-14.88 l -3.24,0 c -0.84,1.2 -1.56,2.28 -2.16,3.48 -0.72,1.08 -1.32,2.16 -1.8,3.36 -0.48,1.2 -0.84,2.4 -1.08,3.72 -0.36,1.32 -0.48,2.64 -0.48,4.2 0,5.28 1.8,10.2 5.52,14.76 l 3.24,0 z m 3.24,0 c 3.72,-5.04 5.52,-9.96 5.52,-14.88 0,-4.8 -1.92,-9.72 -5.64,-14.64 l -3.12,0 c 2.76,4.44 4.2,9.36 4.2,14.64 0,5.28 -1.44,10.32 -4.2,14.88 l 3.24,0" /><path
       id="path2995"
       style="fill:#1f0207;fill-opacity:1;fill-rule:nonzero;stroke:none"
       d="m 331.56,499.32 -9.24,0 0,-6.96 c 0,-0.96 0.24,-1.8 0.6,-2.4 0.36,-0.6 1.08,-0.84 1.92,-0.84 0.96,0 1.56,0.24 2.04,0.84 0.36,0.6 0.6,1.32 0.6,2.4 l 0,4.32 4.08,0 0,-4.8 c 0,-0.84 -0.12,-1.68 -0.36,-2.52 -0.24,-0.72 -0.72,-1.44 -1.2,-2.04 -0.6,-0.6 -1.32,-1.08 -2.16,-1.44 -0.84,-0.36 -1.92,-0.6 -3,-0.6 -1.2,0 -2.28,0.12 -3.12,0.6 -0.84,0.36 -1.56,0.84 -2.16,1.44 -0.48,0.6 -0.96,1.32 -1.2,2.04 -0.24,0.84 -0.36,1.68 -0.36,2.64 l 0,15 4.32,0 0,-4.56 9.24,0 0,-3.12 z m 12.72,-3.6 c 0,1.2 -0.36,2.16 -1.08,2.76 -0.72,0.6 -1.44,0.84 -2.28,0.84 -0.96,0 -1.68,-0.24 -2.4,-0.84 -0.6,-0.72 -0.96,-1.56 -1.08,-2.76 l 6.84,0 z m -6.96,-2.76 c 0.12,-1.32 0.48,-2.28 1.08,-3 0.72,-0.84 1.56,-1.2 2.64,-1.2 0.72,0 1.32,0.24 1.92,0.6 0.6,0.36 0.96,0.72 1.08,1.32 l 4.56,0 c -0.48,-1.68 -1.44,-3 -2.64,-3.96 -1.32,-0.96 -2.88,-1.44 -4.68,-1.44 -5.52,0 -8.4,3 -8.4,9.12 0,2.64 0.72,4.68 2.16,6.24 1.44,1.56 3.36,2.28 6,2.28 5.16,0 7.8,-3.36 7.8,-9.96 l -11.52,0 z m 22.8,1.32 5.76,-8.52 -5.4,0 -2.88,5.04 -2.88,-5.04 -5.28,0 5.64,8.52 -5.52,8.16 5.4,0 2.76,-4.92 2.88,4.92 5.04,0 -5.52,-8.16 z m 20.28,5.04 -9.24,0 0,-6.96 c 0,-0.96 0.24,-1.8 0.6,-2.4 0.36,-0.6 1.08,-0.84 2.04,-0.84 0.84,0 1.44,0.24 1.92,0.84 0.36,0.6 0.6,1.32 0.6,2.4 l 0,4.32 4.08,0 0,-4.8 c 0,-0.84 -0.12,-1.68 -0.36,-2.52 -0.24,-0.72 -0.72,-1.44 -1.2,-2.04 -0.6,-0.6 -1.32,-1.08 -2.16,-1.44 -0.84,-0.36 -1.8,-0.6 -3,-0.6 -1.2,0 -2.28,0.12 -3.12,0.6 -0.84,0.36 -1.56,0.84 -2.16,1.44 -0.48,0.6 -0.96,1.32 -1.2,2.04 -0.24,0.84 -0.36,1.68 -0.36,2.64 l 0,15 4.32,0 0,-4.56 9.24,0 0,-3.12 z m 16.8,-13.56 -4.2,0 0,2.28 c -1.08,-1.8 -2.76,-2.76 -5.16,-2.76 -0.84,0 -1.56,0.12 -2.28,0.48 -0.72,0.24 -1.32,0.72 -1.8,1.2 -0.48,0.6 -0.84,1.2 -1.2,2.04 -0.24,0.72 -0.36,1.56 -0.36,2.52 l 0,10.92 4.32,0 0,-10.32 c 0,-2.04 0.96,-3.12 2.88,-3.12 1.08,0 1.92,0.36 2.52,1.08 0.6,0.72 0.96,1.56 0.96,2.76 l 0,9.6 4.32,0 0,-16.68 z m 11.4,12.6 c -0.36,0.12 -0.84,0.12 -1.2,0.12 -2.76,0 -4.08,-1.32 -4.08,-4.08 l 0,-8.64 -4.32,0 0,16.68 4.08,0 0,-2.04 c 0.36,0.6 0.72,1.08 1.08,1.32 0.48,0.36 0.84,0.6 1.32,0.72 0.36,0.24 0.84,0.36 1.2,0.36 0.48,0 0.96,0 1.32,0 l 0.6,0 0,-4.44 z m 12,-2.64 c 0,1.2 -0.36,2.16 -1.08,2.76 -0.6,0.6 -1.44,0.84 -2.28,0.84 -0.96,0 -1.68,-0.24 -2.28,-0.84 -0.72,-0.72 -1.08,-1.56 -1.2,-2.76 l 6.84,0 z m -6.96,-2.76 c 0.12,-1.32 0.48,-2.28 1.08,-3 0.72,-0.84 1.56,-1.2 2.64,-1.2 0.72,0 1.44,0.24 1.92,0.6 0.6,0.36 0.96,0.72 1.08,1.32 l 4.56,0 c -0.48,-1.68 -1.44,-3 -2.64,-3.96 -1.32,-0.96 -2.88,-1.44 -4.68,-1.44 -5.52,0 -8.28,3 -8.28,9.12 0,2.64 0.6,4.68 2.04,6.24 1.44,1.56 3.36,2.28 6,2.28 5.16,0 7.8,-3.36 7.8,-9.96 l -11.52,0 z m 25.44,8.64 c -0.12,1.08 -0.48,1.92 -1.32,2.52 -0.84,0.6 -1.8,0.84 -3.12,0.84 -1.08,0 -2.04,-0.24 -2.76,-0.72 -0.84,-0.48 -1.2,-1.08 -1.2,-1.92 0,-0.72 0.24,-1.2 0.84,-1.68 0.48,-0.48 1.32,-0.84 2.64,-1.08 0.96,-0.24 1.8,-0.48 2.64,-0.72 0.72,-0.12 1.32,-0.36 1.92,-0.48 0.6,-0.12 1.08,-0.36 1.56,-0.48 0.48,-0.12 0.84,-0.36 1.32,-0.6 0.84,-0.36 1.56,-0.96 2.04,-1.8 0.48,-0.72 0.72,-1.8 0.72,-3 0,-1.2 -0.24,-2.16 -0.72,-3.12 -0.48,-0.84 -0.96,-1.68 -1.8,-2.28 -0.72,-0.6 -1.68,-1.08 -2.64,-1.44 -1.08,-0.36 -2.16,-0.48 -3.36,-0.48 -6.48,0 -9.84,2.52 -9.96,7.56 l 4.56,0 c 0,-1.2 0.48,-2.16 1.32,-2.76 0.96,-0.72 2.04,-1.08 3.48,-1.08 0.6,0 1.2,0.12 1.68,0.24 0.6,0.12 1.08,0.36 1.44,0.6 0.48,0.24 0.84,0.6 1.08,0.96 0.24,0.36 0.36,0.72 0.36,1.08 0,1.32 -1.2,2.28 -3.48,2.88 -1.92,0.48 -3.48,0.84 -4.44,1.2 -0.96,0.36 -1.68,0.6 -2.16,0.84 -1.2,0.48 -2.04,1.2 -2.52,2.04 -0.6,0.84 -0.84,1.92 -0.84,3.24 0,0.96 0.12,1.92 0.48,2.76 0.36,0.84 0.96,1.56 1.68,2.16 0.72,0.72 1.56,1.2 2.52,1.56 1.08,0.36 2.28,0.48 3.6,0.48 1.2,0 2.4,-0.12 3.48,-0.48 1.08,-0.36 2.04,-0.84 2.88,-1.44 0.72,-0.72 1.44,-1.44 1.92,-2.4 0.48,-0.84 0.72,-1.92 0.72,-3 l -4.56,0 z m 10.8,-15.84 -4.44,0 0,16.68 4.44,0 0,-16.68 z m 0,18.72 -4.44,0 0,4.08 4.44,0 0,-4.08 z m 15.12,-5.64 -8.4,-9.48 8.76,0 0,-3.6 -14.4,0 0,3.36 8.52,9.84 -7.92,0 0,3.48 13.44,0 0,-3.6 z m 12.36,-3.12 c 0,1.2 -0.36,2.16 -1.08,2.76 -0.6,0.6 -1.44,0.84 -2.28,0.84 -0.96,0 -1.68,-0.24 -2.28,-0.84 -0.6,-0.72 -1.08,-1.56 -1.08,-2.76 l 6.72,0 z m -6.96,-2.76 c 0.12,-1.32 0.48,-2.28 1.2,-3 0.6,-0.84 1.44,-1.2 2.52,-1.2 0.72,0 1.44,0.24 1.92,0.6 0.6,0.36 0.96,0.72 1.2,1.32 l 4.44,0 c -0.48,-1.68 -1.32,-3 -2.64,-3.96 -1.32,-0.96 -2.88,-1.44 -4.68,-1.44 -5.52,0 -8.28,3 -8.28,9.12 0,2.64 0.72,4.68 2.04,6.24 1.44,1.56 3.36,2.28 6,2.28 5.16,0 7.8,-3.36 7.8,-9.96 l -11.52,0 z m 21.24,15.84 c -2.76,-4.56 -4.08,-9.48 -4.08,-14.76 0,-5.16 1.32,-10.2 4.08,-14.88 l -3.12,0 c -0.84,1.2 -1.56,2.4 -2.16,3.48 -0.72,1.08 -1.32,2.28 -1.8,3.36 -0.48,1.2 -0.84,2.4 -1.2,3.72 -0.24,1.32 -0.36,2.64 -0.36,4.2 0,5.28 1.8,10.2 5.52,14.88 l 3.12,0 z m 3.36,0 c 3.6,-5.16 5.52,-10.08 5.52,-14.88 0,-4.92 -1.92,-9.72 -5.64,-14.76 l -3.12,0 c 2.76,4.44 4.2,9.36 4.2,14.64 0,5.4 -1.44,10.32 -4.2,15 l 3.24,0" /><path
       id="path2997"
       style="fill:#1f0208;fill-opacity:1;fill-rule:nonzero;stroke:none"
       d="m 68.64,394.68 -4.44,0 0,16.68 4.44,0 0,-16.68 z m 0,18.6 -4.44,0 0,4.08 4.44,0 0,-4.08 z m 5.76,-4.44 c 0.6,1.08 1.2,1.92 2.04,2.28 0.84,0.48 1.8,0.6 2.88,0.6 1.08,0 2.04,-0.12 2.64,-0.6 0.72,-0.36 1.32,-1.08 2.04,-2.04 0.84,1.8 2.28,2.64 4.44,2.64 0.84,0 1.56,-0.12 2.28,-0.36 0.72,-0.36 1.32,-0.72 1.8,-1.2 0.48,-0.48 0.96,-1.08 1.2,-1.8 0.24,-0.72 0.48,-1.44 0.48,-2.16 l 0,-11.52 -4.32,0 0,10.08 c 0,0.96 -0.24,1.8 -0.72,2.4 -0.48,0.6 -1.2,0.96 -1.92,0.96 -0.84,0 -1.44,-0.36 -2.04,-0.96 -0.48,-0.72 -0.84,-1.56 -0.84,-2.52 l 0,-9.96 -4.32,0 0,9.96 c 0,1.32 -0.24,2.28 -0.6,2.76 -0.36,0.48 -1.08,0.6 -2.04,0.6 -1.8,0 -2.76,-1.08 -2.76,-3.24 l 0,-10.08 -4.32,0 0,16.68 4.08,0 0,-2.52 z m 31.68,-6 c -0.48,-0.36 -1.2,-0.72 -2.28,-0.96 -1.56,-0.24 -2.64,-0.6 -3.12,-0.96 -0.48,-0.48 -0.84,-0.96 -0.84,-1.68 0,-1.32 0.72,-1.92 2.04,-1.92 0.6,0 1.08,0.12 1.56,0.24 0.6,0.12 1.08,0.36 1.44,0.72 0.36,0.36 0.72,0.72 0.96,1.2 0.24,0.48 0.24,1.08 0.24,1.68 0,0.24 0,0.48 0,0.84 0,0.36 0,0.6 0,0.84 z m -2.76,8.88 c 2.4,0 4.2,-0.48 5.4,-1.68 1.2,-1.08 1.8,-2.76 1.8,-4.92 l 0,-10.44 -4.2,0 c 0,0.12 0,0.36 -0.12,0.6 0,0.24 -0.12,0.48 -0.12,0.72 -0.48,-0.6 -1.2,-0.96 -2.04,-1.32 -0.84,-0.24 -1.92,-0.36 -3,-0.36 -1.68,0 -3,0.36 -4.08,1.2 -0.96,0.84 -1.44,2.04 -1.44,3.48 0,1.08 0.12,2.04 0.48,2.76 0.36,0.72 0.96,1.2 1.68,1.56 0.6,0.36 1.44,0.72 2.4,0.96 0.96,0.12 1.92,0.36 3,0.48 0.96,0.12 1.68,0.24 2.16,0.6 0.48,0.24 0.72,0.6 0.72,1.08 0,0.6 -0.24,1.08 -0.84,1.44 -0.6,0.36 -1.32,0.48 -2.04,0.48 -0.72,0 -1.32,-0.24 -1.92,-0.72 -0.48,-0.48 -0.84,-0.96 -0.96,-1.8 l -4.2,0 c 0.12,1.92 0.84,3.36 1.92,4.32 1.08,1.08 3,1.56 5.4,1.56 z m 16.92,-3.84 c -2.52,0 -3.72,-1.68 -3.72,-5.04 0,-1.44 0.36,-2.64 0.96,-3.6 0.72,-0.84 1.68,-1.32 2.76,-1.32 1.08,0 2.04,0.48 2.64,1.32 0.72,0.84 1.08,1.92 1.08,3.36 0,3.6 -1.2,5.28 -3.72,5.28 z m 8.04,-13.44 c 0,-1.2 -0.24,-2.4 -0.6,-3.36 -0.48,-0.96 -1.08,-1.68 -1.8,-2.4 -0.84,-0.6 -1.68,-1.2 -2.64,-1.44 -1.08,-0.36 -2.16,-0.48 -3.24,-0.48 -1.2,0 -2.28,0.12 -3.24,0.48 -0.96,0.24 -1.92,0.72 -2.64,1.32 -0.72,0.6 -1.2,1.32 -1.68,2.28 -0.36,0.84 -0.6,1.8 -0.6,2.88 l 4.2,0 c 0,-1.08 0.24,-1.8 0.96,-2.4 0.72,-0.48 1.56,-0.84 2.64,-0.84 1.2,0 2.16,0.36 3,0.96 0.84,0.72 1.2,1.56 1.2,2.64 l 0,2.76 c -0.24,-0.72 -0.84,-1.32 -1.68,-1.68 -0.84,-0.48 -1.8,-0.72 -2.88,-0.72 -1.32,0 -2.52,0.24 -3.48,0.72 -0.96,0.48 -1.68,1.2 -2.28,1.92 -0.6,0.84 -0.96,1.8 -1.2,2.76 -0.24,1.08 -0.48,2.16 -0.48,3.24 0,1.32 0.24,2.52 0.6,3.48 0.36,1.08 0.96,2.04 1.56,2.76 0.72,0.84 1.44,1.44 2.28,1.8 0.96,0.48 1.92,0.6 2.88,0.6 2.04,0 3.6,-0.84 4.68,-2.52 l 0,2.16 4.44,0 0,-16.92 z m 12.72,10.2 c 0,1.2 -0.36,2.16 -1.08,2.76 -0.72,0.6 -1.44,0.84 -2.28,0.84 -0.96,0 -1.68,-0.36 -2.4,-0.96 -0.6,-0.6 -0.96,-1.56 -1.08,-2.64 l 6.84,0 z m -6.96,-2.88 c 0.12,-1.2 0.48,-2.16 1.08,-3 0.72,-0.72 1.56,-1.08 2.64,-1.08 0.72,0 1.32,0.12 1.92,0.48 0.6,0.36 0.96,0.84 1.08,1.32 l 4.56,0 c -0.48,-1.68 -1.44,-3 -2.64,-3.96 -1.32,-0.84 -2.88,-1.32 -4.68,-1.32 -5.52,0 -8.4,3 -8.4,9.12 0,2.52 0.72,4.56 2.16,6.12 1.32,1.56 3.36,2.28 6,2.28 5.16,0 7.8,-3.24 7.8,-9.96 l -11.52,0 z m 17.52,-3 11.16,0 0,-4.08 -15.96,0 0,22.44 4.8,0 0,-18.36 z m 20.4,9.24 c -2.76,0 -4.08,-1.68 -4.08,-5.04 0,-3.36 1.32,-5.04 4.08,-5.04 2.64,0 3.96,1.68 3.96,5.04 0,3.36 -1.32,5.04 -3.96,5.04 z m 0,3.72 c 1.32,0 2.52,-0.12 3.48,-0.6 1.08,-0.36 1.92,-0.96 2.76,-1.8 0.72,-0.72 1.2,-1.68 1.68,-2.76 0.36,-1.08 0.6,-2.28 0.6,-3.6 0,-1.32 -0.24,-2.52 -0.72,-3.6 -0.36,-1.08 -0.96,-2.04 -1.68,-2.76 -0.72,-0.84 -1.56,-1.32 -2.64,-1.8 -1.08,-0.36 -2.28,-0.6 -3.48,-0.6 -1.32,0 -2.64,0.24 -3.6,0.6 -1.08,0.48 -2.04,1.08 -2.76,1.8 -0.72,0.84 -1.32,1.68 -1.68,2.76 -0.36,1.08 -0.6,2.28 -0.6,3.6 0,1.32 0.24,2.52 0.6,3.6 0.48,1.08 0.96,2.04 1.8,2.76 0.72,0.72 1.56,1.32 2.64,1.8 1.08,0.48 2.28,0.6 3.6,0.6 z M 192,402.84 c -0.48,-0.36 -1.2,-0.72 -2.4,-0.96 -1.44,-0.24 -2.52,-0.6 -3,-0.96 -0.6,-0.48 -0.84,-0.96 -0.84,-1.68 0,-1.32 0.72,-1.92 2.04,-1.92 0.48,0 1.08,0.12 1.56,0.24 0.48,0.12 0.96,0.36 1.44,0.72 0.36,0.36 0.6,0.72 0.84,1.2 0.24,0.48 0.36,1.08 0.36,1.68 0,0.24 0,0.48 0,0.84 0,0.36 0,0.6 0,0.84 z m -2.76,8.88 c 2.4,0 4.2,-0.48 5.28,-1.68 1.2,-1.08 1.8,-2.76 1.8,-4.92 l 0,-10.44 -4.08,0 c 0,0.12 -0.12,0.36 -0.12,0.6 0,0.24 -0.12,0.48 -0.12,0.72 -0.48,-0.6 -1.2,-0.96 -2.04,-1.32 -0.84,-0.24 -1.92,-0.36 -3,-0.36 -1.68,0 -3,0.36 -4.08,1.2 -0.96,0.84 -1.56,2.04 -1.56,3.48 0,1.08 0.24,2.04 0.6,2.76 0.36,0.72 0.96,1.2 1.56,1.56 0.72,0.36 1.56,0.72 2.52,0.96 0.96,0.12 1.92,0.36 3,0.48 0.84,0.12 1.56,0.24 2.04,0.6 0.48,0.24 0.84,0.6 0.84,1.08 0,0.6 -0.36,1.08 -0.96,1.44 -0.6,0.36 -1.2,0.48 -1.92,0.48 -0.72,0 -1.44,-0.24 -1.92,-0.72 -0.48,-0.48 -0.84,-0.96 -0.96,-1.8 l -4.2,0 c 0.12,1.92 0.84,3.36 1.92,4.32 1.08,1.08 2.88,1.56 5.4,1.56 z m 16.8,-3.72 c -2.52,0 -3.84,-1.68 -3.84,-5.16 0,-1.44 0.36,-2.76 1.08,-3.6 0.72,-0.96 1.56,-1.44 2.76,-1.44 0.48,0 0.96,0.12 1.44,0.36 0.48,0.24 0.84,0.6 1.2,1.08 0.36,0.36 0.6,0.84 0.84,1.44 0.12,0.6 0.24,1.2 0.24,1.92 0,3.6 -1.2,5.4 -3.72,5.4 z m 7.92,-13.32 -4.32,0 0,2.04 c -0.96,-1.68 -2.52,-2.52 -4.68,-2.52 -1.2,0 -2.28,0.24 -3.12,0.72 -0.96,0.48 -1.68,1.08 -2.28,1.92 -0.6,0.84 -1.08,1.8 -1.32,2.88 -0.36,1.08 -0.48,2.16 -0.48,3.36 0,1.32 0.12,2.52 0.48,3.48 0.36,1.08 0.72,2.04 1.32,2.76 0.6,0.72 1.32,1.32 2.16,1.8 0.84,0.48 1.92,0.6 3,0.6 2.04,0 3.6,-0.84 4.8,-2.64 l 0,8.28 4.44,0 0,-22.68 z m 10.08,22.92 c -2.76,-4.56 -4.08,-9.36 -4.08,-14.64 0,-5.28 1.32,-10.2 4.08,-14.88 l -3.12,0 c -0.84,1.2 -1.56,2.28 -2.16,3.36 -0.72,1.2 -1.32,2.28 -1.8,3.48 -0.48,1.2 -0.84,2.4 -1.2,3.72 -0.24,1.2 -0.36,2.64 -0.36,4.2 0,5.28 1.8,10.2 5.52,14.76 l 3.12,0 z m 3.36,0 c 3.6,-5.04 5.52,-10.08 5.52,-14.88 0,-4.8 -1.92,-9.72 -5.64,-14.64 l -3.12,0 c 2.76,4.44 4.2,9.36 4.2,14.64 0,5.28 -1.44,10.32 -4.2,14.88 l 3.24,0" /><g
       id="g2999"
       transform="matrix(0,-0.12,0.12,0,-90,702)"><g
         clip-path="url(#clipPath3003)"
         id="g3001"><path
           id="path3007"
           style="fill:#bd6000;fill-opacity:1;fill-rule:nonzero;stroke:none"
           d="m 1472,713 0,-77 57,0 c 9,0 16,2 20,5 5,3 7,9 7,16 0,8 -2,13 -7,17 -4,3 -11,5 -20,5 l -36,0 0,34 40,0 c 7,0 14,-1 21,-3 7,-2 13,-6 18,-10 5,-5 9,-11 12,-18 3,-7 5,-15 5,-25 0,-10 -2,-19 -5,-26 -3,-7 -7,-13 -12,-18 -5,-4 -11,-8 -18,-10 -7,-2 -14,-3 -21,-3 l -125,0 0,36 37,0 0,77 27,0 z m 30,106 c -11,0 -19,-3 -24,-9 -5,-5 -7,-12 -7,-19 0,-8 3,-14 8,-19 5,-6 13,-9 23,-10 l 0,57 z m 23,-58 c 10,1 18,4 25,9 6,6 9,13 9,22 0,6 -1,11 -4,16 -3,5 -7,8 -11,9 l 0,38 c 14,-4 25,-12 33,-22 7,-11 11,-24 11,-39 0,-46 -25,-69 -75,-69 -22,0 -39,5 -52,17 -13,12 -19,28 -19,50 0,43 27,65 83,65 l 0,-96 z m -11,190 71,48 0,-45 -42,-24 42,-24 0,-44 -71,47 -69,-46 0,45 41,23 -41,24 0,42 69,-46 z m -12,148 c -11,-1 -19,-4 -24,-9 -5,-6 -7,-12 -7,-20 0,-7 3,-14 8,-19 5,-5 13,-8 23,-9 l 0,57 z m 23,-58 c 10,0 18,3 25,9 6,5 9,13 9,22 0,6 -1,11 -4,16 -3,5 -7,8 -11,9 l 0,38 c 14,-4 25,-12 33,-23 7,-11 11,-23 11,-38 0,-47 -25,-70 -75,-70 -22,0 -39,6 -52,18 -13,11 -19,28 -19,49 0,44 27,66 83,66 l 0,-96 z m 60,144 0,-37 -190,0 0,37 190,0 z m -155,147 0,-94 42,0 0,82 33,0 0,-82 80,0 0,-40 -188,0 0,134 33,0 z m 72,100 c -11,0 -19,-3 -24,-9 -5,-6 -7,-12 -7,-19 0,-8 3,-14 8,-20 5,-5 13,-8 23,-9 l 0,57 z m 23,-58 c 10,1 18,4 25,9 6,6 9,13 9,22 0,6 -1,11 -4,16 -3,5 -7,8 -11,9 l 0,38 c 14,-4 25,-12 33,-22 7,-11 11,-24 11,-39 0,-46 -25,-70 -75,-70 -22,0 -39,6 -52,18 -13,12 -19,28 -19,50 0,43 27,65 83,65 l 0,-96 z m -53,220 0,-76 57,0 c 9,0 16,1 20,4 5,4 7,9 7,17 0,7 -2,12 -7,16 -4,3 -11,5 -20,5 l -36,0 0,34 40,0 c 7,0 14,-1 21,-3 7,-2 13,-6 18,-10 5,-5 9,-11 12,-18 3,-7 5,-15 5,-25 0,-10 -2,-19 -5,-26 -3,-7 -7,-13 -12,-17 -5,-5 -11,-8 -18,-11 -7,-2 -14,-3 -21,-3 l -125,0 0,37 37,0 0,76 27,0 z m 23,103 c -7,-1 -13,-4 -17,-8 -4,-5 -6,-11 -6,-18 0,-4 1,-7 2,-11 1,-3 4,-6 7,-9 3,-2 7,-4 12,-6 5,-2 12,-2 20,-2 15,0 26,2 33,8 8,5 11,12 11,19 0,7 -2,13 -6,18 -4,5 -9,8 -17,9 l 0,37 c 8,-1 16,-3 22,-7 7,-3 13,-8 17,-14 5,-6 9,-12 11,-19 3,-8 4,-15 4,-24 0,-9 -1,-18 -5,-26 -3,-8 -7,-14 -14,-20 -6,-6 -14,-10 -23,-13 -9,-3 -20,-5 -33,-5 -12,0 -23,2 -32,5 -9,3 -16,8 -22,13 -6,6 -10,13 -13,21 -3,8 -4,17 -4,26 0,19 4,34 14,45 10,11 23,17 39,18 l 0,-37 z m -31,83 c -7,3 -12,8 -16,16 -4,7 -6,16 -6,25 0,14 4,26 11,35 8,9 19,13 33,13 l 99,0 0,-36 -87,0 c -10,0 -17,-2 -21,-6 -4,-4 -6,-10 -6,-18 0,-9 3,-16 10,-21 7,-5 15,-8 24,-8 l 80,0 0,-37 -190,0 0,37 69,0 z m -71,174 c 38,-23 78,-35 122,-35 44,0 85,12 124,35 l 0,-27 c -10,-6 -19,-12 -28,-18 -10,-5 -19,-10 -29,-14 -10,-4 -20,-7 -31,-10 -10,-2 -22,-4 -35,-4 -44,0 -85,16 -123,46 l 0,27 z m 0,28 c 42,30 84,45 124,45 40,0 81,-15 122,-46 l 0,-26 c -37,23 -78,34 -122,34 -44,0 -86,-11 -124,-34 l 0,27" /></g></g><path
       id="path3009"
       style="fill:#a32a0d;fill-opacity:1;fill-rule:nonzero;stroke:none"
       d="m 229.68,536.64 c -5.4,0 -8.04,-3.36 -8.04,-10.2 0,-6.72 2.64,-10.2 8.04,-10.2 5.4,0 8.04,3.48 8.04,10.2 0,6.72 -2.64,10.2 -8.04,10.2 z m 0,7.44 c 2.64,0 5.04,-0.48 7.08,-1.32 2.16,-0.84 3.84,-1.92 5.4,-3.48 1.44,-1.56 2.52,-3.36 3.36,-5.64 0.72,-2.16 1.2,-4.56 1.2,-7.2 0,-2.64 -0.48,-5.04 -1.32,-7.2 -0.72,-2.16 -1.92,-3.96 -3.36,-5.52 -1.44,-1.56 -3.24,-2.76 -5.28,-3.6 -2.16,-0.84 -4.56,-1.2 -7.08,-1.2 -2.64,0 -5.16,0.36 -7.2,1.32 -2.16,0.84 -3.96,2.04 -5.4,3.48 -1.44,1.56 -2.64,3.48 -3.36,5.64 -0.84,2.16 -1.2,4.56 -1.2,7.08 0,2.64 0.36,5.04 1.2,7.2 0.84,2.16 1.92,3.96 3.48,5.52 1.44,1.56 3.24,2.76 5.28,3.6 2.16,0.84 4.56,1.32 7.2,1.32 z m 49.8,-34.32 -8.4,0 0,4.68 c -2.16,-3.72 -5.64,-5.52 -10.32,-5.52 -1.68,0 -3.12,0.24 -4.56,0.84 -1.32,0.6 -2.52,1.44 -3.6,2.52 -0.96,1.08 -1.8,2.4 -2.28,3.96 -0.6,1.44 -0.84,3.12 -0.84,4.92 l 0,22.08 8.76,0 0,-20.76 c 0,-4.08 1.92,-6.24 5.64,-6.24 2.28,0 3.96,0.72 5.16,2.16 1.2,1.44 1.68,3.24 1.68,5.52 l 0,19.32 8.76,0 0,-33.48 z m 30.6,27.12 -18.36,0 0,-13.8 c 0,-2.04 0.36,-3.72 1.2,-4.8 0.72,-1.2 2.04,-1.8 3.84,-1.8 1.8,0 3.12,0.6 3.84,1.68 0.84,1.2 1.32,2.76 1.32,4.92 l 0,8.64 8.16,0 0,-9.6 c 0,-1.68 -0.24,-3.36 -0.72,-5.04 -0.48,-1.56 -1.32,-3 -2.4,-4.2 -1.08,-1.2 -2.52,-2.28 -4.2,-3 -1.8,-0.72 -3.84,-1.08 -6.12,-1.08 -2.4,0 -4.56,0.36 -6.24,1.08 -1.68,0.72 -3.12,1.8 -4.2,3 -1.08,1.2 -1.92,2.64 -2.4,4.2 -0.48,1.68 -0.84,3.36 -0.84,5.16 l 0,30 8.76,0 0,-9 18.36,0 0,-6.36" /><path
       id="path3011"
       style="fill:#bd5e00;fill-opacity:1;fill-rule:nonzero;stroke:none"
       d="m 117.72,259.92 -9.24,0 0,-6.84 c 0,-1.08 0.24,-1.92 0.6,-2.52 0.36,-0.6 0.96,-0.84 1.92,-0.84 0.84,0 1.56,0.24 1.92,0.84 0.48,0.6 0.6,1.44 0.6,2.4 l 0,4.44 4.2,0 0,-4.8 c 0,-0.96 -0.12,-1.8 -0.48,-2.52 -0.24,-0.84 -0.6,-1.56 -1.2,-2.16 -0.48,-0.6 -1.2,-1.08 -2.04,-1.44 -0.84,-0.36 -1.92,-0.6 -3.12,-0.6 -1.2,0 -2.16,0.24 -3.12,0.6 -0.84,0.36 -1.56,0.84 -2.04,1.44 -0.6,0.6 -0.96,1.32 -1.2,2.16 -0.24,0.72 -0.36,1.56 -0.36,2.52 l 0,15 4.32,0 0,-4.56 9.24,0 0,-3.12 z m 12.72,-3.6 c -0.12,1.2 -0.48,2.16 -1.08,2.76 -0.72,0.6 -1.44,0.96 -2.4,0.96 -0.84,0 -1.68,-0.36 -2.28,-0.96 -0.6,-0.72 -0.96,-1.56 -1.08,-2.76 l 6.84,0 z m -6.96,-2.76 c 0,-1.2 0.36,-2.28 1.08,-3 0.6,-0.72 1.56,-1.2 2.64,-1.2 0.72,0 1.32,0.24 1.92,0.6 0.6,0.36 0.96,0.72 1.08,1.32 l 4.56,0 c -0.48,-1.68 -1.44,-3 -2.76,-3.96 -1.32,-0.96 -2.76,-1.44 -4.56,-1.44 -5.64,0 -8.4,3.12 -8.4,9.12 0,2.64 0.72,4.68 2.16,6.24 1.32,1.56 3.36,2.28 5.88,2.28 5.28,0 7.92,-3.36 7.92,-9.96 l -11.52,0 z m 22.8,1.32 5.76,-8.52 -5.4,0 -3,5.04 -2.88,-5.04 -5.16,0 5.52,8.52 -5.4,8.16 5.28,0 2.88,-4.8 2.76,4.8 5.16,0 -5.52,-8.16 z m 20.28,5.04 -9.24,0 0,-6.84 c 0,-1.08 0.24,-1.92 0.6,-2.52 0.36,-0.6 1.08,-0.84 1.92,-0.84 0.84,0 1.56,0.24 1.92,0.84 0.48,0.6 0.72,1.44 0.72,2.4 l 0,4.44 4.08,0 0,-4.8 c 0,-0.96 -0.12,-1.8 -0.36,-2.52 -0.24,-0.84 -0.72,-1.56 -1.32,-2.16 -0.48,-0.6 -1.2,-1.08 -2.04,-1.44 -0.84,-0.36 -1.92,-0.6 -3,-0.6 -1.2,0 -2.28,0.24 -3.12,0.6 -0.84,0.36 -1.56,0.84 -2.16,1.44 -0.6,0.6 -0.96,1.32 -1.2,2.16 -0.24,0.72 -0.36,1.56 -0.36,2.52 l 0,15 4.32,0 0,-4.56 9.24,0 0,-3.12 z m 16.8,-13.56 -4.2,0 0,2.4 c -1.08,-1.92 -2.88,-2.88 -5.16,-2.88 -0.84,0 -1.68,0.24 -2.28,0.48 -0.72,0.24 -1.32,0.72 -1.8,1.32 -0.48,0.48 -0.96,1.2 -1.2,1.92 -0.24,0.72 -0.48,1.56 -0.48,2.52 l 0,10.92 4.44,0 0,-10.32 c 0,-2.04 0.96,-3.12 2.88,-3.12 1.08,0 1.92,0.36 2.52,1.08 0.6,0.72 0.84,1.68 0.84,2.76 l 0,9.6 4.44,0 0,-16.68 z m 11.4,12.6 c -0.48,0.12 -0.84,0.12 -1.2,0.12 -2.76,0 -4.08,-1.32 -4.08,-4.08 l 0,-8.64 -4.44,0 0,16.68 4.2,0 0,-2.04 c 0.36,0.6 0.72,1.08 1.08,1.32 0.36,0.36 0.84,0.6 1.2,0.84 0.48,0.12 0.84,0.24 1.32,0.24 0.48,0 0.84,0.12 1.32,0.12 l 0.6,0 0,-4.56 z m 12,-2.64 c 0,1.2 -0.36,2.16 -1.08,2.76 -0.72,0.6 -1.44,0.96 -2.28,0.96 -0.96,0 -1.68,-0.36 -2.4,-0.96 -0.6,-0.72 -0.96,-1.56 -1.08,-2.76 l 6.84,0 z m -6.96,-2.76 c 0.12,-1.2 0.48,-2.28 1.08,-3 0.72,-0.72 1.56,-1.2 2.64,-1.2 0.72,0 1.32,0.24 1.92,0.6 0.6,0.36 0.96,0.72 1.08,1.32 l 4.56,0 c -0.48,-1.68 -1.44,-3 -2.76,-3.96 -1.32,-0.96 -2.76,-1.44 -4.56,-1.44 -5.52,0 -8.4,3.12 -8.4,9.12 0,2.64 0.72,4.68 2.16,6.24 1.32,1.56 3.36,2.28 5.88,2.28 5.28,0 7.92,-3.36 7.92,-9.96 l -11.52,0 z m 21.24,15.84 c -2.76,-4.56 -4.2,-9.48 -4.2,-14.64 0,-5.28 1.44,-10.32 4.2,-15 l -3.24,0 c -0.72,1.2 -1.44,2.4 -2.16,3.48 -0.6,1.08 -1.2,2.28 -1.68,3.36 -0.48,1.2 -0.96,2.4 -1.2,3.72 -0.24,1.32 -0.48,2.64 -0.48,4.2 0,5.28 1.92,10.2 5.52,14.88 l 3.24,0 z m 3.24,0 c 3.72,-5.16 5.52,-10.08 5.52,-14.88 0,-4.8 -1.8,-9.72 -5.52,-14.76 l -3.12,0 c 2.76,4.44 4.08,9.36 4.08,14.64 0,5.4 -1.32,10.32 -4.08,15 l 3.12,0" /><path
       id="path3013"
       style="fill:#520303;fill-opacity:1;fill-rule:nonzero;stroke:none"
       d="m 28.08,321.84 c -2.52,0 -3.72,-1.68 -3.72,-5.04 0,-1.56 0.36,-2.64 1.08,-3.6 0.72,-0.84 1.56,-1.32 2.64,-1.32 1.08,0 2.04,0.48 2.76,1.32 0.72,0.84 0.96,1.92 0.96,3.36 0,3.48 -1.2,5.28 -3.72,5.28 z m 8.04,-13.44 c 0,-1.2 -0.24,-2.4 -0.6,-3.36 -0.48,-0.96 -1.08,-1.8 -1.8,-2.4 -0.72,-0.6 -1.68,-1.2 -2.64,-1.44 -0.96,-0.36 -2.16,-0.48 -3.24,-0.48 -1.2,0 -2.28,0.12 -3.24,0.36 -0.96,0.36 -1.8,0.84 -2.52,1.44 -0.72,0.6 -1.32,1.32 -1.68,2.28 -0.48,0.84 -0.6,1.8 -0.6,2.88 l 4.08,0 c 0,-1.08 0.36,-1.8 0.96,-2.4 0.72,-0.48 1.56,-0.84 2.64,-0.84 1.2,0 2.16,0.36 3,0.96 0.84,0.72 1.2,1.56 1.2,2.64 l 0,2.76 c -0.24,-0.72 -0.84,-1.32 -1.68,-1.8 -0.84,-0.36 -1.8,-0.6 -2.88,-0.6 -1.32,0 -2.52,0.24 -3.48,0.72 -0.96,0.48 -1.68,1.2 -2.28,1.92 -0.6,0.84 -0.96,1.8 -1.2,2.76 -0.24,1.08 -0.36,2.16 -0.36,3.24 0,1.32 0.12,2.52 0.48,3.48 0.36,1.08 0.96,2.04 1.56,2.76 0.72,0.84 1.44,1.44 2.4,1.8 0.84,0.48 1.8,0.6 2.76,0.6 2.04,0 3.6,-0.84 4.68,-2.52 l 0,2.16 4.44,0 0,-16.92 z m 6.12,0.12 -4.32,0 0,22.8 4.32,0 0,-22.8 z m 10.08,6.84 -8.76,0 0,4.08 8.76,0 0,-4.08 z m 6.48,-2.64 11.16,0 0,-4.2 -15.84,0 0,22.56 4.68,0 0,-18.36 z m 22.32,4.08 c -0.48,-0.36 -1.2,-0.72 -2.28,-0.96 -1.56,-0.24 -2.52,-0.6 -3.12,-1.08 C 75.24,314.4 75,313.8 75,313.2 c 0,-1.32 0.6,-1.92 1.92,-1.92 0.6,0 1.08,0.12 1.68,0.24 0.48,0.12 0.96,0.36 1.32,0.72 0.36,0.36 0.72,0.72 0.96,1.2 0.24,0.48 0.36,1.08 0.36,1.68 0,0.24 0,0.48 0,0.84 0,0.36 -0.12,0.6 -0.12,0.84 z m -2.64,8.88 c 2.28,0 4.08,-0.48 5.28,-1.68 1.2,-1.08 1.8,-2.76 1.8,-4.92 l 0,-10.56 -4.08,0 c -0.12,0.24 -0.12,0.48 -0.24,0.72 0,0.24 0,0.36 -0.12,0.72 -0.48,-0.6 -1.2,-0.96 -2.04,-1.32 -0.84,-0.24 -1.8,-0.36 -3,-0.36 -1.68,0 -3,0.36 -3.96,1.2 -1.08,0.84 -1.56,2.04 -1.56,3.48 0,1.08 0.12,2.04 0.6,2.76 0.36,0.6 0.84,1.2 1.56,1.56 0.72,0.36 1.44,0.72 2.4,0.84 0.96,0.24 2.04,0.36 3.12,0.6 0.84,0.12 1.56,0.24 2.04,0.6 0.48,0.24 0.72,0.6 0.72,1.08 0,0.6 -0.24,1.08 -0.84,1.44 -0.6,0.36 -1.2,0.48 -1.92,0.48 -0.84,0 -1.44,-0.24 -2.04,-0.72 -0.48,-0.48 -0.84,-1.08 -0.84,-1.8 l -4.32,0 c 0.24,1.92 0.84,3.36 1.92,4.32 1.2,1.08 3,1.56 5.52,1.56 z m 23.88,-17.52 c 0,-1.2 -0.24,-2.28 -0.6,-3.12 -0.36,-0.96 -0.96,-1.8 -1.68,-2.4 -0.72,-0.6 -1.44,-1.2 -2.4,-1.44 -0.96,-0.36 -1.92,-0.48 -3,-0.48 -2.52,0 -4.32,0.6 -5.52,1.8 -1.2,1.2 -1.92,2.88 -1.92,5.16 l 4.2,0 c 0,-1.08 0.24,-1.8 0.84,-2.4 0.6,-0.48 1.44,-0.84 2.64,-0.84 0.36,0 0.72,0.12 1.08,0.24 0.36,0.24 0.72,0.48 0.96,0.72 0.24,0.36 0.48,0.72 0.72,1.2 0.12,0.36 0.24,0.84 0.24,1.44 l 0,2.76 c -0.36,-0.72 -0.96,-1.32 -1.68,-1.8 -0.84,-0.36 -1.8,-0.6 -2.88,-0.6 -0.84,0 -1.68,0.12 -2.4,0.36 -0.72,0.36 -1.44,0.72 -1.92,1.32 -0.6,0.48 -0.96,1.08 -1.32,1.92 -0.24,0.72 -0.48,1.56 -0.48,2.4 l 0,10.92 4.44,0 0,-10.2 c 0,-2.04 0.96,-3.12 2.88,-3.12 0.96,0 1.8,0.24 2.4,0.84 0.6,0.6 0.96,1.32 0.96,2.28 l 0,10.2 4.44,0 0,-17.16 z m 12.72,10.32 c -0.12,1.32 -0.48,2.28 -1.08,2.88 -0.72,0.6 -1.44,0.84 -2.4,0.84 -0.84,0 -1.68,-0.36 -2.28,-0.96 -0.6,-0.6 -0.96,-1.56 -1.08,-2.76 l 6.84,0 z m -6.96,-2.76 c 0,-1.2 0.36,-2.16 1.08,-3 0.6,-0.72 1.56,-1.08 2.64,-1.08 0.72,0 1.32,0.12 1.92,0.48 0.6,0.36 0.96,0.84 1.08,1.32 l 4.56,0 c -0.48,-1.68 -1.44,-3 -2.76,-3.96 -1.32,-0.84 -2.76,-1.32 -4.56,-1.32 -5.64,0 -8.4,3 -8.4,9 0,2.64 0.72,4.68 2.16,6.24 1.32,1.56 3.36,2.28 5.88,2.28 5.28,0 7.92,-3.24 7.92,-9.96 l -11.52,0 z m 22.56,5.4 c -0.48,0.12 -0.84,0.12 -1.32,0.12 -2.64,0 -3.96,-1.32 -3.96,-3.96 l 0,-8.76 -4.44,0 0,16.8 4.08,0 0,-2.04 c 0.36,0.6 0.84,0.96 1.2,1.32 0.36,0.36 0.72,0.6 1.2,0.72 0.36,0.12 0.84,0.24 1.32,0.36 0.36,0 0.84,0 1.32,0 l 0.6,0 0,-4.56" /><path
       id="path3015"
       style="fill:#52030e;fill-opacity:1;fill-rule:nonzero;stroke:none"
       d="m 454.44,337.2 -8.76,0 0,33.36 8.76,0 0,-33.36 z m 0,37.32 -8.76,0 0,8.28 8.76,0 0,-8.28 z m 11.76,-8.76 c 0.96,1.8 2.4,3.24 4.08,4.2 1.8,1.08 3.96,1.56 6.6,1.56 1.68,0 3.12,-0.24 4.44,-0.72 1.32,-0.48 2.52,-1.2 3.48,-2.16 0.96,-0.96 1.8,-2.04 2.4,-3.48 0.48,-1.44 0.84,-3 0.84,-4.8 l 0,-23.16 -8.88,0 0,20.28 c 0,2.52 -0.48,4.32 -1.32,5.16 -0.84,0.96 -2.28,1.44 -4.44,1.44 -4.56,0 -6.84,-2.64 -6.84,-7.8 l 0,-19.08 -8.76,0 0,33.36 8.4,0 0,-4.8" /><path
       id="path3017"
       style="fill:#bd5200;fill-opacity:1;fill-rule:nonzero;stroke:none"
       d="m 344.04,415.44 c -0.48,0 -0.72,-0.36 -0.72,-0.96 0,-0.36 0,-0.6 0.12,-0.72 0.12,-0.24 0.36,-0.24 0.6,-0.24 0.24,0 0.36,0 0.48,0.24 0.12,0.12 0.24,0.36 0.24,0.6 0,0.72 -0.24,1.08 -0.72,1.08 z m 1.56,-2.64 c 0,-0.24 0,-0.48 -0.12,-0.72 -0.12,-0.12 -0.12,-0.36 -0.36,-0.48 -0.12,-0.12 -0.24,-0.24 -0.48,-0.24 -0.24,-0.12 -0.48,-0.12 -0.72,-0.12 -0.24,0 -0.36,0 -0.6,0.12 -0.24,0 -0.36,0.12 -0.48,0.24 -0.12,0.12 -0.24,0.24 -0.36,0.48 -0.12,0.12 -0.12,0.36 -0.12,0.6 l 0.84,0 c 0,-0.24 0,-0.48 0.12,-0.48 0.12,-0.12 0.36,-0.24 0.6,-0.24 0.24,0 0.48,0.12 0.6,0.24 0.12,0.12 0.24,0.24 0.24,0.48 l 0,0.6 c -0.12,-0.12 -0.24,-0.24 -0.36,-0.36 -0.12,-0.12 -0.36,-0.12 -0.6,-0.12 -0.24,0 -0.48,0 -0.6,0.12 -0.24,0.12 -0.36,0.24 -0.48,0.36 -0.12,0.12 -0.24,0.36 -0.24,0.6 -0.12,0.24 -0.12,0.36 -0.12,0.6 0,0.24 0,0.48 0.12,0.72 0.12,0.24 0.12,0.36 0.36,0.6 0.12,0.12 0.24,0.24 0.36,0.36 0.24,0 0.36,0.12 0.6,0.12 0.48,0 0.72,-0.24 0.96,-0.6 l 0,0.48 0.84,0 0,-3.36 z m 1.32,0 -0.96,0 0,4.56 0.96,0 0,-4.56 z m 1.92,1.32 -1.68,0 0,0.84 1.68,0 0,-0.84 z m 3.36,1.68 c 0,0.24 -0.12,0.48 -0.36,0.6 -0.12,0.12 -0.36,0.24 -0.6,0.24 -0.12,0 -0.36,0 -0.48,-0.12 -0.12,-0.12 -0.24,-0.24 -0.36,-0.36 -0.12,-0.12 -0.12,-0.24 -0.24,-0.48 0,-0.24 0,-0.36 0,-0.6 0,-0.24 0,-0.48 0,-0.6 0.12,-0.24 0.12,-0.36 0.24,-0.6 0.12,-0.12 0.24,-0.24 0.36,-0.24 0.12,-0.12 0.24,-0.12 0.48,-0.12 0.24,0 0.48,0 0.6,0.12 0.24,0.24 0.36,0.48 0.36,0.72 l 0.96,0 c 0,-0.24 -0.12,-0.48 -0.24,-0.72 -0.12,-0.24 -0.24,-0.36 -0.36,-0.48 -0.12,-0.12 -0.36,-0.36 -0.6,-0.36 -0.24,-0.12 -0.48,-0.12 -0.72,-0.12 -0.24,0 -0.6,0 -0.84,0.12 -0.24,0.12 -0.48,0.24 -0.6,0.48 -0.24,0.12 -0.36,0.36 -0.48,0.72 -0.12,0.24 -0.12,0.6 -0.12,0.96 0,0.36 0,0.72 0.12,1.08 0.12,0.24 0.24,0.6 0.36,0.72 0.24,0.24 0.48,0.36 0.72,0.48 0.24,0.12 0.6,0.24 0.84,0.24 0.24,0 0.6,-0.12 0.84,-0.12 0.24,-0.12 0.36,-0.24 0.48,-0.36 0.24,-0.12 0.36,-0.36 0.48,-0.48 0.12,-0.24 0.12,-0.48 0.12,-0.72 l -0.96,0 z m 2.04,-3 -0.84,0 0,4.56 0.84,0 0,-4.56 z m 1.2,0 -0.84,0 0,3.36 0.84,0 0,-3.36 z m 0,3.72 -0.84,0 0,0.84 0.84,0 0,-0.84 z m 1.92,-1.08 c -0.48,0 -0.72,-0.36 -0.72,-1.08 0,-0.24 0.12,-0.48 0.24,-0.6 0.12,-0.24 0.24,-0.36 0.48,-0.36 0.24,0 0.48,0.12 0.6,0.36 0.12,0.12 0.12,0.36 0.12,0.72 0,0.72 -0.24,0.96 -0.72,0.96 z m -0.72,0.72 0,-0.48 c 0.12,0.24 0.24,0.36 0.36,0.48 0.12,0 0.36,0.12 0.6,0.12 0.24,0 0.48,-0.12 0.6,-0.24 0.24,-0.12 0.36,-0.24 0.48,-0.36 0.12,-0.12 0.24,-0.36 0.24,-0.6 0.12,-0.24 0.12,-0.36 0.12,-0.6 0,-0.24 0,-0.48 -0.12,-0.72 0,-0.24 -0.12,-0.36 -0.24,-0.6 -0.12,-0.12 -0.24,-0.24 -0.48,-0.36 -0.12,0 -0.36,-0.12 -0.48,-0.12 -0.24,0 -0.48,0.12 -0.6,0.12 -0.24,0.12 -0.36,0.24 -0.48,0.48 l 0,-2.04 -0.84,0 0,4.92 0.84,0 z m 3.6,-2.64 0.72,0 c 0.48,0 0.72,0.24 0.96,0.48 0.12,0.24 0.24,0.6 0.24,1.08 0,0.48 -0.12,0.84 -0.24,1.08 -0.24,0.24 -0.6,0.36 -0.96,0.36 l -0.72,0 0,-3 z m 0.84,3.84 c 0.24,0 0.6,-0.12 0.84,-0.24 0.24,-0.12 0.48,-0.24 0.6,-0.36 0.24,-0.24 0.36,-0.48 0.48,-0.72 0.12,-0.24 0.12,-0.6 0.12,-0.96 0,-0.36 0,-0.6 -0.12,-0.96 -0.12,-0.24 -0.24,-0.48 -0.36,-0.72 -0.24,-0.12 -0.36,-0.36 -0.6,-0.48 -0.24,-0.12 -0.6,-0.12 -0.84,-0.12 l -1.92,0 0,4.56 1.8,0 z m 3.24,-4.56 -0.96,0 0,3.36 0.96,0 0,-3.36 z m 0,3.72 -0.96,0 0,0.84 0.96,0 0,-0.84 z m 2.28,-1.44 c 0,0.36 -0.24,0.48 -0.6,0.48 -0.12,0 -0.24,0 -0.36,-0.12 -0.12,0 -0.12,-0.12 -0.12,-0.24 0,-0.12 0.12,-0.24 0.48,-0.24 0.48,-0.12 0.84,-0.24 1.08,-0.36 0.36,-0.12 0.48,-0.36 0.48,-0.72 0,-0.36 -0.12,-0.72 -0.36,-0.84 -0.36,-0.24 -0.72,-0.36 -1.08,-0.36 -0.24,0 -0.48,0 -0.6,0.12 -0.24,0 -0.36,0.12 -0.6,0.24 -0.12,0.12 -0.24,0.24 -0.24,0.36 -0.12,0.12 -0.24,0.24 -0.24,0.48 l 0.96,0 c 0,-0.12 0.12,-0.24 0.24,-0.36 0.12,-0.12 0.24,-0.12 0.48,-0.12 0.12,0 0.24,0 0.36,0.12 0.12,0 0.24,0.12 0.24,0.24 l -0.12,0.12 c -0.12,0.12 -0.24,0.12 -0.48,0.12 -0.48,0.12 -0.84,0.24 -0.96,0.36 -0.36,0.12 -0.6,0.36 -0.6,0.72 0,0.12 0.12,0.36 0.12,0.48 0.12,0.12 0.12,0.24 0.24,0.36 0.12,0.12 0.36,0.12 0.48,0.24 0.24,0.12 0.36,0.12 0.6,0.12 0.24,0 0.48,0 0.6,-0.12 0.12,0 0.36,-0.12 0.48,-0.24 0.12,-0.12 0.24,-0.24 0.24,-0.36 0.12,-0.12 0.12,-0.24 0.12,-0.48 l -0.84,0 z m 3.84,0.48 -1.8,0 0,-1.44 c 0,-0.24 0,-0.36 0.12,-0.48 0.12,-0.12 0.24,-0.12 0.36,-0.12 0.24,0 0.36,0 0.48,0.12 0,0.12 0.12,0.24 0.12,0.48 l 0,0.84 0.72,0 0,-0.96 c 0,-0.12 0,-0.36 0,-0.48 -0.12,-0.12 -0.12,-0.24 -0.24,-0.36 -0.12,-0.12 -0.24,-0.24 -0.48,-0.36 -0.12,0 -0.36,-0.12 -0.6,-0.12 -0.24,0 -0.48,0.12 -0.6,0.12 -0.12,0.12 -0.36,0.24 -0.48,0.36 -0.12,0.12 -0.12,0.24 -0.24,0.36 0,0.12 0,0.36 0,0.48 l 0,3 0.84,0 0,-0.84 1.8,0 0,-0.6 z m 2.4,-1.08 c -0.12,-0.12 -0.24,-0.12 -0.48,-0.24 -0.24,0 -0.48,-0.12 -0.6,-0.24 -0.12,0 -0.12,-0.12 -0.12,-0.24 0,-0.24 0.12,-0.36 0.36,-0.36 0.12,0 0.24,0 0.36,0 0.12,0 0.24,0.12 0.24,0.12 0.12,0.12 0.12,0.12 0.24,0.24 0,0.12 0,0.24 0,0.36 l 0,0.12 c 0,0.12 0,0.12 0,0.24 z m -0.48,1.8 c 0.48,0 0.84,-0.12 1.08,-0.36 0.24,-0.24 0.36,-0.6 0.36,-0.96 l 0,-2.16 -0.84,0 c 0,0 0,0.12 -0.12,0.12 l 0,0.12 c -0.12,-0.12 -0.24,-0.12 -0.36,-0.24 -0.24,0 -0.36,-0.12 -0.6,-0.12 -0.36,0 -0.6,0.12 -0.84,0.36 -0.24,0.12 -0.24,0.36 -0.24,0.6 0,0.24 0,0.48 0.12,0.6 0,0.12 0.12,0.24 0.24,0.36 0.12,0 0.36,0.12 0.48,0.12 0.24,0 0.48,0.12 0.6,0.12 0.24,0 0.36,0 0.48,0.12 0.12,0 0.12,0.12 0.12,0.24 0,0.12 0,0.24 -0.12,0.24 -0.12,0.12 -0.24,0.12 -0.48,0.12 -0.12,0 -0.24,0 -0.36,-0.12 -0.12,-0.12 -0.12,-0.24 -0.12,-0.36 l -0.96,0 c 0.12,0.36 0.24,0.6 0.48,0.84 0.24,0.24 0.6,0.36 1.08,0.36 z m 2.64,-0.6 c 0.12,0.12 0.24,0.36 0.36,0.36 0.12,0.12 0.36,0.24 0.6,0.24 0.24,0 0.36,-0.12 0.48,-0.12 0.12,0 0.24,-0.12 0.36,-0.24 0.12,-0.12 0.24,-0.24 0.24,-0.36 0,-0.12 0.12,-0.24 0.12,-0.48 l 0,-2.28 -0.96,0 0,2.04 c 0,0.24 0,0.48 -0.12,0.48 -0.12,0.12 -0.24,0.12 -0.36,0.12 -0.48,0 -0.72,-0.24 -0.72,-0.72 l 0,-1.92 -0.96,0 0,3.36 0.96,0 0,-0.48 z m 4.56,-0.72 c 0,0.12 0,0.24 -0.12,0.36 -0.12,0.12 -0.36,0.24 -0.48,0.24 -0.12,0 -0.12,-0.12 -0.24,-0.12 -0.12,0 -0.12,-0.12 -0.24,-0.12 0,-0.12 -0.12,-0.24 -0.12,-0.36 0,-0.12 -0.12,-0.24 -0.12,-0.48 0,-0.36 0.12,-0.6 0.24,-0.72 0.12,-0.24 0.24,-0.36 0.48,-0.36 0.12,0 0.24,0.12 0.36,0.24 0.12,0.12 0.24,0.24 0.24,0.36 l 0.96,0 c 0,-0.24 -0.12,-0.36 -0.24,-0.48 -0.12,-0.24 -0.12,-0.36 -0.36,-0.48 -0.12,-0.12 -0.24,-0.12 -0.36,-0.24 -0.24,0 -0.36,-0.12 -0.6,-0.12 -0.24,0 -0.48,0.12 -0.6,0.12 -0.24,0.12 -0.36,0.24 -0.48,0.36 -0.12,0.12 -0.24,0.36 -0.36,0.6 -0.12,0.24 -0.12,0.48 -0.12,0.72 0,0.36 0,0.6 0.12,0.84 0.12,0.24 0.24,0.36 0.36,0.48 0.12,0.12 0.24,0.24 0.48,0.36 0.12,0 0.36,0.12 0.6,0.12 0.48,0 0.84,-0.12 1.08,-0.36 0.24,-0.24 0.36,-0.6 0.48,-0.96 l -0.96,0 z m 3.36,-0.12 c 0,0.24 -0.12,0.36 -0.24,0.48 -0.12,0.12 -0.24,0.24 -0.48,0.24 -0.12,0 -0.36,-0.12 -0.48,-0.24 -0.12,-0.12 -0.12,-0.24 -0.24,-0.48 l 1.44,0 z m -1.44,-0.6 c 0,-0.24 0.12,-0.48 0.24,-0.6 0.12,-0.12 0.36,-0.24 0.48,-0.24 0.12,0 0.36,0 0.48,0.12 0.12,0.12 0.12,0.12 0.12,0.24 l 0.96,0 c -0.12,-0.36 -0.24,-0.6 -0.48,-0.72 -0.24,-0.24 -0.6,-0.36 -0.96,-0.36 -1.08,0 -1.68,0.6 -1.68,1.8 0,0.6 0.12,0.96 0.36,1.32 0.36,0.24 0.72,0.48 1.2,0.48 1.08,0 1.56,-0.72 1.56,-2.04 l -2.28,0 z m 4.2,2.52 -0.84,0 0,-4.56 0.84,0 0,-0.6 -1.56,0 0,5.76 1.56,0 0,-0.6 z m 1.56,-5.16 -1.56,0 0,0.6 0.84,0 0,4.56 -0.84,0 0,0.6 1.56,0 0,-5.76" /></g></svg>
