<?xml version="1.0" encoding="UTF-8" standalone="no"?>
<!DOCTYPE svg PUBLIC "-//W3C//DTD SVG 1.1//EN"
 "http://www.w3.org/Graphics/SVG/1.1/DTD/svg11.dtd">
<!-- Generated by graphviz version 2.26.0 (20091210.2329)
 -->
<!-- Title: Pipeline1 Pages: 1 -->
<svg width="62pt" height="260pt"
 viewBox="0.00 0.00 62.00 260.00" xmlns="http://www.w3.org/2000/svg" xmlns:xlink="http://www.w3.org/1999/xlink">
<g id="graph1" class="graph" transform="scale(1 1) rotate(0) translate(4 256)">
<title>Pipeline1</title>
<polygon fill="white" stroke="white" points="-4,5 -4,-256 59,-256 59,5 -4,5"/>
<!-- VS -->
<g id="node1" class="node"><title>VS</title>
<polygon fill="#bcd5b0" stroke="#bcd5b0" points="42,-252 12,-252 1.42109e-14,-240 7.10543e-15,-228 12,-216 42,-216 54,-228 54,-240 42,-252"/>
<path fill="#bcd5b0" stroke="#bcd5b0" d="M12,-252C6,-252 1.77636e-14,-246 1.42109e-14,-240"/>
<path fill="#bcd5b0" stroke="#bcd5b0" d="M7.10543e-15,-228C3.55271e-15,-222 6,-216 12,-216"/>
<path fill="#bcd5b0" stroke="#bcd5b0" d="M42,-216C48,-216 54,-222 54,-228"/>
<path fill="#bcd5b0" stroke="#bcd5b0" d="M54,-240C54,-246 48,-252 42,-252"/>
<polyline fill="none" stroke="black" points="42,-252 12,-252 "/>
<path fill="none" stroke="black" d="M12,-252C6,-252 1.77636e-14,-246 1.42109e-14,-240"/>
<polyline fill="none" stroke="black" points="1.42109e-14,-240 7.10543e-15,-228 "/>
<path fill="none" stroke="black" d="M7.10543e-15,-228C3.55271e-15,-222 6,-216 12,-216"/>
<polyline fill="none" stroke="black" points="12,-216 42,-216 "/>
<path fill="none" stroke="black" d="M42,-216C48,-216 54,-222 54,-228"/>
<polyline fill="none" stroke="black" points="54,-228 54,-240 "/>
<path fill="none" stroke="black" d="M54,-240C54,-246 48,-252 42,-252"/>
<text text-anchor="middle" x="27" y="-230.9" font-family="Helvetica,sans-Serif" font-size="14.00" fill="#000000">VS</text>
</g>
<!-- Rast -->
<g id="node3" class="node"><title>Rast</title>
<polygon fill="#dc8888" stroke="black" points="54,-180 2.13163e-14,-180 0,-144 54,-144 54,-180"/>
<text text-anchor="middle" x="27" y="-158.9" font-family="Helvetica,sans-Serif" font-size="14.00" fill="#000000">Rast</text>
</g>
<!-- VS&#45;&gt;Rast -->
<g id="edge2" class="edge"><title>VS&#45;&gt;Rast</title>
<path fill="none" stroke="#000000" d="M27,-215.831C27,-208.131 27,-198.974 27,-190.417"/>
<polygon fill="#000000" stroke="#000000" points="30.5001,-190.413 27,-180.413 23.5001,-190.413 30.5001,-190.413"/>
</g>
<!-- FS -->
<g id="node2" class="node"><title>FS</title>
<polygon fill="#bcd5b0" stroke="#bcd5b0" points="42,-108 12,-108 1.42109e-14,-96 7.10543e-15,-84 12,-72 42,-72 54,-84 54,-96 42,-108"/>
<path fill="#bcd5b0" stroke="#bcd5b0" d="M12,-108C6,-108 1.77636e-14,-102 1.42109e-14,-96"/>
<path fill="#bcd5b0" stroke="#bcd5b0" d="M7.10543e-15,-84C3.55271e-15,-78 6,-72 12,-72"/>
<path fill="#bcd5b0" stroke="#bcd5b0" d="M42,-72C48,-72 54,-78 54,-84"/>
<path fill="#bcd5b0" stroke="#bcd5b0" d="M54,-96C54,-102 48,-108 42,-108"/>
<polyline fill="none" stroke="black" points="42,-108 12,-108 "/>
<path fill="none" stroke="black" d="M12,-108C6,-108 1.77636e-14,-102 1.42109e-14,-96"/>
<polyline fill="none" stroke="black" points="1.42109e-14,-96 7.10543e-15,-84 "/>
<path fill="none" stroke="black" d="M7.10543e-15,-84C3.55271e-15,-78 6,-72 12,-72"/>
<polyline fill="none" stroke="black" points="12,-72 42,-72 "/>
<path fill="none" stroke="black" d="M42,-72C48,-72 54,-78 54,-84"/>
<polyline fill="none" stroke="black" points="54,-84 54,-96 "/>
<path fill="none" stroke="black" d="M54,-96C54,-102 48,-108 42,-108"/>
<text text-anchor="middle" x="27" y="-86.9" font-family="Helvetica,sans-Serif" font-size="14.00" fill="#000000">FS</text>
</g>
<!-- Blend -->
<g id="node4" class="node"><title>Blend</title>
<polygon fill="#dc8888" stroke="black" points="54,-36 2.13163e-14,-36 0,-1.77636e-14 54,-3.55271e-15 54,-36"/>
<text text-anchor="middle" x="27" y="-14.9" font-family="Helvetica,sans-Serif" font-size="14.00" fill="#000000">Blend</text>
</g>
<!-- FS&#45;&gt;Blend -->
<g id="edge6" class="edge"><title>FS&#45;&gt;Blend</title>
<path fill="none" stroke="#000000" d="M27,-71.8314C27,-64.131 27,-54.9743 27,-46.4166"/>
<polygon fill="#000000" stroke="#000000" points="30.5001,-46.4132 27,-36.4133 23.5001,-46.4133 30.5001,-46.4132"/>
</g>
<!-- Rast&#45;&gt;FS -->
<g id="edge4" class="edge"><title>Rast&#45;&gt;FS</title>
<path fill="none" stroke="#000000" d="M27,-143.831C27,-136.131 27,-126.974 27,-118.417"/>
<polygon fill="#000000" stroke="#000000" points="30.5001,-118.413 27,-108.413 23.5001,-118.413 30.5001,-118.413"/>
</g>
</g>
</svg>
