<?xml version="1.0" encoding="UTF-8" standalone="no"?>
<!DOCTYPE svg PUBLIC "-//W3C//DTD SVG 1.1//EN"
 "http://www.w3.org/Graphics/SVG/1.1/DTD/svg11.dtd">
<!-- Generated by graphviz version 2.26.0 (20091210.2329)
 -->
<!-- Title: Pipeline3 Pages: 1 -->
<svg width="62pt" height="548pt"
 viewBox="0.00 0.00 62.00 548.00" xmlns="http://www.w3.org/2000/svg" xmlns:xlink="http://www.w3.org/1999/xlink">
<g id="graph1" class="graph" transform="scale(1 1) rotate(0) translate(4 544)">
<title>Pipeline3</title>
<polygon fill="white" stroke="white" points="-4,5 -4,-544 59,-544 59,5 -4,5"/>
<!-- VS -->
<g id="node1" class="node"><title>VS</title>
<polygon fill="#bcd5b0" stroke="#bcd5b0" points="42,-540 12,-540 1.42109e-14,-528 7.10543e-15,-516 12,-504 42,-504 54,-516 54,-528 42,-540"/>
<path fill="#bcd5b0" stroke="#bcd5b0" d="M12,-540C6,-540 1.77636e-14,-534 1.42109e-14,-528"/>
<path fill="#bcd5b0" stroke="#bcd5b0" d="M7.10543e-15,-516C3.55271e-15,-510 6,-504 12,-504"/>
<path fill="#bcd5b0" stroke="#bcd5b0" d="M42,-504C48,-504 54,-510 54,-516"/>
<path fill="#bcd5b0" stroke="#bcd5b0" d="M54,-528C54,-534 48,-540 42,-540"/>
<polyline fill="none" stroke="black" points="42,-540 12,-540 "/>
<path fill="none" stroke="black" d="M12,-540C6,-540 1.77636e-14,-534 1.42109e-14,-528"/>
<polyline fill="none" stroke="black" points="1.42109e-14,-528 7.10543e-15,-516 "/>
<path fill="none" stroke="black" d="M7.10543e-15,-516C3.55271e-15,-510 6,-504 12,-504"/>
<polyline fill="none" stroke="black" points="12,-504 42,-504 "/>
<path fill="none" stroke="black" d="M42,-504C48,-504 54,-510 54,-516"/>
<polyline fill="none" stroke="black" points="54,-516 54,-528 "/>
<path fill="none" stroke="black" d="M54,-528C54,-534 48,-540 42,-540"/>
<text text-anchor="middle" x="27" y="-518.9" font-family="Times Roman,serif" font-size="14.00" fill="#000000">VS</text>
</g>
<!-- TCS -->
<g id="node4" class="node"><title>TCS</title>
<polygon fill="#bcd5b0" stroke="#bcd5b0" points="42,-468 12,-468 1.42109e-14,-456 7.10543e-15,-444 12,-432 42,-432 54,-444 54,-456 42,-468"/>
<path fill="#bcd5b0" stroke="#bcd5b0" d="M12,-468C6,-468 1.77636e-14,-462 1.42109e-14,-456"/>
<path fill="#bcd5b0" stroke="#bcd5b0" d="M7.10543e-15,-444C3.55271e-15,-438 6,-432 12,-432"/>
<path fill="#bcd5b0" stroke="#bcd5b0" d="M42,-432C48,-432 54,-438 54,-444"/>
<path fill="#bcd5b0" stroke="#bcd5b0" d="M54,-456C54,-462 48,-468 42,-468"/>
<polyline fill="none" stroke="black" points="42,-468 12,-468 "/>
<path fill="none" stroke="black" d="M12,-468C6,-468 1.77636e-14,-462 1.42109e-14,-456"/>
<polyline fill="none" stroke="black" points="1.42109e-14,-456 7.10543e-15,-444 "/>
<path fill="none" stroke="black" d="M7.10543e-15,-444C3.55271e-15,-438 6,-432 12,-432"/>
<polyline fill="none" stroke="black" points="12,-432 42,-432 "/>
<path fill="none" stroke="black" d="M42,-432C48,-432 54,-438 54,-444"/>
<polyline fill="none" stroke="black" points="54,-444 54,-456 "/>
<path fill="none" stroke="black" d="M54,-456C54,-462 48,-468 42,-468"/>
<text text-anchor="middle" x="27" y="-446.9" font-family="Times Roman,serif" font-size="14.00" fill="#000000">TCS</text>
</g>
<!-- VS&#45;&gt;TCS -->
<g id="edge2" class="edge"><title>VS&#45;&gt;TCS</title>
<path fill="none" stroke="#000000" d="M27,-503.831C27,-496.131 27,-486.974 27,-478.417"/>
<polygon fill="#000000" stroke="#000000" points="30.5001,-478.413 27,-468.413 23.5001,-478.413 30.5001,-478.413"/>
</g>
<!-- FS -->
<g id="node2" class="node"><title>FS</title>
<polygon fill="#bcd5b0" stroke="#bcd5b0" points="42,-108 12,-108 1.42109e-14,-96 7.10543e-15,-84 12,-72 42,-72 54,-84 54,-96 42,-108"/>
<path fill="#bcd5b0" stroke="#bcd5b0" d="M12,-108C6,-108 1.77636e-14,-102 1.42109e-14,-96"/>
<path fill="#bcd5b0" stroke="#bcd5b0" d="M7.10543e-15,-84C3.55271e-15,-78 6,-72 12,-72"/>
<path fill="#bcd5b0" stroke="#bcd5b0" d="M42,-72C48,-72 54,-78 54,-84"/>
<path fill="#bcd5b0" stroke="#bcd5b0" d="M54,-96C54,-102 48,-108 42,-108"/>
<polyline fill="none" stroke="black" points="42,-108 12,-108 "/>
<path fill="none" stroke="black" d="M12,-108C6,-108 1.77636e-14,-102 1.42109e-14,-96"/>
<polyline fill="none" stroke="black" points="1.42109e-14,-96 7.10543e-15,-84 "/>
<path fill="none" stroke="black" d="M7.10543e-15,-84C3.55271e-15,-78 6,-72 12,-72"/>
<polyline fill="none" stroke="black" points="12,-72 42,-72 "/>
<path fill="none" stroke="black" d="M42,-72C48,-72 54,-78 54,-84"/>
<polyline fill="none" stroke="black" points="54,-84 54,-96 "/>
<path fill="none" stroke="black" d="M54,-96C54,-102 48,-108 42,-108"/>
<text text-anchor="middle" x="27" y="-86.9" font-family="Times Roman,serif" font-size="14.00" fill="#000000">FS</text>
</g>
<!-- Blend -->
<g id="node7" class="node"><title>Blend</title>
<polygon fill="#dc8888" stroke="black" points="54,-36 2.13163e-14,-36 0,-1.77636e-14 54,-3.55271e-15 54,-36"/>
<text text-anchor="middle" x="27" y="-14.9" font-family="Times Roman,serif" font-size="14.00" fill="#000000">Blend</text>
</g>
<!-- FS&#45;&gt;Blend -->
<g id="edge14" class="edge"><title>FS&#45;&gt;Blend</title>
<path fill="none" stroke="#000000" d="M27,-71.8314C27,-64.131 27,-54.9743 27,-46.4166"/>
<polygon fill="#000000" stroke="#000000" points="30.5001,-46.4132 27,-36.4133 23.5001,-46.4133 30.5001,-46.4132"/>
</g>
<!-- GS -->
<g id="node3" class="node"><title>GS</title>
<polygon fill="#bcd5b0" stroke="#bcd5b0" points="42,-252 12,-252 1.42109e-14,-240 7.10543e-15,-228 12,-216 42,-216 54,-228 54,-240 42,-252"/>
<path fill="#bcd5b0" stroke="#bcd5b0" d="M12,-252C6,-252 1.77636e-14,-246 1.42109e-14,-240"/>
<path fill="#bcd5b0" stroke="#bcd5b0" d="M7.10543e-15,-228C3.55271e-15,-222 6,-216 12,-216"/>
<path fill="#bcd5b0" stroke="#bcd5b0" d="M42,-216C48,-216 54,-222 54,-228"/>
<path fill="#bcd5b0" stroke="#bcd5b0" d="M54,-240C54,-246 48,-252 42,-252"/>
<polyline fill="none" stroke="black" points="42,-252 12,-252 "/>
<path fill="none" stroke="black" d="M12,-252C6,-252 1.77636e-14,-246 1.42109e-14,-240"/>
<polyline fill="none" stroke="black" points="1.42109e-14,-240 7.10543e-15,-228 "/>
<path fill="none" stroke="black" d="M7.10543e-15,-228C3.55271e-15,-222 6,-216 12,-216"/>
<polyline fill="none" stroke="black" points="12,-216 42,-216 "/>
<path fill="none" stroke="black" d="M42,-216C48,-216 54,-222 54,-228"/>
<polyline fill="none" stroke="black" points="54,-228 54,-240 "/>
<path fill="none" stroke="black" d="M54,-240C54,-246 48,-252 42,-252"/>
<text text-anchor="middle" x="27" y="-230.9" font-family="Times Roman,serif" font-size="14.00" fill="#000000">GS</text>
</g>
<!-- Rast -->
<g id="node6" class="node"><title>Rast</title>
<polygon fill="#dc8888" stroke="black" points="54,-180 2.13163e-14,-180 0,-144 54,-144 54,-180"/>
<text text-anchor="middle" x="27" y="-158.9" font-family="Times Roman,serif" font-size="14.00" fill="#000000">Rast</text>
</g>
<!-- GS&#45;&gt;Rast -->
<g id="edge10" class="edge"><title>GS&#45;&gt;Rast</title>
<path fill="none" stroke="#000000" d="M27,-215.831C27,-208.131 27,-198.974 27,-190.417"/>
<polygon fill="#000000" stroke="#000000" points="30.5001,-190.413 27,-180.413 23.5001,-190.413 30.5001,-190.413"/>
</g>
<!-- Tess -->
<g id="node8" class="node"><title>Tess</title>
<polygon fill="#dc8888" stroke="black" points="54,-396 2.13163e-14,-396 0,-360 54,-360 54,-396"/>
<text text-anchor="middle" x="27" y="-374.9" font-family="Times Roman,serif" font-size="14.00" fill="#000000">Tess</text>
</g>
<!-- TCS&#45;&gt;Tess -->
<g id="edge4" class="edge"><title>TCS&#45;&gt;Tess</title>
<path fill="none" stroke="#000000" d="M27,-431.831C27,-424.131 27,-414.974 27,-406.417"/>
<polygon fill="#000000" stroke="#000000" points="30.5001,-406.413 27,-396.413 23.5001,-406.413 30.5001,-406.413"/>
</g>
<!-- TES -->
<g id="node5" class="node"><title>TES</title>
<polygon fill="#bcd5b0" stroke="#bcd5b0" points="42,-324 12,-324 1.42109e-14,-312 7.10543e-15,-300 12,-288 42,-288 54,-300 54,-312 42,-324"/>
<path fill="#bcd5b0" stroke="#bcd5b0" d="M12,-324C6,-324 1.77636e-14,-318 1.42109e-14,-312"/>
<path fill="#bcd5b0" stroke="#bcd5b0" d="M7.10543e-15,-300C3.55271e-15,-294 6,-288 12,-288"/>
<path fill="#bcd5b0" stroke="#bcd5b0" d="M42,-288C48,-288 54,-294 54,-300"/>
<path fill="#bcd5b0" stroke="#bcd5b0" d="M54,-312C54,-318 48,-324 42,-324"/>
<polyline fill="none" stroke="black" points="42,-324 12,-324 "/>
<path fill="none" stroke="black" d="M12,-324C6,-324 1.77636e-14,-318 1.42109e-14,-312"/>
<polyline fill="none" stroke="black" points="1.42109e-14,-312 7.10543e-15,-300 "/>
<path fill="none" stroke="black" d="M7.10543e-15,-300C3.55271e-15,-294 6,-288 12,-288"/>
<polyline fill="none" stroke="black" points="12,-288 42,-288 "/>
<path fill="none" stroke="black" d="M42,-288C48,-288 54,-294 54,-300"/>
<polyline fill="none" stroke="black" points="54,-300 54,-312 "/>
<path fill="none" stroke="black" d="M54,-312C54,-318 48,-324 42,-324"/>
<text text-anchor="middle" x="27" y="-302.9" font-family="Times Roman,serif" font-size="14.00" fill="#000000">TES</text>
</g>
<!-- TES&#45;&gt;GS -->
<g id="edge8" class="edge"><title>TES&#45;&gt;GS</title>
<path fill="none" stroke="#000000" d="M27,-287.831C27,-280.131 27,-270.974 27,-262.417"/>
<polygon fill="#000000" stroke="#000000" points="30.5001,-262.413 27,-252.413 23.5001,-262.413 30.5001,-262.413"/>
</g>
<!-- Rast&#45;&gt;FS -->
<g id="edge12" class="edge"><title>Rast&#45;&gt;FS</title>
<path fill="none" stroke="#000000" d="M27,-143.831C27,-136.131 27,-126.974 27,-118.417"/>
<polygon fill="#000000" stroke="#000000" points="30.5001,-118.413 27,-108.413 23.5001,-118.413 30.5001,-118.413"/>
</g>
<!-- Tess&#45;&gt;TES -->
<g id="edge6" class="edge"><title>Tess&#45;&gt;TES</title>
<path fill="none" stroke="#000000" d="M27,-359.831C27,-352.131 27,-342.974 27,-334.417"/>
<polygon fill="#000000" stroke="#000000" points="30.5001,-334.413 27,-324.413 23.5001,-334.413 30.5001,-334.413"/>
</g>
</g>
</svg>
